<?xml version="1.0" encoding="UTF-8"?>
<svg id="_레이어_2" data-name="레이어 2" xmlns="http://www.w3.org/2000/svg" viewBox="0 0 2109.66 1462.74">
  <g id="_레이어_1-2" data-name="레이어 1">
    <g>
      <path d="M691.87,154.22c422.61-193.15,301.44-15.25,588.55-50.6,669.02-519.79,1231.78,1103.17,447.69,748.71-172.28-146.15-95.83,317.89-250.62,430.73-279.88,320-1163.56,207.79-1103.64-298.47,16.15-108.13-30.28-85.12-93.89-69.02-666.76,228.74,15.76-1122.36,411.91-761.36ZM1011.09,821.16c67.26,19.99,188.57-.99,107.96,114.89-515.61,1023.09,1194.34,88.19,14.73-772.53C690.8-9.59,546.6,619.88,443.18,924.31c-150.85,312.14,519.08,613.04,522.42,402.41-4.43-87.3-6.87-174.76-14.43-261.77-1.81-20.85-15.61-50.35-32.35-58.51-98.52-58.52-73.4-140.46.67-177.87,28.35-14.32,61.16-16.46,91.6-7.41ZM1307.96,171.25c130.86,135.29,208.91,276.78,270.72,449.39,53.91,111.93,144.92,186.92,263.61,217.39,556.89,67.83-34.08-1134.72-534.32-666.78ZM53.09,771.74c16.76,243.92,347.79,53.92,390.81-97.42,40.79-156.91,198-312.34,212.61-469.34C340.91,19.2,127.07,536.25,53.09,771.74ZM1013.83,999.77c16.09-31.99,53.59-62.6,66.84-88.94,7.92-15.75-27.75-30.13-45.38-30.13h-113.83c-16.3,0-25.63,18.57-15.91,31.65,23.38,31.45,43.61,58.67,67.6,90.95,10.64,14.32,32.65,12.41,40.66-3.53Z"/>
      <path d="M1292.89,599.54c.15,15.05-6.18,28.02-17.62,42.39-20.46,25.7-59.4,26.05-80.44.81-22.84-27.39-18.99-48.02,8.13-77.11,31.71-34.02,89.48-12.6,89.93,33.91Z"/>
      <path d="M755.61,661.36c-14.71,1.18-27.1-4-37.09-15.3-15.95-18.04-16.89-44.94-2.89-64.53,22.89-32.04,44.2-34.02,69.41-11.93,34.58,30.3,16.4,88.08-29.43,91.76Z"/>
    </g>
  </g>
</svg>