<?xml version="1.0" encoding="UTF-8"?>
<svg id="_레이어_2" data-name="레이어 2" xmlns="http://www.w3.org/2000/svg" viewBox="0 0 594.33 632.16">
  <g id="_레이어_1-2" data-name="레이어 1">
    <path d="M453.42,531.92c-53.16-35.82-106.33-71.65-172.3-116.11-10.42,84.67-18.52,150.51-26.63,216.35-11.5-.42-22.99-.85-34.49-1.27v-217.46c-62.37,47.69-99.57,76.13-136.76,104.56-8.1-6.17-16.19-12.33-24.29-18.5,34.2-50.53,68.4-101.06,113.41-167.56-64.75-10.63-116.81-19.18-168.86-27.73-1.16-7.39-2.33-14.78-3.49-22.17,40.84-12.76,81.69-25.52,129.3-40.4-4.48-27.44-9.41-57.59-15.7-96.09,36.32,25.22,65.45,45.46,109.77,76.24,14.79-81.66,27.48-151.72,40.17-221.78,10.85.81,21.7,1.62,32.55,2.43,3.79,43.24,7.59,86.48,11.81,134.6h84.11c-18.29,36.11-34.11,67.35-56.41,111.38,91.59,8.17,175.16,15.62,258.73,23.07-.63,13.44-1.26,26.87-1.89,40.31-88.92,7.79-177.83,15.58-290.78,25.48,70.78,67.26,124.48,118.28,178.17,169.3-8.8,8.45-17.61,16.9-26.41,25.35Z"/>
  </g>
</svg>