<?xml version="1.0" encoding="UTF-8"?>
<svg id="_레이어_2" data-name="레이어 2" xmlns="http://www.w3.org/2000/svg" viewBox="0 0 1349.21 1519.87">
  <g id="_레이어_1-2" data-name="레이어 1">
    <g>
      <path d="M427.73,872.7c-40.9-103.56-61.53-223.54-128.37-306.08C231.68,483.04,118.28,436.49,0,356.98,219.71,310.94,395.82,213.55,489.24,0c39,223.49,215.69,257.99,408.74,304.79-249.93,128.78-415.59,300-443.03,577.9-9.07-3.33-18.15-6.66-27.22-9.99ZM167.63,380.68c82.55,78.92,176.67,168.89,281.22,268.84-17.32,3.62-8.48,4.52-4.7.58,89.43-93.49,179.8-186.2,265.17-283.3,9.34-10.62-2.67-57.52-18.54-69.83-74.7-57.97-154.21-109.74-215.81-152.48-101.94,78.34-207.87,159.74-307.34,236.19Z"/>
      <path d="M911.23,950.49c73.88-80.18,140.24-152.2,208.93-226.75,66.02,61.63,143.97,134.38,229.05,213.8-93.14,42.53-157.87,127.84-158.06,281.25-51.58-83.94-74.28-145.96-117.74-184.68-45.32-40.39-110.64-58.33-162.18-83.62ZM1005.01,918.7c131.26,106.78,185.29,118.92,221.82,62.69,59.04-90.89-58.62-91.83-76.53-144.17-44.35,24.87-88.69,49.74-145.29,81.48Z"/>
      <path d="M108.85,1345.64c40.57-46.44,77.54-88.75,113.16-129.53,46.03,50,92.68,100.68,143.16,155.52-25.98,40.78-61.05,95.85-94.42,148.24-54.25-58.38-106.74-114.87-161.91-174.23Z"/>
    </g>
  </g>
</svg>