<?xml version="1.0" encoding="UTF-8"?>
<svg id="_레이어_2" data-name="레이어 2" xmlns="http://www.w3.org/2000/svg" viewBox="0 0 1843.74 1178.1">
  <g id="_레이어_1-2" data-name="레이어 1">
    <g>
      <path d="M586.83,1178.1c-91.51-34.58-197.41-76.08-304.37-114.68C106.59,999.94,28.05,864.92,2.23,689.49c-14.14-96.1,40.61-218.25,118.15-261.81,113.05-63.5,228.31-55.91,317.45,20.74,12.46,10.72,25.47,20.79,46.83,38.16,23.29-28.43,46.3-51.69,63.68-78.58,65.94-102.03,165.07-136.7,277.22-122.41,109.01,13.88,196.86,118.43,215.75,240.5,27.62,178.49-28.2,325.77-172.8,436.87-87.3,67.07-174.97,133.66-281.68,215.13ZM493.63,566.24c-25.03-27.79-46.21-48.53-64.19-71.75-63.69-82.25-144.6-75.63-228.14-42.75-82.98,32.66-149.21,85.63-148.35,183.61,1.19,134.41,42.92,254.6,163.37,328.72,73.74,45.37,154.21,80.17,232.97,116.91,65.47,30.54,123.49,31.79,181.86-28.08,45.89-47.07,107.69-79.71,165.17-114.18,137.96-82.74,221.36-260.5,183.47-414.24-19.1-77.52-43.03-153.54-139.82-180.01-98.86-27.04-171.98,3.41-233.87,75.14-36.94,42.82-69.14,89.74-112.47,146.64Z"/>
      <path d="M1494.5,106.69C1638.39,5.66,1683.24,1.31,1762.59,74.31c92.98,85.55,108.65,189.49,33.59,309.6-45.67,73.09-103.64,139.34-161.68,203.63-60.95,67.52-131.66,75.14-200.57,8.77-89.1-85.82-181.65-168.92-262.19-262.28-28.58-33.13-45.91-98.86-33.65-139.15,20.02-65.81,54.56-150.59,108.09-177.62,91.78-46.34,181.6,6.41,248.31,89.42ZM1512.28,209.68c-30.61-48.69-40.26-65.73-51.52-81.64-47.33-66.9-108.63-103.73-190.88-72.19-57.29,21.96-94.07,137.05-71.53,205.39,34.87,105.77,270.72,333.94,338.68,310.38,139-48.2,194.54-176.47,245.86-302.63,2.54-6.24,5.13-12.59,6.59-19.13,16.67-74.9-18.64-134.19-81.81-154.47-39.96-12.83-96.4,13.4-140.93,32.59-20.32,8.76-29.74,42.83-54.46,81.71Z"/>
    </g>
  </g>
</svg>