<?xml version="1.0" encoding="UTF-8"?>
<svg id="_레이어_2" data-name="레이어 2" xmlns="http://www.w3.org/2000/svg" viewBox="0 0 907.92 1097.21">
  <g id="_레이어_1-2" data-name="레이어 1">
    <path d="M402.7,297.07c38.04-60.29,75.53-117.66,110.96-176.29C587.61-1.55,815.47-61.16,878.22,89.45c36.12,86.7,35.37,199.83,18.56,295.31-39.9,226.61-157.05,418.88-314.91,584.81-38.78,40.76-85.05,76.69-133.45,105.44-71.63,42.55-137.9,21.15-188.74-40.39C39.59,768.24-37.05,461.43,16.31,123.09c6.47-41.01,51.07-103.5,83.2-106.91,56.27-5.97,135.37,8.53,170.91,46.38,56.53,60.21,85.13,146.63,132.28,234.51Z"/>
  </g>
</svg>