<?xml version="1.0" encoding="UTF-8"?>
<svg id="_레이어_2" data-name="레이어 2" xmlns="http://www.w3.org/2000/svg" viewBox="0 0 1164.07 1485.56">
  <g id="_레이어_1-2" data-name="레이어 1">
    <path d="M997.64,311.45c-144.92,99.8-307.46,149.77-471.75,204.63-31.99,12.44-82.7,40.19-84.62,65.41-9.52,124.98-41.45,255.04,31.33,372.51,134.37,177.36,9.26,337.18-110.57,478.34-420.91,220.66-480.3-304.37-149.22-491.68,179.08-112.65,60.36-391.69,127.41-568.17C476.38,141.11,842.36,143.71,1064.98,14.15c217.96-124.44,3.98,609.66,33.6,723.36.47,114.38,76.87,266.83,32.21,377.29-85.18,159.37-336.92,370.97-451.61,155.23-100.25-304.89,220.1-327.21,300.55-546.69-.27-98.92,83.22-353.74,17.9-411.88Z"/>
  </g>
</svg>