<?xml version="1.0" encoding="UTF-8"?>
<svg id="_레이어_2" data-name="레이어 2" xmlns="http://www.w3.org/2000/svg" viewBox="0 0 1079.27 1194.87">
  <defs>
    <style>
      .cls-1 {
        fill: #040000;
      }
    </style>
  </defs>
  <g id="_레이어_1-2" data-name="레이어 1">
    <path class="cls-1" d="M1077.49,553.6l-1.88-25.63-21.39,14.25c-24.6,16.39-52.4,25.06-80.41,25.06-91.54,0-166.01-89.24-166.01-198.93,0-51.81,16.7-100.96,47.02-138.38l12.3-15.18-17.84-7.96c-50.95-22.73-102.75-31.06-149.8-24.07-46.66,6.92-88.17,29.06-120.99,64.34-.57-1.95-1.11-3.94-1.62-5.94-.92-3.65-1.67-7.41-2.46-11.38l-.52-2.63c-.04-.18-.07-.33-.09-.46-.06-.55-.12-1.09-.18-1.63-.13-1.21-.26-2.43-.36-3.64-.04-1.86.22-9.56.42-15.22.25-7.46.5-14.52.47-18.18l.04-.21h0c.6-3.12,1.3-6.23,2.08-9.26,1.35-5.3,3.17-10.95,5.88-18.3.08-.16.18-.35.29-.57.59-1.15,1.17-2.3,1.74-3.45,1.38-2.74,2.69-5.34,4.07-7.79,3.07-5.47,6.73-11.1,11.49-17.72.32-.4.7-.89,1.1-1.41.64-.81,1.83-2.33,2.14-2.71,2.68-3.15,5.62-6.4,8.72-9.64,6.36-6.66,13.67-13.42,22.35-20.68,10.66-8.93,16.98-22.96,17.34-38.5.38-16.43-5.91-32.22-16.83-42.23-22.39-20.56-53.72-20.74-77.95-.46-30.72,25.72-55.71,57.21-72.27,91.08-18.11,37.04-26,75.65-23.47,114.76.51,7.88,1.36,15.8,2.55,23.7-15.68-6.95-38.14-15.55-64.94-22.02-30.7-7.42-60.81-10.5-89.5-9.15-36.21,1.69-70.19,10.46-100.99,26.07-51.15,25.91-93.81,70.73-126.8,133.21C42.91,445.24,17.09,542.89,4.45,662.99c-11.87,112.81.01,210.24,35.32,289.61,31.62,71.06,81.9,127.8,149.45,168.64,49.75,30.08,108.45,51.27,174.49,63,39.85,7.08,81.66,10.63,124.9,10.63,20.39,0,41.11-.79,62.07-2.37,117.13-8.84,232.01-42.41,299.81-87.61,77.96-51.97,140.75-136.5,181.6-244.47,36.72-97.04,52.84-206.01,45.4-306.82ZM833.85,1079.93c-63.77,42.51-173.14,74.18-285.43,82.65-133.49,10.08-255.55-13.73-343.67-67.01C70.21,1014.22,12.86,869.73,34.29,666.13c12.23-116.19,36.91-210.14,73.35-279.23,29.99-56.87,68.25-97.42,113.7-120.51,30.61-15.55,64.28-23.34,100.63-23.34,21.9,0,44.78,2.83,68.53,8.5,48.04,11.45,81.76,30.83,82.08,31.02l3.5,2.04h26.99l-4.77-18.71c-3.96-15.49-6.48-31.28-7.49-46.92-4.29-66.12,26.72-132.05,85.06-180.88,12.74-10.67,27.1-10.84,38.4-.45,4.58,4.19,7.31,11.65,7.13,19.45-.16,6.9-2.57,12.79-6.61,16.17-9.53,7.98-17.63,15.49-24.77,22.95-3.51,3.67-6.84,7.36-9.9,10.96-.64.75-1.53,1.88-2.92,3.66-.45.59-.88,1.13-1.19,1.53l-.42.54c-5.52,7.66-9.8,14.28-13.49,20.82-1.72,3.07-3.25,6.1-4.72,9.04-.55,1.08-1.09,2.17-1.65,3.25-.13.26-.21.41-.29.55l-.75,1.39-.38,1.03c-.08.24-.14.4-.2.57-2.11,5.73-4.81,13.35-6.91,21.55-1.02,4-1.93,8.11-2.7,12.23-.09.49-.14.77-.16,1v.07s-.02.04-.02.06c-.41,2.28-.98,5.62-.25,9.1-.09,3.42-.24,7.67-.37,11.61-.43,12.54-.53,16.24-.36,18.38.13,1.64.29,3.2.46,4.7.07.74.15,1.48.23,2.22l.08.82.88,4.32c.83,4.17,1.68,8.48,2.79,12.87.27,1.08.55,2.14.84,3.19l12.87,32.93h24.59l4.5-5.63c53.71-67.12,138.37-85.93,229.1-51.89-27.13,40.24-41.88,89.66-41.88,141.26,0,60.68,20.09,117.85,56.57,160.96,37.08,43.83,86.61,67.97,139.44,67.97,25.77,0,51.31-6,75.04-17.49,5.86,177.31-63.97,399.45-215,500.14Z"/>
  </g>
</svg>