<?xml version="1.0" encoding="UTF-8"?>
<svg id="_레이어_2" data-name="레이어 2" xmlns="http://www.w3.org/2000/svg" viewBox="0 0 1119.27 1234.89">
  <defs>
    <style>
      .cls-1 {
        fill: #040000;
      }
    </style>
  </defs>
  <g id="_레이어_1-2" data-name="레이어 1">
    <path class="cls-1" d="M508.62,1234.89c-44.42,0-87.4-3.65-128.41-10.93-68.47-12.16-129.48-34.22-181.33-65.58-71.12-43-124.07-102.76-157.38-177.63C4.74,898.14-7.68,797.26,4.56,680.91c24.39-231.73,96.52-379.5,214.38-439.21,90.14-45.67,183.65-27.75,241.58-7.6-1.24-39.83,7.45-79.05,25.85-116.7,17.78-36.37,44.55-70.13,77.4-97.63C578.85,7.16,596.48.32,614.75.01c19.38-.33,38.35,7.06,53.33,20.82,15.09,13.86,23.8,35.33,23.3,57.43-.49,21.3-9.42,40.75-24.5,53.37-8.1,6.78-14.88,13.05-20.73,19.16-2.79,2.92-5.42,5.82-7.8,8.62-.44.54-1.12,1.42-1.75,2.22-.31.39-.6.77-.87,1.11-4.2,5.86-7.4,10.8-10.06,15.51-1.15,2.05-2.35,4.44-3.63,6.98-.52,1.03-1.03,2.05-1.55,3.08-2.24,6.14-3.74,10.86-4.85,15.2-.57,2.23-1.09,4.52-1.56,6.81-.15,3.47-.38,9.99-.56,16.15,30.13-23.04,65.01-37.85,103.03-43.5,50.83-7.54,106.46,1.31,160.88,25.59l41.63,18.58-28.7,35.42c-27.45,33.87-42.56,78.54-42.56,125.79,0,98.66,65.5,178.93,146.02,178.93,24.39,0,47.71-7.3,69.31-21.7l49.9-33.26,4.41,59.81c7.65,103.66-8.92,215.66-46.65,315.37-42.33,111.89-107.76,199.73-189.21,254.03-70.49,46.99-189.04,81.83-309.4,90.91-21.46,1.62-42.68,2.43-63.57,2.43ZM342.05,283.1c-33.35,0-64.11,7.1-91.91,21.28-41.63,21.23-76.93,58.94-104.92,112.09-35.19,66.81-59.09,158.25-71.04,271.78-20.55,195.22,33.59,333.25,160.92,410.24,84.6,51.15,202.44,73.95,331.82,64.18,107.41-8.1,215.68-39.25,275.83-79.35,137.02-91.35,204.3-288.13,206.4-454.34-18,5.5-36.61,8.33-55.34,8.33-29.92,0-58.89-6.9-86.11-20.5-25.82-12.91-48.9-31.26-68.61-54.54-39.53-46.72-61.3-108.47-61.3-173.88,0-46.32,11.08-91.08,31.76-129.9-51.44-13.96-127.06-17.34-183.35,53.03l-10.51,13.14h-46.34l-10.65-19.7-1.09-2.56c-3.28-8.38-6.27-17.73-9.14-28.6l-.39-1.46c-1.67-6.2-2.81-11.02-4.55-25.78-.73-6.16.25-41.19,1.31-46.85.85-4.53,1.85-9.07,2.98-13.49,2.3-8.98,5.17-17.13,7.44-23.28.08-.22.16-.47.28-.79l.86-2.35,1.55-2.88c.5-.97,1.02-2.01,1.54-3.05,1.51-3,3.21-6.4,5.18-9.89,4.06-7.21,8.72-14.42,14.7-22.7l.96-1.27c.29-.37.69-.88,1.11-1.42,1.54-1.98,2.54-3.25,3.42-4.28,3.32-3.91,6.91-7.88,10.7-11.84,7.45-7.8,15.83-15.59,25.59-23.8.52-1.7.2-5.07-.67-6.47-2.05-1.86-5.17-4.24-11.78,1.29-53.4,44.7-81.81,104.57-77.94,164.26.93,14.4,3.26,28.96,6.91,43.27l11.14,43.65h-58.14l-8.17-4.77c-.24-.14-32.37-18.47-77.85-29.13-21.74-5.1-42.64-7.64-62.6-7.64ZM620.41,72.03h0s0,0,0,0Z"/>
  </g>
</svg>