<?xml version="1.0" encoding="UTF-8"?>
<svg id="_레이어_2" data-name="레이어 2" xmlns="http://www.w3.org/2000/svg" viewBox="0 0 1049.28 1164.87">
  <defs>
    <style>
      .cls-1 {
        fill: #040000;
      }
    </style>
  </defs>
  <g id="_레이어_1-2" data-name="레이어 1">
    <g>
      <path class="cls-1" d="M544.18,172.9c.05-.45-.02-.61-.04-.93,0,.03,0,.03-.01.06.02.28.05.4.05.87Z"/>
      <path class="cls-1" d="M1047.57,539.73c-26.23,17.48-56.46,27.57-88.72,27.57-99.97,0-181.02-95.78-181.02-213.93,0-57.4,19.23-109.4,50.37-147.82-92.99-41.49-196.2-36.03-264.29,49.09h-8.65s-.01-.02-.02-.04c-.07-.18-.07-.21-.14-.41-2.92-8.02-5.65-16.05-7.74-24.34-1.23-4.89-2.15-9.81-3.15-14.75-.1-.49-.14-.69-.22-1.07-.22-2.2-.49-4.4-.66-6.61-.24-3.11.93-27.83.86-34.52-.25,2.1-.96,4.26-.05-.87-.02-.32-.03-.83-.07-.85.12.05.06.5.08.79.07-.41.05-.37.14-.87.71-3.77,1.53-7.53,2.48-11.25,1.75-6.85,4.02-13.5,6.47-20.13.11-.29.12-.35.21-.59.22-.41.36-.64.68-1.27,2.01-3.94,3.92-7.91,6.09-11.77,3.79-6.73,8.07-13.13,12.58-19.39,1-1.26,3.07-3.95,3.79-4.8,3-3.53,6.11-6.95,9.31-10.3,7.41-7.75,15.34-14.93,23.56-21.81,16.57-13.87,15.38-44.06,0-58.18-17.62-16.17-40.51-14.79-58.18,0-57.01,47.72-95.31,117.6-90.4,193.36,1.06,16.33,3.72,33.19,7.92,49.66h-3.63S70.23,24.25,4.4,649.58c-65.82,625.33,625.33,559.5,822.8,427.85,161.09-107.39,234.5-346.16,220.37-537.71Z"/>
    </g>
  </g>
</svg>