<?xml version="1.0" encoding="UTF-8"?>
<svg id="_레이어_2" data-name="레이어 2" xmlns="http://www.w3.org/2000/svg" viewBox="0 0 1509.57 809.84">
  <defs>
    <style>
      .cls-1 {
        fill: #040000;
      }
    </style>
  </defs>
  <g id="_레이어_1-2" data-name="레이어 1">
    <g>
      <path class="cls-1" d="M1505.11,129.05c-.21-28.76-.42-57.53-.63-86.29-.17-22.65-19.45-43.36-42.74-42.74-136.49,3.63-272.99,7.26-409.48,10.89-217.46,5.78-434.92,11.56-652.39,17.35-49.79,1.32-99.58,2.65-149.38,3.97-23.94.64-41.59,19.1-42.74,42.74-2.69,55.09-5.38,110.18-8.06,165.28-47.49,3.6-94.97,7.19-142.46,10.79-23.93,1.81-41.54,18.15-42.74,42.74C9.67,392.44,4.86,491.11.04,589.78c-1.16,23.89,20.56,41.66,42.74,42.74,60.99,2.97,121.98,5.95,182.97,8.93-1.56,32.02-3.12,64.04-4.69,96.06-.83,16.91,13.74,38.42,31.38,41.22,195.44,30.99,395.42,32.71,592.85,30.41,172.19-2.01,344.36-9.35,516.2-20.45,35.12-2.27,70.24-4.62,105.31-7.46,22.9-1.85,42.92-18.08,42.74-42.74-1.48-203.14-2.97-406.29-4.45-609.43ZM580.86,721.34c-90.92-3-182.26-8.27-272.5-20.6,1.62-33.28,3.25-66.57,4.87-99.85,1.17-23.89-20.56-41.66-42.74-42.74-60.99-2.98-121.98-5.95-182.97-8.93,3.51-71.93,7.02-143.86,10.53-215.79,47.49-3.6,94.97-7.19,142.46-10.79,10.42-.79,18.83-4.58,25.29-10.12,9.66-6.81,16.72-17.58,17.46-32.62,2.65-54.42,5.31-108.84,7.96-163.27,122.92-3.27,245.85-6.54,368.77-9.8,217.46-5.78,434.92-11.56,652.39-17.35,35.65-.95,71.3-1.9,106.95-2.84,1.38,188.52,2.76,377.04,4.13,565.56.11,15.6.23,31.2.34,46.79-279.96,21.49-562.45,31.63-842.93,22.36Z"/>
      <path class="cls-1" d="M657,209.15h-198.4c-6.85,0-12.05,2.85-15.78,7.13-.28.26-.52.57-.79.85-.14.18-.3.34-.43.52-3.8,4.26-6.33,10.25-6.33,18.14v350.67c0,14.4,10.69,26.64,23.33,26.64h198.4c12.61,0,23.33-12.21,23.33-26.64V235.79c0-14.4-10.69-26.64-23.33-26.64Z"/>
      <path class="cls-1" d="M993.37,219.58h-198.4c-6.85,0-12.05,2.85-15.78,7.13-.28.26-.52.57-.79.85-.14.18-.3.34-.43.52-3.8,4.26-6.33,10.25-6.33,18.14v350.67c0,14.4,10.69,26.64,23.33,26.64h198.4c12.61,0,23.33-12.2,23.33-26.64V246.22c0-14.4-10.69-26.64-23.33-26.64Z"/>
      <path class="cls-1" d="M1312.53,196.78h-198.4c-6.85,0-12.05,2.85-15.78,7.13-.28.26-.52.57-.79.85-.14.18-.3.34-.43.52-3.8,4.26-6.33,10.25-6.33,18.14v350.67c0,14.4,10.69,26.64,23.33,26.64h198.4c12.61,0,23.33-12.2,23.33-26.64V223.42c0-14.4-10.69-26.64-23.33-26.64Z"/>
    </g>
  </g>
</svg>