<?xml version="1.0" encoding="UTF-8"?>
<svg id="_레이어_2" data-name="레이어 2" xmlns="http://www.w3.org/2000/svg" viewBox="0 0 1502.93 773.38">
  <defs>
    <style>
      .cls-1 {
        fill: #040000;
      }
    </style>
  </defs>
  <g id="_레이어_1-2" data-name="레이어 1">
    <g>
      <path class="cls-1" d="M1502.75,125.53c.06-27.17.12-54.33.18-81.5.05-22.01-17.25-44.46-40.91-44.03-137.1,2.51-274.21,5.03-411.31,7.55-218.56,4.01-437.13,8.02-655.69,12.03-50.21.92-100.43,1.84-150.64,2.76-22.97.42-43.14,16.87-44.03,40.91l-6.12,166.68c-46.46,4.08-92.91,8.16-139.36,12.25-22.9,2.01-43.1,15.59-44.03,40.91C7.24,381.23,3.63,479.38.03,577.53c-.84,22.96,17.9,43.18,40.91,44.03,61.34,2.25,122.68,4.51,184.03,6.76-1.14,31.14-2.29,62.29-3.43,93.43-.84,22.95,17.9,43.19,40.91,44.03,374.09,13.53,749.81,9.79,1123.26-17.42,23.92-1.74,47.85-3.52,71.74-5.74,22.25-2.07,43.97-15.53,44.03-40.91.43-192.06.86-384.11,1.29-576.17ZM688.22,687.98c-126.76.3-253.5-1.92-380.18-6.02,1.14-31,2.28-62,3.42-93,.84-22.96-17.9-43.18-40.91-44.03-61.34-2.25-122.68-4.51-184.03-6.76,2.63-71.61,5.26-143.21,7.89-214.81,46.46-4.08,92.91-8.16,139.36-12.25,5.09-.45,10-1.58,14.64-3.2,15.6-4.3,28.62-16.7,29.39-37.71,2-54.57,4.01-109.14,6.01-163.72,122.92-2.25,245.84-4.51,368.76-6.76,218.56-4.01,437.13-8.02,655.69-12.03,36.54-.67,73.09-1.34,109.63-2.01-.4,177.13-.79,354.26-1.19,531.39-.03,14.77-.07,29.53-.1,44.3-241.91,20.58-485.87,26.03-728.38,26.6Z"/>
      <path class="cls-1" d="M471.57,327.38s-162.74-83.44-107.75,112.24c0,0,37.84,98.22,119.93,120.6,82.08,22.38,174.11-225.99,134.13-266.19-39.98-40.2-102.07-42.48-146.31,33.36Z"/>
      <path class="cls-1" d="M821.12,318.64s-162.74-83.44-107.75,112.24c0,0,37.84,98.22,119.93,120.6,82.08,22.38,174.11-225.99,134.13-266.19-39.97-40.2-102.07-42.48-146.31,33.36Z"/>
      <path class="cls-1" d="M1177.6,312.37s-162.74-83.44-107.75,112.24c0,0,37.84,98.22,119.93,120.6,82.08,22.38,174.11-225.99,134.13-266.19-39.98-40.2-102.07-42.48-146.31,33.36Z"/>
    </g>
  </g>
</svg>