<?xml version="1.0" encoding="UTF-8"?>
<svg id="_레이어_2" data-name="레이어 2" xmlns="http://www.w3.org/2000/svg" viewBox="0 0 2014.06 1426.04">
  <g id="_레이어_1-2" data-name="레이어 1">
    <g>
      <path d="M86.13,1196.94c172.25-30.61,176.04-116.18,102.87-251.16C161.9,891.13-.17,955.03,0,879.02c115.65-31.08,279.93-7.34,220.87-181.7C121.32,512.46,86.43,304.53,43.42,100.48c-28.17-178.5,369.51,72.14,439.25,99.12,130.68,81.88,257.59,65.25,395.87,43.22,359.22-3.41,691.72-95.89,1020.38-236.87,305.04-75.65-92.26,591.94-95.04,726.13-31.34,123.03,134.04,50.89,199.78,98.49-68.77,61.22-185.87,5.13-217.03,135.82-33.72,141.44,111.87,104.82,156.59,171.69-218.98,58.05-456.45,253.61-695.95,269.51-283.64,15.48-603.8,69.08-841.07-127.18-100.68-130-283.98,15.78-320.1-83.47ZM941.36,1352.24c257.14,2.05,555.65-1.18,711.56-241.43,157.47-258.97,68.9-692.37-244.55-778.65C285.79,25.27-252,1379.76,941.36,1352.24ZM618.94,322.9C126.48,97.31,11.38,4.56,258.29,602.13c72.14,3.75,34.77-78.55,34.48-126.74-39.82-211.14,248.1,19.28,326.18-152.48ZM1794.55,554.21c159.88-458.04,221.65-625.58-293.67-302.43,14.45,77.4,148.88,31.29,224.05,54.52-11.84,83.52-99.07,188.38,69.62,247.91Z"/>
      <path d="M742.91,1078.71c44.36,162.04,232.8,181.15,275.97,32.94-8.34-48.37-98.6-97.22-114.39-147.82,19.79-66.29,134.71-70.92,197.09-60.72,16.25,43.54-12.01,189.58,21.76,222.24,142.53,87.01,202.32-63.04,260.38-173.2,92.85,99.32,2.74,241.06-123.31,241.74-95.9,3.68-190.15-4.87-278.64,58.79-104.05,94.1-395.61-109.19-238.85-173.97Z"/>
      <path d="M1362.73,740.42c-.37.33-.73.66-1.1.99-33.2,29.92-86.28,22.87-108.78-15.75-38.01-65.24,10.9-135.47,89.1-104.57,49,19.36,59.84,83.97,20.78,119.33Z"/>
      <path d="M711.66,708.73c-25.32,79.45-146.13,47.52-130.78-34.44,1.85-9.87,4.84-20.16,8.89-30.81,3.99-10.5,58.23-14.86,79.41-3.6,43.39,23.07,49.82,45.79,42.47,68.86Z"/>
    </g>
  </g>
</svg>