<?xml version="1.0" encoding="UTF-8"?>
<svg id="_레이어_2" data-name="레이어 2" xmlns="http://www.w3.org/2000/svg" viewBox="0 0 1442.05 759.35">
  <defs>
    <style>
      .cls-1 {
        fill: #040000;
      }
    </style>
  </defs>
  <g id="_레이어_1-2" data-name="레이어 1">
    <g>
      <path class="cls-1" d="M1439.69,124.69c-.11-27.18-.22-54.35-.34-81.53-.09-20.71-14.88-43.46-38.08-43.16-130,1.68-259.99,3.35-389.99,5.03-207.11,2.67-414.22,5.34-621.33,8.01-47.42.61-94.84,1.22-142.26,1.83-22,.28-41.7,14.73-43.16,38.08-3.32,53.14-6.64,106.29-9.97,159.43-44.58,2.76-89.15,5.53-133.73,8.29-21.98,1.36-41.64,13.86-43.16,38.08C11.81,352.64,5.94,446.51.08,540.39c-1.37,21.96,16.07,41.78,38.08,43.16,58.67,3.67,117.34,7.34,176.02,11-2.31,37.01-4.63,74.02-6.94,111.03-1.37,21.94,16.07,41.81,38.08,43.16,351.69,21.63,706.89,6.1,1058.54-10.18,31.69-1.47,63.37-2.97,95.04-4.7,20.8-1.14,43.26-14.03,43.16-38.08-.79-190.36-1.57-380.72-2.36-571.08ZM556.25,675.97c-88.42-.32-176.89-1.94-265.21-6.4,2.3-36.86,4.61-73.71,6.91-110.57,1.37-21.96-16.07-41.78-38.08-43.16-58.67-3.67-117.34-7.34-176.02-11,4.28-68.49,8.56-136.98,12.84-205.46,44.58-2.76,89.15-5.53,133.73-8.29,4.88-.3,9.61-1.27,14.09-2.7,15.04-3.73,27.81-15.28,29.06-35.38,3.28-52.47,6.56-104.95,9.84-157.42,116.39-1.5,232.78-3,349.18-4.5,207.11-2.67,414.22-5.34,621.33-8.01,34.79-.45,69.58-.9,104.36-1.35.73,175.81,1.45,351.62,2.18,527.43.06,15.19.13,30.37.19,45.56-267.8,13.99-536.3,22.24-804.42,21.25Z"/>
      <polygon class="cls-1" points="860.53 126.59 604.63 393.32 733.25 423.11 698.05 638.39 974.26 394.68 848.34 321.56 860.53 126.59"/>
    </g>
  </g>
</svg>