<?xml version="1.0" encoding="UTF-8"?>
<svg id="_레이어_2" data-name="레이어 2" xmlns="http://www.w3.org/2000/svg" viewBox="0 0 1419.37 1014.64">
  <defs>
    <style>
      .cls-1 {
        fill: #040000;
      }
    </style>
  </defs>
  <g id="_레이어_1-2" data-name="레이어 1">
    <path class="cls-1" d="M1402.16,290.08c-39.46-65.41-127.92-98.21-201.02-86.2-7.84,1.29-15.7,3.31-23.54,5.66.52-56.5-17.45-111.52-63.05-150.23-62.79-53.3-159.6-73.74-238.37-48.67-62.05,19.74-110.72,63.67-147.81,115.87-21.5-33.25-52.4-60.48-93.11-76.22-71.43-27.61-162.14-24.11-229.42,13.42-55.36,30.89-91.53,84.86-111.95,143.61-6.82,19.62-11.87,40.57-15.17,61.71-70.57,5.3-142.8,23.28-194.7,72.88-34.66,33.13-50.7,76.88-65.45,116.26-25.24,67.42-27.54,144.94,10.67,208.08,29.56,48.85,77.63,83.97,129.19,106.76,21.35,9.44,43.6,17.87,66.34,24.16,5.31,56.44,22.41,111.9,65.11,151.84,58.83,55.03,147.66,67.89,225.14,65.33,103.83-3.44,209.78-57.65,270.58-143.89,113.78,44.42,251.23,74.23,351.91-9.18,66.09-54.75,89.77-144.04,93.78-226.5.55-11.23.63-22.58.34-33.91,60.99-41.8,120.52-93.63,159.02-155.69,28.99-46.73,41.4-105.54,11.52-155.07ZM1318.16,373.79c-13.23,37.22-57.22,78.63-92.58,108.62-22.53,19.11-41.25,33.6-68.84,51.24-13.33,8.52-26.1,25.11-24.14,42.09,1.46,12.68,1.74,25.56,1.72,38.31-.03,13.13-.62,26.26-1.82,39.34-.35,3.85-.8,7.69-1.22,11.54-.04.35.12-.43.28-1.28-.16.84-.36,1.94-.69,3.7-1.54,8.28-2.93,16.55-4.86,24.76-1.85,7.87-3.98,15.68-6.44,23.38-1.35,4.22-2.85,8.38-4.33,12.55-3.07,8.65-1.58,4.12-1.66,4.27-3.54,7.59-7.29,15.05-11.61,22.23-2.34,3.9-4.86,7.66-7.4,11.42-1.08,1.6-1.58,2.41-1.89,2.95-.46.43-1.15,1.13-2.53,2.64-16.51,18.09-17.77,19.36-36.06,29.25-10.19,5.51-36.06,13.33-48.1,14.6-73.85,7.8-149.48-18.58-216.03-47.76-22.97-10.07-53.72-8.11-66.7,17.49-13.56,26.75-23.19,37.29-43.37,57.72-39.19,39.67-90.24,66.96-146.17,72.84-53.23,5.59-127.45,2.24-170.47-31.72-36.75-29.01-42.76-79.06-43.13-126.23-.15-19.39-14.89-43.73-35.79-47.01-20.38-3.2-40.57-9.07-60.02-15.81-4.33-1.5-8.62-3.11-12.91-4.71-1.92-.72-3.82-1.49-5.72-2.26t0,0s0,0-.02,0c-9.48-4.22-18.81-8.78-27.87-13.85-23.06-12.88-31.19-18.34-48.28-36.23-11.2-11.72-23.2-30.54-27.54-46.07-6.25-22.31-7-42.74-1.31-68.38,7.24-32.58,23.59-59.48,35.37-90.09,2.87-4.21,5.23-8.86,8.04-13.17,1.52-1.7,2.94-3.52,4.63-5.07,4.07-3.73,7.85-7.7,12.14-11.2.34-.21.88-.56,1.88-1.26,2.87-1.98,5.78-3.93,8.8-5.68,6.7-3.87,13.42-7.78,20.53-10.86,41.07-17.78,87.16-21.2,131.32-21.61,13.81-.13,24.4-5.12,32.14-12.56,9.81-7.83,16.54-19.82,16.61-36.18.03-7.81.77-15.61,1.62-23.38.3-1.93,1.23-8.88,1.59-10.61,1.12-5.53,2.13-11.08,3.4-16.58,2.5-10.79,5.53-21.47,9.17-31.94,16.12-46.38,51.51-89.1,109.24-99.99,61.95-11.69,131.48,5.47,157.16,55.59,3.26,6.36.33-1.34,3.88,9.63,1.34,4.14,2.56,8.31,3.61,12.53,1,4.03,1.73,8.12,2.46,12.2.3,2.47.95,7.39.99,8.84.26,8.05-2.82,47.45,1.11,18.74-8.25,60.31,75.18,87.91,94.02,25.92,2-6.6,4.51-13.02,6.92-19.48.82-2.19,1.73-4.35,2.62-6.52.58-1.32,1.43-3.26,2.24-4.96,4.26-8.9,8.47-17.79,13.15-26.48,21.79-40.45,48.21-77.42,88.34-101.35,47.57-28.36,107.51-25.46,155.88.54,43.12,23.18,52.84,57.08,50.67,99.56-.68,13.35-.59,11.53-4.25,27.46-2.13,9.28-4.73,18.46-7.74,27.5-.9,2.69-4.4,11.85-5.88,15.86-.4.9-.8,1.77-1.06,2.3-22.87,46.25,39.46,104.71,76.56,59.07,21.97-27.02,52.54-49.44,90.9-51.94,31.9-2.08,68.91,18.17,86.39,36.69.25.26,3.18,4.57,4.75,6.77.98,2.7,1.83,5.44,2.48,8.24-.34-5.28-.31-4.96.08.96.8,10.17.64,9.06-4.26,22.85Z"/>
  </g>
</svg>