<?xml version="1.0" encoding="UTF-8"?>
<svg id="_레이어_1" data-name="레이어_1" xmlns="http://www.w3.org/2000/svg" version="1.1" viewBox="0 0 2834.6 2834.6">
  <!-- Generator: Adobe Illustrator 29.5.0, SVG Export Plug-In . SVG Version: 2.1.0 Build 137)  -->
  <defs>
    <style>
      .st0 {
        fill: #040000;
      }
    </style>
  </defs>
  <path class="st0" d="M1986.8,1263.4c-39.5-65.4-127.9-98.2-201-86.2-7.8,1.3-15.7,3.3-23.5,5.7.5-56.5-17.4-111.5-63-150.2-62.8-53.3-159.6-73.7-238.4-48.7-62.1,19.7-110.7,63.7-147.8,115.9-21.5-33.2-52.4-60.5-93.1-76.2-71.4-27.6-162.1-24.1-229.4,13.4-55.4,30.9-91.5,84.9-111.9,143.6-6.8,19.6-11.9,40.6-15.2,61.7-70.6,5.3-142.8,23.3-194.7,72.9-34.7,33.1-50.7,76.9-65.4,116.3-25.2,67.4-27.5,144.9,10.7,208.1,29.6,48.9,77.6,84,129.2,106.8,21.4,9.4,43.6,17.9,66.3,24.2,5.3,56.4,22.4,111.9,65.1,151.8,58.8,55,147.7,67.9,225.1,65.3,103.8-3.4,209.8-57.7,270.6-143.9,113.8,44.4,251.2,74.2,351.9-9.2,66.1-54.8,89.8-144,93.8-226.5.5-11.2.6-22.6.3-33.9,61-41.8,120.5-93.6,159-155.7,29-46.7,41.4-105.5,11.5-155.1ZM1902.8,1347.1c-13.2,37.2-57.2,78.6-92.6,108.6-22.5,19.1-41.3,33.6-68.8,51.2-13.3,8.5-26.1,25.1-24.1,42.1,1.5,12.7,1.7,25.6,1.7,38.3,0,13.1-.6,26.3-1.8,39.3-.4,3.9-.8,7.7-1.2,11.5,0,.4.1-.4.3-1.3-.2.8-.4,1.9-.7,3.7-1.5,8.3-2.9,16.6-4.9,24.8-1.8,7.9-4,15.7-6.4,23.4-1.3,4.2-2.8,8.4-4.3,12.6-3.1,8.6-1.6,4.1-1.7,4.3-3.5,7.6-7.3,15-11.6,22.2-2.3,3.9-4.9,7.7-7.4,11.4-1.1,1.6-1.6,2.4-1.9,2.9-.5.4-1.2,1.1-2.5,2.6-16.5,18.1-17.8,19.4-36.1,29.3-10.2,5.5-36.1,13.3-48.1,14.6-73.8,7.8-149.5-18.6-216-47.8-23-10.1-53.7-8.1-66.7,17.5-13.6,26.8-23.2,37.3-43.4,57.7-39.2,39.7-90.2,67-146.2,72.8-53.2,5.6-127.5,2.2-170.5-31.7-36.8-29-42.8-79.1-43.1-126.2-.2-19.4-14.9-43.7-35.8-47-20.4-3.2-40.6-9.1-60-15.8-4.3-1.5-8.6-3.1-12.9-4.7-1.9-.7-3.8-1.5-5.7-2.3t0,0s0,0,0,0c-9.5-4.2-18.8-8.8-27.9-13.8-23.1-12.9-31.2-18.3-48.3-36.2-11.2-11.7-23.2-30.5-27.5-46.1-6.2-22.3-7-42.7-1.3-68.4,7.2-32.6,23.6-59.5,35.4-90.1,2.9-4.2,5.2-8.9,8-13.2,1.5-1.7,2.9-3.5,4.6-5.1,4.1-3.7,7.8-7.7,12.1-11.2.3-.2.9-.6,1.9-1.3,2.9-2,5.8-3.9,8.8-5.7,6.7-3.9,13.4-7.8,20.5-10.9,41.1-17.8,87.2-21.2,131.3-21.6,13.8-.1,24.4-5.1,32.1-12.6,9.8-7.8,16.5-19.8,16.6-36.2,0-7.8.8-15.6,1.6-23.4.3-1.9,1.2-8.9,1.6-10.6,1.1-5.5,2.1-11.1,3.4-16.6,2.5-10.8,5.5-21.5,9.2-31.9,16.1-46.4,51.5-89.1,109.2-100,61.9-11.7,131.5,5.5,157.2,55.6,3.3,6.4.3-1.3,3.9,9.6,1.3,4.1,2.6,8.3,3.6,12.5,1,4,1.7,8.1,2.5,12.2.3,2.5.9,7.4,1,8.8.3,8-2.8,47.5,1.1,18.7-8.3,60.3,75.2,87.9,94,25.9,2-6.6,4.5-13,6.9-19.5.8-2.2,1.7-4.4,2.6-6.5.6-1.3,1.4-3.3,2.2-5,4.3-8.9,8.5-17.8,13.1-26.5,21.8-40.5,48.2-77.4,88.3-101.3,47.6-28.4,107.5-25.5,155.9.5,43.1,23.2,52.8,57.1,50.7,99.6-.7,13.4-.6,11.5-4.2,27.5-2.1,9.3-4.7,18.5-7.7,27.5-.9,2.7-4.4,11.8-5.9,15.9-.4.9-.8,1.8-1.1,2.3-22.9,46.2,39.5,104.7,76.6,59.1,22-27,52.5-49.4,90.9-51.9,31.9-2.1,68.9,18.2,86.4,36.7.2.3,3.2,4.6,4.7,6.8,1,2.7,1.8,5.4,2.5,8.2-.3-5.3-.3-5,0,1,.8,10.2.6,9.1-4.3,22.8Z"/>
</svg>