<?xml version="1.0" encoding="UTF-8"?>
<svg id="_레이어_2" data-name="레이어 2" xmlns="http://www.w3.org/2000/svg" viewBox="0 0 1430.11 1391.45">
  <defs>
    <style>
      .cls-1 {
        fill: #040000;
      }
    </style>
  </defs>
  <g id="_레이어_1-2" data-name="레이어 1">
    <g>
      <path class="cls-1" d="M953.03,407.27c-157.59-83.56-355.97-47.32-466.02,95.13-86.88,112.46-106.14,295.17-6.2,405.9,74.99,83.08,200.73,107.3,307.89,94.05,116.3-14.38,216.94-67.43,270.41-174.76,34.93-70.11,49.81-148.5,36.73-226.05-14.17-83.96-69.3-152.9-142.8-194.26ZM993.03,758.68c-8.61,23.33-20.95,45.51-35.12,65.94-5.21,7.51-9.75,13.33-16.2,20.21-3.19,3.4-6.52,6.67-9.95,9.82-1.59,1.46-8.5,7.22-8.34,7.27-34.35,26.11-65.8,37.35-107.92,46.87-80.15,18.11-173.14,10.56-242.69-36.57-29.45-19.96-52.93-53.19-63.05-90.88-14.86-55.31-6.78-124.87,18.77-178.55,67.02-140.79,243.73-191.34,379.7-119.24,49.29,27.74,85.03,68.76,98.46,124.14,12.12,50,4.05,103.04-13.65,150.99Z"/>
      <path class="cls-1" d="M837.56,300.4c24.05-1.07,44.39-19.41,44.39-44.17V44.21c0-23.11-20.42-45.24-44.39-44.17-24.05,1.07-44.39,19.41-44.39,44.17v212.02c0,23.11,20.42,45.24,44.39,44.17Z"/>
      <path class="cls-1" d="M257.45,780.12c-62.07-1.56-124.14-3.11-186.22-4.67-8.94-.22-17.87-.45-26.81-.67-23.23-.58-45.45,20.73-44.39,44.17,1.1,24.43,19.5,43.55,44.39,44.17,62.07,1.56,124.14,3.11,186.22,4.67,8.93.22,17.87.45,26.81.67,23.23.58,45.45-20.73,44.39-44.17-1.1-24.43-19.5-43.55-44.39-44.17Z"/>
      <path class="cls-1" d="M1397.75,913.59c-57.49-23.53-114.98-47.06-172.47-70.59-8.2-3.35-16.39-6.71-24.59-10.07-9.91-4.05-25.41-.67-34.21,4.45-9.21,5.36-17.99,15.87-20.4,26.4-5.89,25.71,7.94,44.89,31.01,54.34,57.49,23.53,114.98,47.06,172.47,70.59,8.2,3.36,16.39,6.71,24.59,10.07,9.91,4.05,25.41.67,34.21-4.45,9.21-5.36,17.99-15.87,20.4-26.4,5.89-25.71-7.94-44.9-31.01-54.34Z"/>
      <path class="cls-1" d="M451.82,1159.7c-41.92,45.7-83.85,91.4-125.77,137.1-5.96,6.5-11.92,13-17.89,19.5-15.66,17.07-18.22,45.83,0,62.47,17.06,15.58,46.06,18.23,62.78,0,41.92-45.7,83.85-91.4,125.77-137.1,5.96-6.5,11.93-13,17.89-19.5,15.66-17.07,18.22-45.83,0-62.47-17.06-15.58-46.06-18.23-62.78,0Z"/>
      <path class="cls-1" d="M967.83,1160.56c-3.43-8.13-6.86-16.27-10.28-24.4-4.69-11.12-9.5-20.05-20.4-26.4-9.52-5.54-23.54-7.89-34.21-4.45-20.48,6.6-40.62,31.52-31.01,54.34,24.04,57.04,48.08,114.09,72.11,171.13,3.43,8.13,6.86,16.27,10.28,24.4,4.68,11.12,9.5,20.05,20.4,26.4,9.52,5.54,23.54,7.89,34.21,4.45,20.48-6.6,40.62-31.52,31.01-54.34-24.04-57.04-48.08-114.09-72.11-171.13Z"/>
      <path class="cls-1" d="M182.85,281.35c51.17,35.07,102.33,70.14,153.5,105.21,7.33,5.02,14.66,10.05,21.98,15.07,19.18,13.15,50.11,4.18,60.74-15.85,11.94-22.48,4.54-46.41-15.93-60.44-51.17-35.07-102.33-70.14-153.5-105.21-7.33-5.02-14.66-10.05-21.98-15.07-19.18-13.14-50.11-4.17-60.74,15.85-11.94,22.48-4.54,46.41,15.93,60.44Z"/>
      <path class="cls-1" d="M1208.36,496.27c51.53-34.58,103.07-69.15,154.6-103.73,7.36-4.94,14.72-9.87,22.07-14.81,19.22-12.9,29.5-39.49,15.93-60.44-12.34-19.05-40.15-29.66-60.74-15.85-51.53,34.58-103.07,69.15-154.6,103.73-7.36,4.94-14.72,9.87-22.07,14.81-19.22,12.9-29.49,39.49-15.93,60.44,12.34,19.05,40.15,29.66,60.74,15.85Z"/>
    </g>
  </g>
</svg>