<?xml version="1.0" encoding="UTF-8"?>
<svg id="_레이어_2" data-name="레이어 2" xmlns="http://www.w3.org/2000/svg" viewBox="0 0 857.24 1365.84">
  <defs>
    <style>
      .cls-1 {
        fill: #040000;
      }
    </style>
  </defs>
  <g id="_레이어_1-2" data-name="레이어 1">
    <g>
      <path class="cls-1" d="M476.45,349.5c-47.16-7.86-90.79,7.83-126.24,39.03-36.79,33.72-66.5,78.85-67.89,130.13-.84,31.09,10.54,62.23,28.88,87.01,23.2,31.33,54.34,60.34,93.78,68.23,64.81,12.97,130.93-27.16,158.41-85.77,26.01-55.5,32.3-133.02-4.94-185.37-19.63-27.6-48.18-47.61-82-53.25ZM445.77,437.08c-.12.01-.11,0-.25.02.1,0,.15-.02.25-.02ZM407.89,578.19c-.8-.64-1.08-.88,0,0h0ZM491.97,517.98c-1.46,7.39-3.25,14.75-5.65,21.9-.3.89-.64,1.75-.96,2.63,0-.27-2.19,5.03-2.85,6.29-2.29,4.36-5.15,8.34-7.63,12.57-.01.02,0,.02-.02.03-1.16,1.3-2.28,2.63-3.47,3.9-1.98,2.11-4.04,4.15-6.18,6.11-.29.26-.58.52-.87.78-6.9,3.06-13.88,9.09-20.64,12.54-.3.15-.23.16-.44.29-1.9.48-4.01.81-5.07,1.07-1.09.27-1.9.48-2.53.67-2.96.07-7.82-.16-8.24-.16-.09,0-.11,0-.2,0,0,0,0,0,0,0-2.72-.9-5.74-1.51-8.52-2.24-.29-.07-.26-.07-.5-.13-2.67-1.44-5.28-2.98-7.96-4.39-.36-.19-.85-.54-1.31-.88-2.8-2.4-5.59-4.82-8.27-7.36-4.93-4.67-9.41-9.7-13.97-14.72-.47-.52-.67-.7-1.01-1.06-.25-.45-.4-.77-.83-1.48-1.18-1.96-2.54-3.82-3.73-5.78-1.42-2.34-2.75-4.74-4-7.18-.88-1.71-1.45-2.57-1.84-2.98-1.16-3.77-2.12-9.09-2.36-10.15-.14-.62-.24-1.58-.35-2.52-.03-.6-.06-1.19-.09-1.79-.08-2.48-.03-4.97.09-7.45-.18.44-.2.67-.43,1.17.21-.45.26-1.07.44-1.56,0-.03,0-.06,0-.09.19-3.39.96-4.7,1.21-4.24.65-3.12,1.2-6.33,2.09-9.04.38-1.16.81-2.3,1.23-3.44,2.38-4.47,4.62-8.94,7.3-13.26,2.16-3.49,4.65-6.76,6.93-10.17,1.23-1.47,2.45-2.95,3.71-4.39,5.92-6.77,12.29-13.13,18.92-19.21,1.15-1.01,1.89-1.7,2.33-2.15.15-.1.18-.11.35-.22,2.11-1.36,4.15-2.79,6.31-4.1,2.66-1.61,5.6-2.84,8.23-4.48.2-.12.2-.15.35-.26.35-.1.49-.13.91-.26,2.37-.72,4.7-1.54,7.1-2.18,1.2-.29,2.4-.59,3.6-.89,2.04-.38,2.98-.58,3.3-.68,1.14,0,2.33.02,3.09,0,1.87-.04,13.1,1.6,9.48.44,2.53.7,6.02,1.66,7.11,1.99.17.05.2.1.36.16-.41-.35-.67-.45-1.13-.92.83.83,3.81,1.85,4.68,2.31,1.59.85,3.1,1.84,4.65,2.75-.35-.47-.62-.66-1-1.27.27.43.92.98,1.31,1.45.2.11.39.24.59.35,3.09,1.7,3.02,2.9,1.67,2.16,2.02,2,4.05,3.84,5.73,5.24.88,1.37,1.78,2.73,2.61,4.14.71,1.22,1.35,2.47,2,3.72.3,3.29,3.4,9.24,4.13,12.12.59,2.35,1,4.73,1.56,7.09.11.45.15.57.24.93,0,.21,0,.23,0,.48.4,9.79.3,19.22-.13,29.01-.03.6-.02.77-.03,1.2-.04.23-.06.27-.1.53-.42,2.34-.81,4.69-1.27,7.02Z"/>
      <path class="cls-1" d="M466.48,439.68c4.22,3.62,5.37,1.8,0,0h0Z"/>
      <path class="cls-1" d="M372.58,516.12c0,.13,0,.26,0,.39,1.1-2.66,1.41-4.36,1.22-4.72-.32,1.54-.73,2.98-1.21,4.33Z"/>
      <path class="cls-1" d="M477.24,446.51c-.88-.87-1.59-1.69-2.26-2.5-.1-.06-.2-.12-.31-.18,1.09,1.46,1.94,2.34,2.56,2.68Z"/>
      <path class="cls-1" d="M857.24,376.8c-.19-67-18.69-139.25-84.4-169.89-52.56-24.51-114.28-16.55-168.23-.86-6.29,1.83-12.56,3.93-18.84,6,5.6-62.81-10.34-125.83-63.76-166.66C460.84-1.36,360.33-14.39,289.87,17.57c-57.86,26.24-84.31,83.71-89.15,144.29-1.19,14.96-.86,30.4.27,45.83-74.74-5.02-149.68,21.74-182.28,96.24-47.73,109.09.3,210.07,93.15,273.2-32.64,33.08-51.49,80.12-50.15,127.54,2.21,78.13,37.56,174.72,103.28,221.06,56.01,39.49,125.08,29.3,183.35.96,14.65-7.13,28.82-15.68,42.69-24.85-3.72,103.01,15.38,205.12,61.64,299.87,26.67,54.62,62.82,111.21,108.58,152.14,43.13,38.57,107.1-24.97,63.74-63.75-11.53-10.31-21.83-22.21-31.68-34.09-2.08-2.51-4.12-5.06-6.17-7.6-.52-.65-.81-.99-1.07-1.31-.41-.57-.94-1.3-1.74-2.38-5.18-7.05-10.28-14.14-15.16-21.4-12.44-18.51-23.77-37.76-33.93-57.62-47.32-92.49-62.77-197.34-51.94-300.3,109.3,47.86,243.07,24.9,319.99-76.55,58.38-77,27.93-162.65-30.31-224.69,55.29-42.73,84.43-118.3,84.23-187.37ZM732.26,734.25c-37.99,51.73-108.66,77.33-170.65,63.14-21.24-4.86-40.97-12.55-59.9-23.26-7.2-4.07-13.94-8.76-20.93-13.15-.93-.59-1.61-1.01-2.24-1.42.77.54,1.59,1.12,2.24,1.66-1.14-.94-2.42-1.7-3.63-2.55-1.2-.78-1.34-.9-.8-.56-11.16-7.57-24.85-11.35-37.63-8.93-11.43,1.42-21.79,7.36-28.15,18.6-30.21,31.74-63.21,58.81-102.43,78.44-59.07,29.56-101.78,15.26-130.88-47.64-15.34-33.16-27.98-71.82-25.19-108.86,1.48-19.55,8.82-35.2,18.84-44.84,2.29-2.21,4.64-4.32,7.01-6.43,1.56-1.04,6.43-4.65,7.65-5.33,3.68-2.05,7.46-3.98,11.13-6.05.53-.3.74-.43,1.15-.67.26-.06.41-.08.9-.24,7.15-2.35,14.28-4.86,21.75-5.98,48-7.18,37.29-73.79,0-86.93-1.85-.65-3.68-1.36-5.5-2.08-2.51-1.1-5.02-2.17-7.49-3.36-15.65-7.52-30.91-15.73-45.45-25.26-31.17-20.42-63.85-51.28-71.93-90.73-8.84-43.15,11.45-100.54,59.31-111.76,33.24-7.79,63.6-2.74,95.18,7.59,19.88,6.51,35.56-.68,45.08-13.26,10.27-9.73,15.68-24.27,10.37-42.18-1.85-6.22-3.28-12.59-4.6-18.94-1.32-6.33-2.4-12.7-3.41-19.08.14.88.27,4.82-.39-3.85-.39-5.14-.92-10.27-1.18-15.42-.45-8.93-.36-17.83,0-26.76.44-11.11-.21-9.02,3.54-23.87,1.05-4.15,2.24-8.26,3.64-12.3.86-2.49.88-2.93.8-2.93.19-.24.74-1.09,2.3-3.89,6.38-11.46,4.95-10.61,13.92-18.14-.07.06,14.47-8.78,17.29-9.8,11.55-4.18,23.25-5.67,35.45-5.94,29.58-.65,61.66,3.64,88.03,17.76,36.53,19.55,43.68,50.14,41.46,89.97-.88,15.86.05,8.99-2.91,22.79-1.96,9.15-4.08,18.22-6.76,27.19-2.05,6.89-14.42,37.61-5.12,16.47-17.51,39.81,19.21,84.7,61.67,61.67,5.46-2.96,11.06-5.69,16.67-8.36,18.72-8.93,16.78-8.1,36.23-15.27,39.44-14.54,75.14-24.98,114.64-21.62,9.83.84,26.68,6.74,33.79,13.2,12.35,11.21,18.7,33.09,20.79,55.29,4.67,49.74-3.7,100.09-37.69,132.81-1.22,1.18-6.6,5.52-7.48,6.37-3.18,2.26-6.44,4.43-9.78,6.42-3.57,2.13-7.3,3.91-10.91,5.95-7.73,4.37-2.61,1.3-1.83,1.01-6.81,2.48-13.7,5.01-20.88,6.26-40.44,7.05-40.9,63.36-10.77,82.39,1.95,1.23,3.9,2.51,5.78,3.85,2.17,1.56,4.36,3.09,6.52,4.66.41.29.57.4.85.61,14.52,11.63,28.69,24.38,40.53,38.78,23.38,28.45,36.22,61.77,12.03,94.72Z"/>
      <path class="cls-1" d="M477.14,758.68c.36.24.8.51,1.39.9-.91-.63-1.74-1.18-2.19-1.46.27.18.53.37.8.56Z"/>
    </g>
  </g>
</svg>