<?xml version="1.0" encoding="UTF-8"?>
<svg id="_레이어_2" data-name="레이어 2" xmlns="http://www.w3.org/2000/svg" viewBox="0 0 941.28 1233.6">
  <defs>
    <style>
      .cls-1 {
        fill: #040000;
      }
    </style>
  </defs>
  <g id="_레이어_1-2" data-name="레이어 1">
    <path class="cls-1" d="M661.29,175.32S632.54-25.94,488.78,2.81c-143.76,28.75-172.51,115.01-172.51,230.01C316.27,232.82,0,2.81,0,319.08s431.28,345.02,431.28,345.02c0,0,14.23,1.15,37.63,1.37,2.42,53.17,4.83,106.34,7.25,159.5-23.09-15.18-46.18-30.36-69.26-45.55-47.23-31.06-121.3-10.95-147.52,38.68-28.51,53.95-11.72,114.37,38.68,147.52,62.54,41.13,125.08,82.25,187.63,123.38.78.51,1.73.88,2.54,1.37.18,3.89.35,7.78.53,11.66,1.21,26.53,2.41,53.06,3.62,79.6,3.14,69.1,110.98,69.48,107.82,0-1.42-31.22-2.84-62.44-4.26-93.66,61.86-45.31,123.73-90.63,185.59-135.94,23.36-17.11,41.58-35.51,49.55-64.43,7.11-25.81,3.9-60.18-10.87-83.08-28.97-44.94-98.85-74.32-147.52-38.68-29.49,21.6-58.97,43.19-88.46,64.79-2.59-57.04-5.19-114.09-7.78-171.13,108.6-13.11,249.18-53,314.84-167.9,115.01-201.26,28.75-488.78-230.01-316.27Z"/>
  </g>
</svg>