<?xml version="1.0" encoding="UTF-8"?>
<svg id="_레이어_2" data-name="레이어 2" xmlns="http://www.w3.org/2000/svg" viewBox="0 0 868.37 612.84">
  <defs>
    <style>
      .cls-1 {
        fill: #040000;
      }
    </style>
  </defs>
  <g id="_레이어_1-2" data-name="레이어 1">
    <g>
      <path class="cls-1" d="M174.66,246.24c1.95.03,3.89-.18,5.79-.58,32.45-2.98,58.65-25.85,68.71-56.84,9.84-30.28,1.04-67.71-23.06-89.04-25.02-22.14-62.65-27.8-91.39-8.83-29.8,19.66-42.56,54.36-36.66,89.01,6.3,37.02,39.12,65.68,76.62,66.28Z"/>
      <path class="cls-1" d="M544.08,153.94c14.21,10.97,32.74,17.8,50.92,16.14,20.03-1.83,38.46-9.8,52.3-24.74,10.75-12.11,19.03-26.82,21.63-42.97,2.6-16.18,2.34-32.94-3.9-48.34-4.02-9.92-8.47-17.62-15.16-26-5.12-6.42-11.66-11.74-18.51-16.22-12.65-8.27-29.64-12.96-44.75-11.58-18.66,1.7-35.15,8.59-48.99,21.39-11.75,10.87-20.5,26.37-24.1,41.94-7.71,33.34,3.18,69.21,30.56,90.36Z"/>
      <path class="cls-1" d="M867.75,351.76c-.34-2.56-.99-4.91-1.81-7.12-.42-2.52-1.06-5.08-2.19-7.68-7.74-17.81-23.91-30.18-43.1-33.01-22.85-3.36-44.54,9.55-67.81,8.73-7.42-.26-14.13-1.15-21.37-2.79-2.56-.58-19.72-6.44-20.14-6.16-12.9-5.72-24.7-13.33-36.11-21.53-16.26-14.34-30.64-30.35-54.4-30.17-24.37.18-46.23,16.72-53.13,39.91-12.68,42.62,29.03,76.62,67.01,97.55-44.92,58.74-109.27,100.16-184.2,109.17-71.43,8.59-161.49.83-222.14-43.49,15.45-26.9,28.16-61.23,20.92-88.57-8.61-32.51-43.52-48.52-74.21-36.58-37.84,14.72-32.6,58.87-54.23,87.61-13.46,17.89-34.27,34.56-55.36,42.34-.03.01-.06.03-.09.05-24.89,9.03-50.2,13.36-61.3,40.9-8.9,22.09-3.03,47.1,15.19,62.66,36.7,31.33,92.44,2.84,131.27-24.4,78.15,64.89,203.75,80.33,299.58,71.3,124.73-11.75,230.4-82.95,296.14-187.72,50.4,2.38,129.85-7.8,121.47-71Z"/>
    </g>
  </g>
</svg>