<?xml version="1.0" encoding="UTF-8"?>
<svg id="_레이어_2" data-name="레이어 2" xmlns="http://www.w3.org/2000/svg" viewBox="0 0 1086.42 1038.1">
  <defs>
    <style>
      .cls-1 {
        fill: #040000;
      }
    </style>
  </defs>
  <g id="_레이어_1-2" data-name="레이어 1">
    <g>
      <path class="cls-1" d="M935.94,285.13c.32-.32.47-.45.76-.74-.67.16-1.37.26-2,.56.41.03.82.14,1.24.18Z"/>
      <path class="cls-1" d="M1008.81,355.85c10.93-10.1,20.31-21.18,26.8-31.47,49.87-79.09,4-201.52-57.86-260.86-60.02-57.57-155.27-83.73-232.38-45.55-53.99,26.72-84.23,84.42-95.58,141.42-3.78,18.96-6.45,38.53-7.74,58.18-54.5-7.9-110.11-7.85-164.94-2.64-25.07,2.38-50.04,5.85-74.94,9.65-11.33-107.97-132.45-202.06-242.04-177.63C77.83,65.3,18.06,150.7,3.38,230.21c-12.12,65.6,8.56,129.01,59.46,172.74,15.99,13.74,34.11,25.9,53.33,35.95-1.45,3.61-2.92,7.28-4.35,10.75-29.48,71.95-57.62,150.13-66.85,227.58-16.08,135.01,69.04,233.43,187.59,284.77,157.31,68.13,354.23,100.14,521.94,55.35,144.59-38.61,261.5-144.27,312.71-285.18,43.85-120.63,7.65-265.21-58.4-376.33ZM774.46,905.71c-138.47,55.06-299.82,31.05-438.18-11.6-53.06-16.36-109.07-38.16-149.48-77.63-30.18-29.47-44.05-63.68-44.12-104.46-.12-71.14,31.76-147.1,56.73-213.1,7.49-19.8,9.36-26.5,20.43-46.45,5.11-9.21,14.06-17.52,1.48-4.47,25.61-26.58,15.12-74.15-22.08-83.65-7.44-1.9-14.64-4.65-21.81-7.4-.2-.44-16.91-7.89-20.25-9.74-8.24-4.55-16.4-9.48-23.9-15.18-9.48-7.2-25.81-26.32-30.23-39.75-7.74-23.52-2.72-48.37,8.3-73.39,24.52-55.65,69.41-94.55,127.49-64.92,22.47,11.46,41.56,29.61,54.05,51.43,6.1,10.66,9.51,19.49,11.84,32.86.06.32-1.44,14.71-1.85,15.62-1.79,3.93-3.04,7.97-4.02,12.03-9.2,31.22,10.19,65.34,48.06,66.52,23.09.72,47.42-6.09,70.19-9.67,86.82-13.66,177.19-19.16,262.69,4.64,28.55,7.95,66.96-15.32,63.36-48.26-2.62-23.96-2.05-48.5.07-72.46,2.52-28.39,14.05-73.93,36.44-92.67,36.78-30.77,103.7-7.52,136.89,30.08,23.75,26.9,36.95,63.8,38.36,99.47.76,19.29-1.73,26.59-16.36,39.02-.38.32-1.15,1.09-1.85,1.79,5.05-1.23,11.19,1.09,17.39,5.49-5.82-2.52-11.96-4.14-18.15-4.75-3.48,3.49-8.51,8.66-7.05,5.83,1.55-3.02,3.54-4.94,5.81-6-26.53-2.06-52.85,13.49-51.4,47.58.66,15.44,6.9,29.61,16.97,39.94,53.01,76.5,90.37,173.13,84.99,265.93-6.85,118.1-104.57,225.06-210.79,267.3Z"/>
      <circle class="cls-1" cx="452.87" cy="519.39" r="53.39" transform="translate(-234.62 472.36) rotate(-45)"/>
      <circle class="cls-1" cx="693.11" cy="492.7" r="53.39" transform="translate(-69.97 117.39) rotate(-9.22)"/>
      <path class="cls-1" d="M813.19,604.6c-23.65-6.5-57.51,8.07-61.57,34.96-.45,2.96-1.48,5.76-2.24,8.64-.06.23-.16.45-.24.67-1.84,3.39-3.45,6.91-5.47,10.22-1.23,2.02-2.65,3.94-3.89,5.95-4.68,4.24-8.61,9.75-13.28,14.07-.65.61-4.03,3.49-5.97,5.19-1.88,1.34-5.16,3.75-6.07,4.36-7.97,5.32-16.33,10.05-24.95,14.26-1.24.61-7.17,3.16-8.07,3.62-4.49,1.75-9.03,3.41-13.61,4.92-12.51,4.14-25.3,7.46-38.2,10.15-24.64,5.14-49.5,7.05-74.75,5.69-18.77-1.01-29.85-2.83-52.29-10.21-1.31-.43-6.92-2.48-9.62-3.43-2.01-.91-5.71-2.54-6.68-3.01-6.86-3.36-13.54-7.09-19.99-11.18-3.08-1.95-6.02-4.09-9.05-6.11-.1-.07-.11-.07-.21-.13-3.74-3.49-7.77-6.65-11.41-10.26-2.69-2.67-5.06-5.71-7.77-8.33-1.68-1.63-2.1-1.89-1.84-1.45-16.24-16.36-40.08-22.86-61.82-10.14-21.6,12.63-33.89,46.46-17.96,68.48,40.31,55.71,108.08,85.03,174.61,93.55,101.87,13.04,227.33-17.87,291.11-103.66,11.68-15.72,23.2-35.58,26.16-55.23,4.03-26.7-6.71-53.81-34.96-61.57Z"/>
    </g>
  </g>
</svg>