<?xml version="1.0" encoding="UTF-8"?>
<svg id="_레이어_2" data-name="레이어 2" xmlns="http://www.w3.org/2000/svg" viewBox="0 0 973.78 897.02">
  <defs>
    <style>
      .cls-1 {
        fill: #040000;
      }
    </style>
  </defs>
  <g id="_레이어_1-2" data-name="레이어 1">
    <g>
      <path class="cls-1" d="M354.33,386.53s.08-.09.12-.14c.52-1.14,2.31-3.39,3.89-5.27-.34-.21-3.8,3.5-4.01,5.41Z"/>
      <path class="cls-1" d="M822.81,23.81c-60.83-29.79-124.56-32.11-186.29-4.24-46.73,21.1-85.89,58.18-117.62,97.81-33.01,41.22-61.07,86.57-85.13,133.9-8.85-10.53-18.28-20.42-28.21-29.45-82.79-75.28-210.15-96.74-310.76-43.14C-9.04,234.04-19.78,371.46,25.1,468.65c26.9,58.25,81.48,105.22,144.26,120.12,55.22,13.1,110.87,3.09,160.53-23.38,25.14-13.4,48.94-31.06,70.81-51.32,6.35,88.85,12.69,177.71,19.04,266.56,1.34,18.79,2.69,37.59,4.03,56.38,2.31,32.33,25.93,60.01,60.01,60.01,30.69,0,62.33-27.51,60.01-60.01-8.08-113.09-16.16-226.18-24.23-339.27,17.23,8.77,34.87,16.06,52.25,21.63,70.82,22.71,150.49,20.61,222.27,3.71,74.63-17.58,133.96-65.07,162.04-136.63,49.89-127.14-9.35-301.95-133.29-362.64ZM515.72,344.54c-.27-.3-.56-.58-.83-.89-1.03-1.26-2.16-2.5-2.83-3.52-.21-.32-.39-.65-.61-.97,0-.61,2.6,1.97,4.27,5.38ZM133.47,299.47c-.87,1.31-1.67,2.45-1.82,2.22-.07-.12.84-1.16,1.82-2.22ZM119.98,336.83c-.13,2.1-.28,3.98-.44,3.62-.27-.59.08-2.19.44-3.62ZM163.26,455.56c-4.3-2.84-2.23-1.58,0,0h0ZM355.67,384.96c-.4.48-.82.95-1.22,1.43-.1.22-.37.59-.34.69-.04-.12.2-.39.21-.55-5.07,6.18-10.17,12.31-15.54,18.25-11.52,12.75-23.81,24.83-37,35.86-.98.82-1.97,1.62-2.97,2.42-3.57,2.3-6.93,5-10.48,7.34-7.85,5.18-15.99,9.95-24.41,14.14-1.27.63-2.58,1.23-3.87,1.85-3.3,1.09-6.54,2.41-9.86,3.44-4.52,1.4-9.09,2.64-13.71,3.66-1.54.34-3.17.59-4.74.94-8.3.32-16.54-.27-24.77-.21-1.93-.38-3.89-.75-5.71-1.18-5.54-1.31-10.84-3.47-16.32-4.86,0,0,0,0,0,0-2.31-1.13-4.63-2.23-6.89-3.47-4.5-2.46-8.78-5.22-13.07-8.02-.38-.25-.36-.24-.68-.45-1.68-1.48-3.38-2.94-5.03-4.46-4.92-4.55-9.17-9.66-13.8-14.46-1.03-1.49-2.08-2.96-3.07-4.48-3.3-5.01-6.35-10.17-9.12-15.49-1.16-2.22-2.14-4.56-3.33-6.76-.02-.08-.02-.09-.05-.18-1.66-5.84-3.96-11.49-5.51-17.39-.33-1.24-1.82-7.85-2.69-11.54-.23-2.15-1.06-7.92-1.15-9-.68-8.54-.97-17.13-.72-25.7.12-3.99.8-8.18.74-12.17.86-3.53,7.27-21.07,7.43-25.61.07-.13.13-.27.2-.4,1.88-3.49,4.26-6.72,6.23-10.13.45-.47,1.08-1.14,1.17-1.22.87-.86,4.7-4.48,7.17-6.89,2.2-1.43,6.97-4.85,8.65-5.82,2.75-1.58,5.62-2.93,8.47-4.32.81-.1,8.14-2.96,11.01-3.8,7.2-2.12,14.51-3.79,21.89-5.12,1.54-.28,3.09-.52,4.64-.77.23,0,.13,0,.42,0,5.78-.19,11.54-.95,17.33-1.11,9.68-.27,19.28.39,28.91,1.23,1.88.29,4.52.7,6.73,1.17,4.75,1.02,9.47,2.18,14.14,3.54,3.88,1.13,7.74,2.37,11.54,3.73,1.19.43,2.39.89,3.58,1.35.08.04.09.05.18.1,7.24,3.81,14.5,7.42,21.44,11.78,3.61,2.27,7.03,4.81,10.61,7.12.11.07.11.06.21.13.14.12.16.15.32.29,6.91,6.01,13.66,12.05,19.99,18.67,4.73,4.94,9.63,13.64,15.24,17.65.13.18.27.36.39.54,2.22,3.12,4.38,6.28,6.48,9.49,3.6,5.5,7.01,11.11,10.25,16.83.94,1.66,1.67,3.41,2.54,5.09-2.48,3.57-4.91,7.17-7.45,10.66-.17.23-.99,1.2-1.93,2.32.16.1-.27.91-2.67,3.84ZM545.16,372.94c1.39.97,1.11.8,0,0h0ZM851.63,306.59c-.17,3.12-.52,6.23-.69,9.34-.01.22,0,.27-.02.47-2.19,10.74-4.59,21.15-8.07,31.57-.48,1.43-.77,2.38-.99,3.17-.31.4-.69.96-1.28,1.91-3.31,5.39-6.36,10.95-9.72,16.32-.52.83-.78,1.31-1.01,1.75-.68.55-1.64,1.41-3.41,3.15-3.43,3.37-6.89,6.63-10.47,9.8-1.08.51-8.03,5.53-10.19,6.8-4.49,2.66-16.7,8.69-16.5,8.6-23.39,9.51-58.25,14.64-85.82,15.96-14.7.71-29.45.63-44.14-.42-2.94-.21-5.87-.49-8.81-.75-.82-.07-4.23-.53-6.5-.81-1.24-.22-2.47-.43-2.7-.48-4.35-.96-8.76-1.68-13.11-2.66-12.99-2.92-25.57-6.88-38.07-11.4-1.46-.53-2.38-.84-3.17-1.1-.66-.38-1.67-.93-3.36-1.8-5.07-2.59-10.16-5.09-15.12-7.9-8.62-4.88-16.52-10.62-24.67-16.15-1.26-.95-2.77-2.14-4.41-3.57-3.23-2.81-6.38-5.71-9.45-8.68-3.6-3.49-6.9-7.23-10.26-10.92,1.22-2.75,2.42-5.51,3.68-8.25,15.67-34.05,33.31-67.29,53.4-98.95,5.59-8.81,11.37-17.51,17.39-26.04,3.05-4.32,6.23-8.53,9.31-12.83.08-.12.08-.12.15-.22,1.47-1.84,2.94-3.69,4.43-5.52,13.74-16.77,28.68-32.22,44.84-46.66,1.64-1.46,3.35-2.82,5.03-4.22,3.35-2.41,6.68-4.85,10.15-7.1,4.08-2.66,8.25-5.19,12.5-7.56,2.66-1.48,11.87-5.26,12.11-5.65,6.22-2.06,12.39-4.12,18.78-5.85.93-.25,1.32-.4,1.95-.59,5.41-.06,10.79-.41,16.21-.4,1.83,0,3.63.2,5.44.36,4.01,1.09,8.16,1.77,12.17,2.92,4.05,1.15,8.09,2.47,12.05,3.93-2.39-.88-8.31-4.35,2.96,1.31,7.45,3.74,14.45,7.99,21.54,12.38,7.94,4.91.62-.61,7.55,5.66,6.17,5.59,12.16,11.26,17.73,17.44,1.06,1.18,6.11,7.66,7.09,8.74,5.16,7.35,9.91,14.99,14.16,22.89,1.21,2.24,6.19,12.88,6.4,12.89,2.23,5.64,4.2,11.42,5.95,17.23,2.52,8.36,4.29,16.79,6.21,25.29.05.22.39,2.14.71,3.85.32,2.54.85,6.52.85,6.54.98,10.72,1.64,21.45,1.61,32.22-.02,4.67-.14,9.35-.4,14.01Z"/>
    </g>
  </g>
</svg>