<?xml version="1.0" encoding="UTF-8"?>
<svg id="_레이어_2" data-name="레이어 2" xmlns="http://www.w3.org/2000/svg" viewBox="0 0 1150.68 1344.26">
  <defs>
    <style>
      .cls-1 {
        fill: #040000;
      }
    </style>
  </defs>
  <g id="_레이어_1-2" data-name="레이어 1">
    <g>
      <path class="cls-1" d="M1138.84,717.78c-20.98-87.81-75.93-175.19-149.24-232.2,37.73-93.34,57.7-206.95,28.86-300.93-30.57-99.63-130.44-210.87-245.87-179.13-112.98,31.07-131.51,187.22-131.51,285.24,0,44.6,0,89.21,0,133.81h-122.18c22.13-113.92,36.33-235.1-20.25-340.19C423.66-54.88,208.14-7.43,154.34,126.22c-11.81,29.34-15.64,61.83-11.96,93.35.03.43-.05.78,0,1.21,9.2,97.5,18.39,194.99,27.59,292.48-54.53,58.52-93.47,124.68-124.73,198.2-42.12,99.06-62.14,211.7-27.7,316.29,64.53,195.99,266.44,294.36,459.89,312.17,158.27,14.57,334.27-4.8,465.76-101.33,154.19-113.19,240.52-333.11,195.66-520.82ZM967.6,1071.66c-53.27,78.47-137.52,127.05-227.81,150.73-175.63,46.06-407.58,28.88-543.95-100.51-66.31-62.92-100.38-144.42-93.79-236.18,4.39-61.15,28.97-115.91,52.07-171.66.39-.93,1.21-2.85,1.88-4.41,2.58-5.66,5.25-11.29,8.09-16.82,11.61-22.58,25.11-44.38,40.23-64.78,20.85-28.13,67.88-59.45,68.66-96.27.12-5.64-1.1-11.64-1.62-17.23-3.31-35.05-6.62-70.11-9.92-105.17-5.93-62.86-11.86-125.72-17.79-188.57-.17-1.78-.67-3.33-.98-5.02-.06-1.17-.22-2.37-.35-3.57.02-.35.05-.42.07-.87.22-5.63-.41-11.57-.52-17.24-.04-2.09.22-4.2.4-6.3.28-1.84,1.04-8.06,1.53-9.86,1.46-5.24,2.64-10.5,4.53-15.62.47-1.27.75-2.09.93-2.65.34-.46.94-1.44,2.16-3.65,19.32-35.14,94.29-76.37,136.85-48.61,22.07,14.4,31.25,44.3,37.49,68.4,11.29,43.58,13.07,89.18,9.82,133.93-3.72,51.17-16.98,101.86-27.38,152.01-6.62,31.87,14.26,64.1,48.83,64.1h234.69c27.38,0,50.64-23.2,50.64-50.64,0-71.9-3.29-144.51.63-216.33,2.24-41.01,7.77-89.42,30.04-128.74,5.75-10.15,10.09-16.05,15.25-20.63,5.05-4.49,12.13-7.16,17.75-7.6,41.92-3.31,77.49,36.4,96.77,69.07,52.47,88.92,23.32,219.64-20.12,306.94-12.18,24.47-6.76,54.75,18.17,69.29,6.42,3.75,12.39,8.21,18.39,12.61.65.83,14.77,11.97,18.03,14.9,9.64,8.64,18.87,17.74,27.64,27.27,40.02,43.48,72.93,105.42,81.91,171.42,13.91,102.26-22.12,214.14-79.22,298.26Z"/>
      <circle class="cls-1" cx="430.69" cy="776.35" r="54.02"/>
      <circle class="cls-1" cx="727.78" cy="776.35" r="54.02"/>
      <path class="cls-1" d="M822.27,889.57c-23.92-6.57-58.19,8.16-62.3,35.37-.45,3-1.49,5.83-2.26,8.74-.06.23-.16.45-.24.68-1.86,3.43-3.49,7-5.54,10.34-1.25,2.05-2.68,3.98-3.93,6.02-4.74,4.29-8.71,9.87-13.43,14.24-.66.61-4.08,3.53-6.05,5.26-1.9,1.35-5.22,3.79-6.14,4.41-8.07,5.38-16.53,10.17-25.24,14.42-1.26.61-7.25,3.2-8.16,3.66-4.55,1.77-9.14,3.45-13.77,4.98-12.66,4.19-25.59,7.54-38.65,10.27-24.93,5.2-50.08,7.14-75.64,5.76-18.99-1.02-30.21-2.86-52.9-10.33-1.32-.44-7-2.51-9.74-3.48-2.03-.92-5.77-2.57-6.76-3.05-6.94-3.4-13.7-7.17-20.23-11.31-3.12-1.98-6.09-4.14-9.16-6.18-.1-.07-.12-.07-.21-.13-3.79-3.53-7.86-6.72-11.55-10.38-2.72-2.7-5.12-5.77-7.86-8.43-1.7-1.65-2.12-1.92-1.86-1.47-16.43-16.55-40.55-23.13-62.55-10.26-21.85,12.78-34.29,47.01-18.17,69.29,40.78,56.36,109.36,86.04,176.67,94.65,103.07,13.19,230.01-18.08,294.54-104.89,11.82-15.9,23.47-36,26.47-55.88,4.07-27.01-6.79-54.44-35.37-62.29Z"/>
    </g>
  </g>
</svg>