<?xml version="1.0" encoding="UTF-8"?>
<svg id="_레이어_2" data-name="레이어 2" xmlns="http://www.w3.org/2000/svg" viewBox="0 0 1572.99 2026.5">
  <g id="_레이어_1-2" data-name="레이어 1">
    <g>
      <path d="M786.16,580.9c1062.04-77.02,1037.06,1439.33-3.01,1445.6-608.68-9.26-1041.47-698.92-606.99-1156.77,157.73-183.25,349.68-341.52,609.99-288.82ZM97.44,1324.33c-13.84,264.73,189.45,507.08,441.56,581.52,588.27,213.95,1169.64-372.33,920.23-929.82C1143.78,397.07,41.61,602.44,97.44,1324.33Z"/>
      <path d="M697.76,71.5c21.02,16.3,42.96,33.31,66.55,51.61,35.91-81.54,105.65-162.83,154.74-101.78,19.97,24.83,24.78,58.56,13.69,88.43-28.69,77.31-28.67,191.71-103.93,224.98-114.16,50.47-204.22-81.85-215.15-218.08-3.62-45.11,48.34-72.9,84.1-45.16Z"/>
      <path d="M397.36,1412.36c122.84,146.67,210.21,298.42,431.26,269.46,225.6,1.26,277.82-181.91,383.74-336.13,182.43,556.47-967.13,562.13-815,66.67Z"/>
      <path d="M1133.3,1135.03c-29.54,12.04-54.76,3.72-79.44-33.27-17.31-25.95-19.02-59.44-4.16-86.87,21.25-39.21,46.41-47.38,78.1-36.06,71.49,25.51,75.78,127.56,5.49,156.2Z"/>
      <path d="M501.11,1061.63c5.42,6.9,17.74,18.72,16.43,27.39-7.54,49.96,7.31,109.5-80.21,102.48-18.12-1.45-34.19-28.31-50.39-53.65-9.6-15.01,1.26-50.3,16.34-59.79,23.41-14.73,18.06-7.97,41.48-22.7,13.89-8.74,45.42-8.21,55.57,4.7l.78,1.57Z"/>
    </g>
  </g>
</svg>