<?xml version="1.0" encoding="UTF-8"?>
<svg id="_레이어_2" data-name="레이어 2" xmlns="http://www.w3.org/2000/svg" viewBox="0 0 1648.05 1516.47">
  <defs>
    <style>
      .cls-1 {
        fill: #040000;
      }
    </style>
  </defs>
  <g id="_레이어_1-2" data-name="레이어 1">
    <g>
      <path class="cls-1" d="M798.38,367.21c-117.15,2.69-221.42,65.49-297.49,151.89-65.57,74.47-102,170.95-114.36,268.99-12.9,102.36,18.2,203.45,94.91,274.13,66.96,61.7,154.15,97.15,240.96,120.67,158.01,42.81,356.67,29.04,484.24-82.93,172.64-151.54,107.43-451.63-29.49-604.49-91.86-102.55-242.93-151.67-378.76-128.26ZM1178.33,1000.24c-39.21,54.81-105.49,86.2-172.77,102.2-36.08,8.58-65.27,12-102.85,13.08-18.45.53-36.92.24-55.34-.89-17.19-1.05-34.35-2.95-44.17-4.58-134.2-22.24-307.51-88.26-329.14-239.91-7.98-55.99,4.98-113.35,23.21-166.03,9.53-27.55,20.35-56.85,35.23-81.99,1.64-2.77,3.62-5.34,5.42-8,1.22-1.8,6.99-9.54,7.73-10.63,62.3-79.71,150.86-146.14,255.54-147.67,4.03-.06,7.7-.65,11.16-1.52.22-.04.42-.02.64-.06,1.55-.31,3.12-.53,4.68-.78,3.54-.29,7.09-.76,10.63-1.06,21.33-1.79,42.83-1.84,64.18-.39,6.91.47,13.79,1.14,20.66,1.91.29.03.74.09,1.23.16,3.66.54,7.31,1.12,10.95,1.76,15.81,2.78,31.47,6.47,46.83,11.14,32.14,9.76,59.38,22.71,89.62,43.68,77.53,53.77,121.74,144.94,144.22,235.23,21.19,85.13,24.88,180.9-27.66,254.36Z"/>
      <path class="cls-1" d="M740.72,222.4c1.94,7.78,3.89,15.56,5.83,23.34,5.63,22.53,32.16,38.26,54.59,31,23.33-7.55,37.03-30.45,31-54.59-13.84-55.34-27.67-110.68-41.5-166.02-1.94-7.78-3.89-15.56-5.83-23.34-5.63-22.53-32.16-38.26-54.59-31-23.33,7.55-37.03,30.45-31,54.59,13.84,55.34,27.67,110.68,41.5,166.02Z"/>
      <path class="cls-1" d="M1035.29,1293.45c-1.82-7.81-3.64-15.62-5.46-23.43-5.28-22.63-32.41-38.17-54.59-31-23.63,7.65-36.65,30.35-31,54.59,12.95,55.55,25.91,111.1,38.86,166.66,1.82,7.81,3.64,15.62,5.46,23.43,5.28,22.63,32.41,38.17,54.59,31,23.63-7.65,36.65-30.35,31-54.59-12.95-55.55-25.91-111.1-38.86-166.66Z"/>
      <path class="cls-1" d="M234.92,795.4c10.29-2.84,21.45-10.79,26.52-20.4,10.08-19.08,6.86-50.95-15.92-60.72-52.41-22.48-104.83-44.96-157.24-67.44-7.38-3.17-14.76-6.33-22.13-9.49-11.42-4.9-21.67-7.92-34.2-4.47-10.29,2.84-21.45,10.79-26.52,20.4-10.08,19.08-6.86,50.95,15.92,60.72,52.41,22.48,104.83,44.96,157.24,67.44,7.38,3.17,14.76,6.33,22.14,9.49,11.42,4.9,21.67,7.92,34.2,4.47Z"/>
      <path class="cls-1" d="M1524.41,416.19c6.34-4.97,12.68-9.94,19.02-14.91,8.32-6.52,13-21.36,13-31.38,0-10.89-4.83-23.89-13-31.38-8.46-7.77-19.56-13.53-31.38-13-12.54.56-21.59,5.32-31.38,13-44.87,35.17-89.73,70.33-134.6,105.5-6.34,4.97-12.68,9.94-19.02,14.91-8.32,6.52-13,21.36-13,31.38,0,10.89,4.84,23.89,13,31.38,8.46,7.76,19.56,13.53,31.38,13,12.54-.56,21.59-5.32,31.38-13,44.87-35.17,89.73-70.33,134.6-105.5Z"/>
      <path class="cls-1" d="M384.91,1195.08c-49.29,28.46-98.58,56.91-147.86,85.37-7.05,4.07-14.11,8.15-21.17,12.22-20.11,11.61-28.86,40.65-15.92,60.72,13.08,20.29,39.2,28.35,60.72,15.92,49.29-28.46,98.58-56.91,147.86-85.37,7.06-4.07,14.11-8.15,21.17-12.22,20.11-11.61,28.86-40.65,15.92-60.72-13.08-20.29-39.2-28.35-60.72-15.92Z"/>
      <path class="cls-1" d="M1603.63,936.33c-56.76-3.62-113.51-7.24-170.27-10.87-8.17-.52-16.34-1.04-24.51-1.56-23.21-1.48-45.41,21.47-44.38,44.38,1.13,25.31,19.51,42.79,44.38,44.38,56.76,3.62,113.51,7.24,170.27,10.87,8.17.52,16.34,1.04,24.51,1.56,23.21,1.48,45.41-21.47,44.38-44.38-1.13-25.31-19.51-42.79-44.38-44.38Z"/>
      <circle class="cls-1" cx="730.18" cy="719.15" r="47.34" transform="translate(-145.69 187) rotate(-13.28)"/>
      <circle class="cls-1" cx="943.2" cy="695.48" r="47.34"/>
      <path class="cls-1" d="M1049.67,794.7c-20.97-5.76-50.99,7.15-54.59,31-.4,2.63-1.31,5.11-1.98,7.66-.05.2-.14.4-.21.59-1.63,3-3.06,6.13-4.85,9.06-1.09,1.79-2.35,3.49-3.45,5.28-4.15,3.76-7.64,8.65-11.77,12.48-.58.54-3.58,3.1-5.3,4.61-1.66,1.19-4.58,3.32-5.38,3.86-7.07,4.72-14.48,8.91-22.12,12.64-1.1.54-6.35,2.8-7.15,3.21-3.98,1.55-8.01,3.02-12.06,4.36-11.1,3.67-22.43,6.61-33.87,9-21.85,4.56-43.89,6.26-66.28,5.05-16.64-.9-26.47-2.51-46.36-9.06-1.16-.38-6.14-2.2-8.53-3.05-1.78-.81-5.06-2.25-5.92-2.67-6.08-2.98-12.01-6.28-17.72-9.91-2.73-1.73-5.34-3.63-8.03-5.42-.09-.06-.1-.06-.18-.12-3.32-3.09-6.89-5.89-10.12-9.1-2.39-2.37-4.48-5.06-6.89-7.39-1.49-1.44-1.86-1.68-1.63-1.28-14.4-14.51-35.54-20.27-54.82-8.99-19.15,11.2-30.05,41.2-15.92,60.72,35.74,49.4,95.84,75.4,154.83,82.95,90.32,11.56,201.57-15.85,258.12-91.92,10.36-13.94,20.57-31.55,23.2-48.97,3.57-23.67-5.95-47.71-31-54.59Z"/>
    </g>
  </g>
</svg>