<?xml version="1.0" encoding="UTF-8"?>
<svg id="_레이어_2" data-name="레이어 2" xmlns="http://www.w3.org/2000/svg" viewBox="0 0 1023.22 1124.18">
  <defs>
    <style>
      .cls-1 {
        fill: #231815;
      }
    </style>
  </defs>
  <g id="_레이어_1-2" data-name="레이어 1">
    <path class="cls-1" d="M998.66,836.89c-5.76-7.26-14.46-12.79-26.78-14.96-4.87-1.69-9.42-2.36-13.81-2.62-85.09-15.86-171.26-40.68-235.16-102.01-75.37-72.34-125.56-185.02-134-288.37-4.69-57.35,1.67-114.29,12.06-170.67,5.06-27.46,10.56-54.35,20-80.7,10.98-30.65,29.32-59.88,38.86-90.51,5.75-18.47,2.26-40.1-8.55-56.01C630.21.04,594.2.18,560.31,0c-70.92-.36-143.16,11.87-210.45,34.07-104.83,34.59-195.51,98.56-259.17,189.14C26.68,314.28-.67,427.65.01,537.94c1.53,246.49,151.4,473.61,386.25,555.84,128.2,44.89,270.92,39.23,396.46-11.49,65.08-26.3,125.21-61.49,178.44-107.45,23.26-20.09,53.84-44.28,60.57-75.62,5.56-25.91-4.97-47.6-23.06-62.33ZM778.66,977.85c-58.27,27.99-123.06,45.47-187.71,48.22-124.55,5.31-249.03-39.37-339.78-125.36C76.76,735.47,33.98,417.95,206.33,235.13c85.29-90.47,218.69-138.61,344.21-138.04-5.99,12.12-12.34,24.04-16.64,34.95-8.32,21.09-15.64,42.32-20.52,64.5-11.01,50.04-19.3,101.72-22.73,152.84-7.09,105.87,18.19,207.83,65.93,302.04,36.23,71.49,86.34,134.72,152.89,180.09,54.53,37.17,117.72,59.08,181.95,73.85-8.65,7.44-17.29,14.88-26.57,21.54-27.14,19.49-56.08,36.47-86.19,50.94Z"/>
  </g>
</svg>