<?xml version="1.0" encoding="UTF-8"?>
<svg id="_레이어_2" data-name="레이어 2" xmlns="http://www.w3.org/2000/svg" viewBox="0 0 981.35 1088.44">
  <defs>
    <style>
      .cls-1 {
        fill: #231815;
      }
    </style>
  </defs>
  <g id="_레이어_1-2" data-name="레이어 1">
    <path class="cls-1" d="M964.75,869.63c-189.93,20.49-425.55-76.97-508.44-257.92-72.08-157.36-14.7-338.22,68.42-478.97,20.43-34.59,42.7-69.06,68.54-99.96,3.97-3.35,5.77-8.58,5.37-14.02-.06-.96-.25-1.85-.45-2.78-.26-1.21-.57-2.34-1.04-3.48-.37-.86-.82-1.63-1.31-2.43-.62-1.02-1.25-1.99-2.07-2.88-3.79-4.31-9.13-6.64-14.55-5.76-85.71-6.28-177.44,8.56-257.95,36.79C151.14,97.85,36.84,235.3,8.06,414.06c-29.4,182.56,21.86,371.87,150.51,506.75,126.72,132.86,315.72,193,495.94,157.69,118.41-23.2,241.53-88.1,322.48-179.31,8.89-10.02,3.86-31.3-12.24-29.56Z"/>
  </g>
</svg>