<?xml version="1.0" encoding="UTF-8"?>
<svg id="_레이어_2" data-name="레이어 2" xmlns="http://www.w3.org/2000/svg" viewBox="0 0 467.29 1016.84">
  <defs>
    <style>
      .cls-1 {
        fill: #040000;
      }
    </style>
  </defs>
  <g id="_레이어_1-2" data-name="레이어 1">
    <g>
      <path class="cls-1" d="M434.64,925.43c.27.22.83.72,1.19,1.02-.01,0-.03-.02-.04-.03-.39-.33-.77-.67-1.16-1Z"/>
      <path class="cls-1" d="M25.77,524.08c35.98-33.91,90.56-35.82,126.25,0,3.85,3.86,8.05,7.27,12.1,10.86,7.02,4.9,14.26,9.43,21.73,13.52-4.05-25.92-7.55-51.94-10.47-78.03-8.32,0-16.69-.77-25.05-2.62-31.75-7.02-57.55-29.31-76.12-55.79-41.79-59.57-48.46-142.08-35.35-212.26C56.57,105.01,120.71,27.6,211.92,1.27c11.16-3.22,20.34-.03,26.76,6.21.73.57,1.48,1,2.19,1.65,47.06,43.42,86.09,101,108.74,161.47,17.48,46.68,22.43,100.08,6.58,148.01-16.48,49.84-52,92.54-94.57,121.71,2.38,24.23,5.33,48.39,8.73,72.5,31.58-22.94,64.83-45.53,104.22-48.18,46.69-3.14,91.34,44.4,89.27,91.67-1.65,37.82-21.56,66.85-51.26,81.46.67-.29,1.35-.58,2.03-.88-1.78.79-3.49,1.79-5.24,2.67-.03.01-.06.04-.1.05-15.54,7.76-30.04,18.54-44.18,28.45-17.77,12.45-35.2,25.38-52.6,38.37,5.93,19.02,12.37,37.89,19.5,56.52,13.25,34.66,32.62,74.08,54.87,107.6,3.39,5.11,6.95,10.09,10.55,15.04.92.98,8.45,10.59,10.46,12.92,6.85,7.95,14.07,15.6,21.8,22.66,1.62,1.47,3.29,2.87,4.96,4.28-1.91-1.55-1.19-.79,1.16,1,1.07.9,2.14,1.81,3.19,2.75-1.45-1.3-2.29-1.99-3.15-2.72.76.57,1.48,1.14,2.57,1.89,2.03,1.41,4.12,2.81,6.31,3.95,51.27,26.66,6.13,105.77-45.06,79.15-33.06-17.19-59.79-52.17-81.1-81.93-39.22-54.78-67.05-118.28-87.83-183.8-21.81.21-44.74-4.42-65.79-10.11-52.36-14.15-100.54-43.13-139.17-81.89-33.46-33.57-35.25-96.41,0-129.64ZM377.66,647.5c6.09-.84,12.17-1.68,18.26-2.52,3.03-1.31,6.07-2.63,9.1-3.94-8.51,3.3-17.65,5.53-27.37,6.46Z"/>
    </g>
  </g>
</svg>