<?xml version="1.0" encoding="UTF-8"?>
<svg id="_레이어_2" data-name="레이어 2" xmlns="http://www.w3.org/2000/svg" viewBox="0 0 471.11 998.37">
  <defs>
    <style>
      .cls-1 {
        fill: #040000;
      }
    </style>
  </defs>
  <g id="_레이어_1-2" data-name="레이어 1">
    <g>
      <path class="cls-1" d="M32.92,908.61c-.27.21-.83.7-1.2,1,.01,0,.03-.02.04-.03.39-.32.77-.66,1.16-.98Z"/>
      <path class="cls-1" d="M445.13,514.56c-36.27-33.29-91.3-35.17-127.28,0-3.88,3.79-8.11,7.14-12.19,10.66-7.08,4.82-14.37,9.26-21.91,13.27,4.08-25.45,7.61-50.99,10.55-76.61,8.39,0,16.83-.76,25.25-2.57,32.01-6.89,58.02-28.78,76.75-54.77,42.13-58.49,48.86-139.5,35.64-208.41C414.08,103.1,349.41,27.1,257.46,1.25c-11.25-3.16-20.5-.03-26.98,6.09-.73.56-1.49.98-2.21,1.62-47.45,42.63-86.79,99.17-109.63,158.54-17.63,45.83-22.61,98.26-6.63,145.32,16.61,48.93,52.43,90.86,95.34,119.5-2.4,23.79-5.37,47.52-8.8,71.18-31.84-22.52-65.36-44.7-105.07-47.3-47.08-3.08-92.08,43.6-90,90,1.66,37.13,21.74,65.64,51.67,79.98-.68-.29-1.36-.57-2.04-.86,1.8.77,3.51,1.76,5.28,2.62.03.01.06.04.1.05,15.67,7.62,30.29,18.21,44.54,27.93,17.91,12.22,35.49,24.92,53.03,37.67-5.98,18.68-12.48,37.2-19.66,55.49-13.36,34.03-32.89,72.74-55.32,105.65-3.42,5.01-7,9.91-10.64,14.77-.93.96-8.52,10.4-10.54,12.68-6.91,7.81-14.18,15.32-21.98,22.25-1.63,1.45-3.32,2.82-5,4.2,1.92-1.52,1.2-.77-1.16.98-1.08.89-2.16,1.78-3.21,2.7,1.46-1.27,2.3-1.96,3.17-2.67-.76.56-1.49,1.11-2.6,1.86-2.05,1.38-4.15,2.76-6.36,3.88-51.68,26.17-6.18,103.85,45.43,77.72,33.33-16.88,60.28-51.22,81.76-80.44,39.54-53.78,67.6-116.13,88.55-180.46,21.99.2,45.11-4.34,66.33-9.93,52.79-13.89,101.36-42.35,140.3-80.4,33.73-32.96,35.54-94.66,0-127.28ZM90.37,635.74c-6.14-.82-12.27-1.65-18.41-2.47-3.06-1.29-6.12-2.58-9.18-3.87,8.58,3.24,17.79,5.43,27.59,6.34Z"/>
    </g>
  </g>
</svg>