<?xml version="1.0" encoding="UTF-8"?>
<svg id="_레이어_2" data-name="레이어 2" xmlns="http://www.w3.org/2000/svg" viewBox="0 0 739.74 1065.18">
  <defs>
    <style>
      .cls-1 {
        fill: #040000;
      }
    </style>
  </defs>
  <g id="_레이어_1-2" data-name="레이어 1">
    <path class="cls-1" d="M129.03,350.06C-99.46,281.77,5.49-164.25,211.25,64.89c57.42,67.67,71.47,177.79,33.07,240.43,19.17,43.04,41.35,84.79,65.4,125.37,3.85-14.96,7.7-29.92,11.55-44.87,13.02-50.6,66.05-86.95,113.69-70.18,47.49,16.71,78.51,69.38,64.55,123.61-14.51,56.39-29.03,112.78-43.54,169.17-2.33,9.05-6.04,17.33-10.53,25.06,16.28,22.51,32.71,44.9,49.49,66.99,7.81-13.53,14.74-27.65,20.94-42.13.93-2.17,1.87-5.16,2.98-7.83,1.44-4.08,2.89-8.14,4.23-12.26,1.9-5.86,3.76-11.75,5.36-17.71,13.51-50.43,65.7-87.07,113.69-70.18,47.08,16.56,79.04,69.55,64.55,123.61-17.43,65.04-46.79,130.09-88.67,180.67,18.03,21.54,36.15,43,54.5,64.18,17.67,20.39,35.43,40.72,53.64,60.55,42.09,45.81-23.24,116.89-65.35,71.05-41.19-44.83-81.78-90.93-121.48-138.17-20.48,7.47-40.77,10.71-64.06,13.5-40.44,4.84-81.49,3.74-122.04,1.35-25.61-1.51-51.25-3.59-76.74-6.8-25.31-3.19-46.65-9.09-65.35-29.43-16.03-17.43-28.1-46.02-27.07-71.05,2.03-49.26,40.99-106.97,92.42-100.49,39.03,4.92,78.62,8.05,118.1,8.63-11.02-15.04-21.92-30.14-32.68-45.37-23.86,2.79-48.2,3.03-72.07,1.51-59.3-3.78-122.5-15.84-173.06-51.94-20.08-14.34-35.97-34.39-42.47-60.05-6.09-24.05-3.34-56.08,9.32-77.43,25.97-43.79,83.23-66.91,126.45-36.05,4.4,3.14,8.91,6.01,13.52,8.67-21.46-37.3-41.7-75.57-59.83-114.97-10.78.52-22.12.18-34.71-2.21Z"/>
  </g>
</svg>