<?xml version="1.0" encoding="UTF-8"?>
<svg id="_레이어_2" data-name="레이어 2" xmlns="http://www.w3.org/2000/svg" viewBox="0 0 835.84 1106.97">
  <defs>
    <style>
      .cls-1 {
        fill: #040000;
      }
    </style>
  </defs>
  <g id="_레이어_1-2" data-name="레이어 1">
    <path class="cls-1" d="M690.05,363.79c258.18-70.97,139.59-534.48-92.9-296.36-64.88,70.32-80.76,184.76-37.37,249.86-21.66,44.72-46.73,88.11-73.9,130.29-4.35-15.55-8.7-31.09-13.05-46.63-14.71-52.58-74.63-90.36-128.46-72.94-53.66,17.37-88.71,72.1-72.94,128.46,16.4,58.6,32.8,117.2,49.2,175.8,2.63,9.41,6.83,18.01,11.9,26.04-18.39,23.4-36.96,46.66-55.92,69.62-8.83-14.06-16.66-28.74-23.66-43.79-1.05-2.26-2.12-5.36-3.37-8.14-1.62-4.24-3.27-8.46-4.78-12.74-2.15-6.09-4.25-12.21-6.05-18.41-15.27-52.4-74.24-90.48-128.46-72.94-53.19,17.21-89.3,72.28-72.94,128.46,19.69,67.6,52.87,135.2,100.19,187.75-20.37,22.39-40.84,44.68-61.58,66.7-19.96,21.19-40.03,42.32-60.61,62.92-47.56,47.61,26.26,121.47,73.84,73.84,46.54-46.59,92.41-94.5,137.27-143.6,23.14,7.76,46.07,11.13,72.39,14.03,45.69,5.03,92.07,3.89,137.9,1.4,28.94-1.57,57.91-3.73,86.71-7.07,28.6-3.31,52.71-9.45,73.84-30.59,18.11-18.11,31.75-47.83,30.59-73.84-2.29-51.19-46.31-111.16-104.43-104.43-44.1,5.11-88.83,8.37-133.44,8.97,12.45-15.63,24.77-31.32,36.93-47.15,26.96,2.9,54.46,3.15,81.44,1.57,67-3.93,138.41-16.46,195.54-53.98,22.69-14.9,40.65-35.74,47.99-62.41,6.88-25,3.77-58.28-10.53-80.47-29.34-45.51-94.04-69.54-142.88-37.46-4.97,3.26-10.06,6.25-15.27,9.01,24.25-38.76,47.12-78.53,67.6-119.49,12.18.54,25,.19,39.22-2.3Z"/>
  </g>
</svg>