<?xml version="1.0" encoding="UTF-8"?>
<svg id="_레이어_2" data-name="레이어 2" xmlns="http://www.w3.org/2000/svg" viewBox="0 0 876.4 915.96">
  <defs>
    <style>
      .cls-1 {
        fill: #040000;
      }
    </style>
  </defs>
  <g id="_레이어_1-2" data-name="레이어 1">
    <g>
      <path class="cls-1" d="M832.67,671.19c-15.39-29.44-32.71-58-51-85.83,80.72-161.28,71.55-372.75-70.51-496.6C633.91,21.41,532.04-11.49,430.21,3.62c-48.54,7.2-94.83,26.83-133.75,56.68-47.98,36.79-80.98,88.96-113.39,139.21-36.77,57.02-68.74,118.55-77.02,186.71-6.96,57.27,6.74,112.39,30.19,163.81C69.84,595.55-2.74,663.78.08,744.03c2.29,65.2,53.71,128.14,117.35,142.13,37.71,8.3,67.42-.72,94.22-18.28,4.14,4.82,8.51,9.31,12.99,13.27,28.9,25.55,66.6,33.2,104.09,27.9,25.04-3.54,53.2-11.61,74.9-25.02,30.79,21.67,71.81,30.81,107.34,26.88,40.38-4.47,77.07-25.25,105.9-53.72,82.56,48.94,225.94,109.7,255.5-14.61,14.37-60.42-12.28-118.93-39.71-171.39ZM570.84,782.34c-1.41,1.86-2,2.4,0,0h0ZM789.32,826.2c-.32.85-.89,1.82-1.41,2.68-.64-.27-4.41,2.17-1.75,1.44-15.07,4.15-37.81-2.15-53.95-8.26-36.01-13.62-70.32-35.21-102.24-56.58-19.92-13.33-45.69-2.79-57.91,15.18-.3.44-.56.78-.85,1.17-4.82,5.65-9.72,11.19-15.06,16.37-13.51,13.08-30.24,24.91-49.15,28.23-18.16,3.19-39.05-.12-54.12-11.23-.49-.36-5.68-5.51-7.92-7.6-.91-1.32-2.51-3.52-2.95-4.37-12.74-24.35-47.93-27.11-66.47-8.57-16.28,16.28-22.13,21.36-43.4,27.52-10.45,3.03-21.46,5.43-32.42,4.09-3.4-.41-11.94-3.54-14.01-4.7-3.02-1.68-5.43-3.19-11.68-10.79,3.83,4.66.74-.38-2.18-5.04,7.47-35.25-39.18-71.37-71.31-39.25-21.08,21.08-37.92,46.21-68.95,36.02-32.51-10.68-53.9-50.34-43.99-78.24,18.71-52.67,78.55-94.81,124.78-122.72,12.01-7.25,18.01-17.51,19.63-28.25,2.22-9.07,1.38-19.21-4.45-29.66-24.57-44.08-42.27-91.11-38.43-142.33,3.53-47,25.77-90.93,49.42-130.77,46.07-77.61,95.51-158.06,188.58-180.46,73.21-17.62,152.18,3.61,211.7,48.3,78.22,58.73,115.18,152.6,109.58,248.73-3.67,62.98-22.8,127.85-52.2,179.1-7.12,12.4-8.47,30.45,0,42.72,16.41,23.77,31.64,48.45,46.03,73.48,19.37,33.7,46.99,80.91,49.63,115.26.69,8.91.63,20.06-2.56,28.51Z"/>
      <path class="cls-1" d="M384.39,332.47c18.81,5.58,39.04-6.72,45.2-27.47,6.16-20.75-4.09-42.1-22.9-47.68-18.81-5.58-39.04,6.72-45.2,27.47-6.16,20.75,4.09,42.1,22.9,47.68Z"/>
      <path class="cls-1" d="M543.19,359.15c18.81,5.58,39.04-6.72,45.2-27.47,6.16-20.75-4.09-42.1-22.9-47.68-18.81-5.58-39.04,6.72-45.2,27.47-6.16,20.75,4.09,42.1,22.9,47.68Z"/>
      <path class="cls-1" d="M607.56,423.06c-13.72-9.05-38.37-5.21-46.57,12.95-.9,2-2.15,3.77-3.23,5.66-.09.15-.2.28-.29.43-1.88,2.04-3.65,4.21-5.62,6.16-1.21,1.19-2.51,2.27-3.72,3.45-3.87,2.1-7.53,5.23-11.41,7.39-.54.3-3.3,1.69-4.89,2.53-1.48.59-4.08,1.66-4.78,1.92-6.2,2.24-12.52,3.98-18.89,5.31-.92.19-5.23.87-5.9,1.02-3.23.38-6.47.69-9.71.89-8.85.55-17.69.46-26.48-.09-16.79-1.04-33.04-4.4-48.87-10.14-11.76-4.26-18.45-7.64-31.21-17.08-.74-.55-3.89-3.06-5.42-4.24-1.09-1.02-3.11-2.87-3.63-3.38-3.67-3.67-7.16-7.55-10.41-11.65-1.56-1.96-2.99-4.02-4.5-6.01-.05-.06-.06-.07-.1-.13-1.66-3.16-3.57-6.15-5.14-9.38-1.16-2.39-2.03-4.97-3.21-7.33-.73-1.46-.94-1.73-.87-1.37-6.94-14.59-20.79-23.67-37.31-18.84-16.41,4.8-31.32,26.29-25.75,44.8,14.07,46.84,51.17,80.31,91.83,98.89,62.25,28.45,148.72,30.44,207.32-17.87,10.74-8.85,22.23-20.65,28.22-33.92,8.14-18.03,6.96-39.14-9.44-49.95Z"/>
    </g>
  </g>
</svg>