<?xml version="1.0" encoding="UTF-8"?>
<svg id="_레이어_2" data-name="레이어 2" xmlns="http://www.w3.org/2000/svg" viewBox="0 0 591.59 332.06">
  <g id="_레이어_1-2" data-name="레이어 1">
    <path d="M198.93,50.65c46.64-47.86,98.95-36.72,149.98,1.46,4.79-4.36,10.19-8.64,14.84-13.62C384.11,16.71,409.8,3.52,438.56.56c26.89-2.76,52.92,4.55,73.59,24.37,21.72,20.82,35.76,46.7,46.64,74.1,18.19,45.81,24.68,94.49,32.43,142.79,2.04,12.7-4.28,20.78-15.32,24.96-24.85,9.41-49.36,20.7-75.06,26.67-58.01,13.48-116.4,25.85-175.17,35.36-28.7,4.64-58.65,3.29-87.94,2.12-48.85-1.94-97.79-4.45-146.35-9.8-17.68-1.95-35.78-10.43-51.23-19.93C13.01,284.51,3.99,257.61,1.83,226.16c-2.64-38.55-4.44-76.26,9.53-113.36,9.49-25.22,21.31-48.65,38.07-69.98C84.54-1.86,132.38-3.45,176.22,30.14c7.64,5.85,14.36,12.91,22.72,20.51ZM249.38,299.23c99.02-4.08,187.18-20.49,273.67-46.46,5.09-1.53,9.89-3.99,14.83-6.01,10.51-4.28,14.33-11.48,12.76-23.16-5.95-44.22-12.39-88.33-31.64-129.17-6.38-13.54-13.72-27.06-23-38.7-18.41-23.1-34.2-25.93-61.14-15.94-26.92,9.99-47.64,26.62-63.37,50.78-10.74,16.5-23.56,16.81-37.03,2.43-5.39-5.75-8.81-13.3-13.34-19.89-19.78-28.73-64.32-29.23-84.22-.66-7.11,10.2-12.96,21.27-19.48,31.89-8.92,14.52-21.17,17.33-31.83,4.64-6.88-8.19-10.25-20.02-13.07-30.78-9.22-35.21-51.72-53.27-77.22-31.4C51.5,84.38,31.46,132.98,29.44,190.32c-.69,19.56,8.59,35.24,13.24,52.76,8.3,31.27,12.99,39.51,45,42.88,56.61,5.96,113.48,9.44,161.7,13.28Z"/>
  </g>
</svg>