<?xml version="1.0" encoding="UTF-8"?>
<svg id="_레이어_2" data-name="레이어 2" xmlns="http://www.w3.org/2000/svg" viewBox="0 0 1615.14 1685.55">
  <g id="_레이어_1-2" data-name="레이어 1">
    <g>
      <path d="M.46,953.13C-12.04,594.01,235.09,341.9,444.98,97.17c251.61-187.47,596.26-69.89,836.14,69.34,253.03,145.18,371.31,521.59,323.66,808.78C1464.28,1919.56,29.53,1932.43.46,953.13ZM1522.88,743.16c-207.33,115.84-253.38-62.82-367.05,11.87-109.92,84.41-132.41,84.32-244.1,7.06-134.89-46.78-116.22,176.56-335.56,49.4-209.79-119.64-107.68,289.34-497.04,22.43-161.93,1122.63,1603.73,961.77,1443.74-90.76ZM1211.5,601.34c54.73,75.05,149.93,177.19,246.8,105.67C1721.18,479.82,1038.61,24.66,789.49,89.77c-86.12,7.24-186.53-16.94-259.69,42.79-156.32,136.08-384.73,410.76-423.94,607.7,51.4,135.16,169.28,158.67,267.39,55.53,60.68-65.15,106.82-164.38,198.58-60.57,111.85,129.8,212.46-35.4,271.65-132.5,182.49,195.24,182.84,171.51,368.01-1.37Z"/>
      <path d="M962.11,1314.93c-55.88,65.71-102.88,141.16-212.43,131.82-67.05-3.03-187-79.11-153.6-140.56,23.94,9.37,57.49,11.76,70.22,29.28,88.41,124.84,161.67,10.81,249.36-39.22,14.74-8.41,33.53-3.25,42.14,11.38,1.43,2.44,2.87,4.87,4.3,7.31Z"/>
      <path d="M432.28,1087.38c-86.13-163.78,227.5-166.12,72.77,9.39-5.86,13.76-58.71,6.38-72.77-9.39Z"/>
      <path d="M1058.56,1057.19c-21.56,3.82-36.67-7.44-53.43-35.93-9.56-16.25-9.51-36.41.19-52.57,21.17-35.26,45.19-26.27,75.34-2.24,34.35,27.37,21.13,83.07-22.11,90.74Z"/>
    </g>
  </g>
</svg>