<?xml version="1.0" encoding="UTF-8"?>
<svg id="_레이어_2" data-name="레이어 2" xmlns="http://www.w3.org/2000/svg" viewBox="0 0 483.26 413.2">
  <g id="_레이어_1-2" data-name="레이어 1">
    <g>
      <path d="M420.96,261.36c15.1,14.01,29.9,27.83,44.8,41.55,17.24,15.88,18.56,25.39-.11,40.35-15.1,12.1-32.78,22.02-50.78,29.24-44.83,17.97-91.83,27.25-140.13,30.49-18.77,1.26-37.43,4.7-56.03,7.83-41.03,6.91-80.03-2.07-118.27-15.28-23.07-7.97-45.58-17.6-68.07-27.14-7.08-3-13.92-7.37-19.74-12.42-15.3-13.27-17.06-28.56-3.29-43.17,15.31-16.24,19.65-34.11,17.06-55.79-1.13-9.43,3.59-19.57,6.11-31.52-16.56-6.2-22.75-21.96-16.85-38.35,4.99-13.85,16.87-25.22,26.99-39.51-.55-.86-2.32-4.24-4.66-7.14-11.86-14.66-12.09-30.8-4.28-46.72C59.94,40.23,97.88,5.47,162.18,1.48c66.83-4.15,132.01.35,197.15,14.67,23.89,5.25,48.44,7.83,69.63,20.99,11.88,7.38,23.28,15.92,33.58,25.36,28.01,25.67,29.25,59.24-6.38,88.47,5.29,12.99,10.95,25.89,15.82,39.08,7.6,20.57.45,33.65-20.6,38.21-4.53.98-9.28.96-13.78,1.39-5.66,10.78-11.04,21.04-16.65,31.71ZM212.06,25.74c-17.28,1.01-34.66,1.21-51.83,3.19-52.17,6.01-76.33,45.07-98.39,85.7-5.01,9.22.13,16.76,12.43,16.91,17.09.21,34.68-.66,51.22-4.6,21.63-5.14,42.95-9.95,65.23-7.37,30.46,3.53,60.84,7.68,91.32,10.99,49.56,5.37,98.86,7.97,146.37-12.54,14.39-6.21,23.73-18.14,20.55-32.4-3.07-13.77-11.05-24.62-25.47-28.27-24.33-6.16-48.68-12.45-73.32-17.16-45.58-8.72-91.19-18.12-138.1-14.45ZM428.62,327.57c-4.73-2.78-5.97-4.13-7.25-4.16-37.71-1.06-75.42-1.96-113.13-2.95-20.47-.54-41.16-3.36-61.37-1.36-34.89,3.45-69.11-.15-103.6-3.7-14.62-1.5-29.56.27-44.36.44-22.97.26-44.64,16.28-67.79,3.93-7.1,12.46-.69,18.03,8.13,21.4,27.22,10.4,54.36,21.12,82.05,30.14,28.68,9.35,58.03,13.07,88.52,8.15,28.74-4.63,57.88-6.92,86.88-9.84,38.03-3.84,74.1-14.91,109.25-29.24,7.42-3.02,14.09-7.9,22.66-12.81ZM402.21,208.67c-24.04,19.17-40.31,10.71-56.75-3.28-10.48-8.92-23.8-6.55-35.86-1.4-5.75,2.45-10.95,6.19-16.37,9.4-25.04,14.87-49.34,15.85-71.61-5.03-12.84-12.04-25.5-14.05-40.11-3.43-14.48,10.53-30.83,10.65-47.53,6.9-9.22-2.07-18.71-3.49-27.52-6.74-14.66-5.4-25.83,3.14-38.08,7.8-10.79,4.1-7.42,14.49-9.85,22.26-1.37,4.38-2.17,8.93-3.6,15,7.34,0,13.41.61,19.33-.1,39.83-4.8,79.64-9.82,119.44-14.89,24.33-3.1,47.1.37,67.32,15.22,9.26,6.8,18.57,8.27,28.06.52,10.54-8.61,23.13-10.41,35.77-8.66,14.68,2.04,29.02,6.41,43.66,8.87,5.62.94,13.25,1.49,17.17-1.48,6.68-5.07,11.95-12.59,16.18-20.01,2.04-3.57.35-9.26.35-20.95ZM429.8,159.58c-30.82,2.05-57.46,6.21-83.85,5-36.12-1.65-72.19-6.42-108.02-11.62-33.98-4.93-67.26-5.68-100.5,4.42-20.66,6.28-41.91,6.67-63.29,3.48-24.4-3.63-29.51,1.15-29.28,27.55,3.09-.42,6.51,0,8.93-1.36,24.72-13.91,49.14-11.52,75.18-2.57,9.87,3.39,24.54,1.34,33.88-3.87,26.35-14.7,49.45-13.28,71.48,6.95,12.36,11.36,24.54,10.84,38.49,2.21,9.85-6.1,20.86-11.14,32.04-13.99,9.68-2.47,20.96-3.56,30.36-.98,12.45,3.41,23.76,10.99,36.65,17.31,11.96-8.91,25.39-6.8,39.09-.83,7.93,3.46,15.97,6.97,24.3,9.12,8.78,2.27,14.08-3.62,10.39-12.07-4.66-10.67-11.2-20.52-15.83-28.77Z"/>
      <path d="M283.32,72.54c-10.7-6.68-19.34-11.44-27.04-17.41-1.66-1.29-1.4-8.41.52-10.4,8.61-8.92,19.11-3.59,28.85-2.07,8.41,1.31,16.59,5.96,14.06,15.07-1.54,5.54-9.85,9.21-16.39,14.8Z"/>
      <path d="M204.57,57.34c-8.55,5.25-12.36,9.22-16.7,9.94-9.36,1.54-19.29-6.18-17.56-13.7.94-4.06,7.66-10.55,9.9-9.86,7.23,2.22,13.59,7.26,24.36,13.62Z"/>
      <path d="M260.79,92.68c-6.79,3.16-10.12,5.82-13.66,6.14-9.42.84-13.99-5.96-16.9-13.44-.84-2.17,1.53-8.04,2.35-8.02,6.63.12,13.66.14,19.68,2.49,3.3,1.29,4.86,7.01,8.53,12.84Z"/>
      <path d="M351.36,86.48c-4.48-8.43-9.08-13.13-8.36-16.77.8-4.06,6.45-7.16,9.98-10.67,3.44,3.53,9.89,7.31,9.62,10.53-.39,4.69-5.61,8.97-11.24,16.91Z"/>
    </g>
  </g>
</svg>