<?xml version="1.0" encoding="UTF-8"?>
<svg id="_레이어_2" data-name="레이어 2" xmlns="http://www.w3.org/2000/svg" viewBox="0 0 484.75 395.36">
  <g id="_레이어_1-2" data-name="레이어 1">
    <g>
      <path d="M297,395.36c-64.49-4.37-126.51-15.87-185.64-41.69-21.81-9.52-40.58-22.95-52.81-43.02-12.65-20.77-24.26-42.54-33.27-65.09C12.85,214.44,4.84,181.8.94,148.34c-1.22-10.45-2.6-20.48,5.35-29.79,3.15-3.69,3.28-10.35,3.9-15.76,2.9-25.4,19.7-42.2,45.39-42.8,11.42-.27,19.91-3.38,27.47-11.9,17.91-20.16,40-29.91,67.42-24.9,10.35,1.89,18.64-1.85,26.92-8.33,23.3-18.22,52.36-19.97,77.73-3.57,12.57,8.12,23.88,10.91,38.96,8.06,23.93-4.51,45.72,2.7,62.84,20.9,5.89,6.26,11.83,10.6,21.08,11.93,25.72,3.7,43.22,17.91,50.89,43.58,1.45,4.85,5.82,8.85,8.99,13.12.8,1.07,2.33,1.58,3.3,2.56,3.91,3.95,9.84,7.38,11.21,12.11,5.92,20.33,20.84,35.16,30.46,53.14,1.85,3.47,2.07,8.25,1.8,12.35-2.71,41.95-6.77,83.77-27.99,121.31-14.91,26.37-34.53,48.96-59.61,66.31-4.48,3.1-9.91,5.77-15.21,6.6-28.22,4.4-56.55,8.15-84.84,12.12ZM35.29,158.95c-.82,1.9-1.67,3.12-1.81,4.41-.23,2.06-.28,4.23.09,6.25,8.86,48.47,22.73,95.01,52.92,135.11,9.92,13.17,23.17,21.81,38.34,28.17,33.08,13.87,67.77,21.7,102.84,28.05,43.11,7.81,86.42,7.39,129.01-2.21,13.6-3.07,27.63-10.86,38.01-20.29,29.19-26.52,47.21-60.22,55.03-99.03,3.9-19.33,5.88-38.88,5.21-59.37-21.45,19.28-47.73,26.63-73.14,29.6-51.35,5.99-103.43,5.36-154.67-2.39-64.9-9.82-127.56-29.46-191.82-48.3ZM436.25,150.72c-4.78-19.28-5.45-18.56-18.55-30.66-5.53-5.11-9.15-13.63-10.91-21.23-3.69-15.9-8.5-23.52-24.26-23.08-17.13.48-28.23-7.78-37.07-19.59-10.29-13.74-23.69-17.72-38.7-14.12-21.38,5.12-38.81.89-56.62-12.3-20.11-14.88-38.34-12.73-56.78,4.24-9.77,8.99-20.12,12.11-32.43,9.93-27.89-4.94-49.19,5.16-65.05,27.88-4.36,6.24-9.22,9.07-17.46,8.42-32.41-2.53-41.62,4.13-53.47,37.11,9.11,13.84,22.55,21.87,38.44,26.3,11.42,3.18,22.94,6,34.36,9.16,51.09,14.14,102.01,29.68,155.55,30.79,36.89.76,74.01,1.69,110.68-1.44,26.05-2.22,52.5-8.88,72.27-31.42Z"/>
      <path d="M256.53,295.64c20.45,6.11,23.46,11.6,18.82,32.35-5.01,22.39-14.24,28.54-37.59,25.05-22.22-3.32-28.79-15.19-26.29-49.47-5.57-1.27-11.46-2.47-17.26-3.98-14.51-3.76-19.57-8.18-20.04-22.82-.46-14.35,1.76-28.78,3.06-46.81,9.41,3.35,16.43,4.14,21.16,7.84,14.4,11.28,14.03,11.71,22.02-4.7.57-1.17,1.82-2.01,3.6-3.92,10.28,1.63,18.22,7.51,18.38,18.43.3,20.39,3.95,42.49-17.98,56,15.37,12.16,18.44,11.43,32.12-7.98Z"/>
      <path d="M283.58,247.72c10.5,1.7,21.89-1.55,26.02,12.86-2.66,2.07-5.4,5.8-8.81,6.57-9.93,2.25-18.43,4.82-21.61,16.5-.85,3.12-8.24,7.24-11.21,6.33-4.32-1.34-10.02-6.55-10.45-10.6-1.39-13.11-1.19-26.47-.4-39.67.24-4.02,3.7-10.13,6.89-11.05,3.29-.94,8.9,2.45,11.96,5.49,3.29,3.26,4.8,8.32,7.6,13.56Z"/>
      <path d="M304.62,114.4c18.24-11.59,36.4-9.91,45.51,2.78,2.32,3.23,1.4,8.79,1.96,13.27-3.84.48-7.93,2.07-11.45,1.23-8-1.9-15.9-4.55-23.46-7.79-3.95-1.69-7.1-5.26-12.56-9.5Z"/>
      <path d="M182.9,148.99c21.62-16.53,40.28-13.91,45.58,4.11-15.81-1.43-30.7-2.77-45.58-4.11Z"/>
      <path d="M175.03,91.45c-12.82,7.98-24.99,5.54-30.74-6.03-3.21-6.46,1.07-13.21,8.49-12.15,10.76,1.54,19.92,5.93,22.26,18.18Z"/>
      <path d="M238.24,86c6.56-18.83,11.15-21.27,28.77-16.75-7.35,17.45-11.56,20.04-28.77,16.75Z"/>
      <path d="M94.57,123.73c-11.71-5.48-22.18-10.38-34.18-15.99,18.21-11.37,31.47-4.92,34.18,15.99Z"/>
    </g>
  </g>
</svg>