<?xml version="1.0" encoding="UTF-8"?>
<svg id="_레이어_2" data-name="레이어 2" xmlns="http://www.w3.org/2000/svg" viewBox="0 0 377.3 414.98">
  <g id="_레이어_1-2" data-name="레이어 1">
    <g>
      <path d="M67.57,320c-5.22-37.61-10.41-74.76-15.82-112.34-1.52-10.53-4.94-20.87-5.69-31.42-1.47-20.91-11.04-37.41-24.7-52.46C-8.35,91.07-2.19,55.22,10.61,26.08,16.07,13.63,26.77,6.08,39.94,2.58c47.33-12.6,108.74,22.68,120.7,69.79,7.64,30.08,5.84,57.98-24.06,76.14-14.55,8.84-16.75,20.14-14.59,36.39,8.94,67.24,4.49,135,5.71,202.55.32,17.89-7.1,25.43-23.46,27.26-16.38,1.83-29.73-5.49-32.62-21.46-4.31-23.81-1.18-49.18-4.04-73.25,1.62-.21-1.62.21,0,0ZM91.13,370.41c2.67-.01,5.33-.02,8-.03,0-7.95.17-15.91-.04-23.85-.26-9.86-1.91-19.81-1.11-29.56,3.96-47.93,1.28-95.59-4.47-143.19-2.11-17.51.45-32.16,18.42-42.35,18.51-10.5,26.26-27.26,23.01-50.12-3.54-24.89-19.44-38.38-38.17-50.7-17.42-11.45-36.62-14.6-53.5-2.07-17.18,12.76-25.1,32.27-22.65,54.18,1.87,16.78,8.55,29.57,27.73,34.33,19.9,4.94,19.46,6.48,17.5,28.24-.26,2.92.36,5.98.94,8.91,2.81,14.13,6.57,28.13,8.47,42.38,5.02,37.63,9.84,75.3,13.58,113.07,2,20.14,1.6,40.51,2.29,60.78Z"/>
      <path d="M377.3,77.43c-3.09,17.95-7.01,37.28-9.59,56.79-1.98,14.97-2.17,30.18-3.33,45.27-3.86,49.94-7.58,99.9-11.82,149.8-1.73,20.3-4.68,40.49-7.02,60.74-1.3,11.24-7.87,17.91-18.47,20.36-10.87,2.52-17.32-4.21-21.61-12.73-2.66-5.28-5.01-11.49-4.93-17.24.7-47,1.82-93.99,3.2-140.97,1.28-43.96,3.16-87.9,4.5-131.86.39-12.87-.64-25.78-.15-38.64.79-20.81,14.62-34.58,28.84-46.83,11.56-9.95,30.97-.99,35.94,15.2,1.32,4.31,1.68,8.95,2.15,13.48.85,8.27,1.45,16.56,2.3,26.63ZM336.93,130.14c12.83-24.9,15.15-49.21,15.2-75.77-22.81,10.03-28.16,39.16-15.2,75.77Z"/>
      <path d="M211.34,340.1c1.42-71.22,3.12-142.43,4.01-213.66.18-14.3-2.98-28.62-4.21-42.97-1.56-18.22-2.37-36.38,7.89-52.91,6.78-10.91,15.65-14.77,28.82-12.44,11.9,2.11,16.98,9.11,19.34,19.31,6.99,30.28,12.05,60.24,8.95,92.12-5.34,54.96-6.62,110.32-9.72,165.5-.59,10.59-1.71,21.15-2.55,31.73-1.19,15.06-2.49,30.12-3.46,45.2-.34,5.28.72,10.68.12,15.91-1.24,10.82-12.2,24.09-20.64,24.84-11.58,1.04-17.99-7.05-23.4-15.38-11.5-17.71-10.89-37.41-5.15-57.25ZM238.89,169.56c2.13.19,4.26.38,6.39.57,2.53-26.75,5.96-53.46,7.16-80.27.49-11.02-3.25-22.41-6.32-33.28-.83-2.95-6.21-4.62-9.5-6.88-1.71,3.04-4.71,6.02-4.86,9.14-.29,5.99,1.24,12.04,1.64,18.08,1.47,21.92,2.83,43.84,4.15,65.77.54,8.95.89,17.92,1.33,26.87Z"/>
    </g>
  </g>
</svg>