<?xml version="1.0" encoding="UTF-8"?>
<svg id="_레이어_2" data-name="레이어 2" xmlns="http://www.w3.org/2000/svg" viewBox="0 0 398.07 505.71">
  <g id="_레이어_1-2" data-name="레이어 1">
    <g>
      <path d="M83.56.02c54.76-1.06,110.1,46.79,114.41,96.89,1.02,11.91-2.71,25.57-8.22,36.41-10.7,21.08-24.39,40.72-45.11,53.66-13.28,8.29-16.96,18.61-15.54,34.63,7.22,81.28,13.23,162.68,18.94,244.09,1.81,25.79-10.27,38.08-35.86,39.81-26.53,1.79-39.24-7.51-41.94-33.68-2.22-21.49-.88-43.33-2.94-64.84-4.6-47.9-10.07-95.72-15.76-143.5-2.21-18.55-7.25-36.81-8.68-55.38-1.56-20.3-7.21-36.83-21.27-52.98C-4.09,125.62-5.31,89.55,9.77,55.2,24.15,22.43,52.56,4.98,83.56.02ZM89.79,267.33c9.22-19.18,7.26-35.77,4.26-51.54-4.4-23.15,3.64-39.07,21.44-53.65,12.63-10.34,21.64-25.02,32.72-37.35,17.54-19.51,15.24-39.43.76-58.75-7.55-10.09-16.26-19.93-26.28-27.43-24.35-18.21-59.61-11.79-81.95,13.52-22.44,25.41-23.77,51.87-3.82,75.9q35.88,43.21,41.81,101.43c.8,7.81,1.18,15.73,2.86,23.35.89,4.04,4.14,7.56,8.21,14.53Z"/>
      <path d="M324.78,389.69c3.82-57.79,8.3-115.55,11.19-173.38,1.57-31.36.06-62.86.67-94.28.48-24.52.96-49.14,3.7-73.46,1.27-11.25,6.22-23.12,12.8-32.37,4.22-5.94,15.05-11.26,21.81-10.15,6.45,1.07,14.74,10.03,16.44,16.94,3.72,15.04,4.88,30.98,5.07,46.57.42,34.21-1.99,68.51-.39,102.64,2.95,62.85,4.09,125.37-7.33,187.68-2.79,15.21-.13,31.34-1.41,46.92-1.59,19.41-2.97,39.16-7.94,57.82-1.99,7.48-12.96,16.8-20.46,17.39-7.38.58-17.1-7.52-22.86-14.3-4.54-5.34-6.05-14.39-6.4-21.91-.86-18.61-.28-37.29-.28-55.95-1.54-.05-3.08-.11-4.62-.16Z"/>
      <path d="M237.36,366.08c-1.09-92.35-1.94-184.71-3.43-277.06-.37-23.22,5.09-44.56,14.31-65.58,4.2-9.56,9.81-13.96,20.19-12.92,9.58.96,17.23,3.95,19.65,14.44,3.52,15.33,10.07,30.64,10.12,45.97.15,53.97.81,108.2-4.35,161.8-2.43,25.2-7.85,50.18-6.23,75.76.81,12.74,1.23,25.69,3.91,38.09,8.62,39.86,1.15,78.28-9.97,116.16-2.03,6.92-10.11,14.69-17.06,16.94-10.68,3.46-19.39-4.12-22.29-14.45-3.68-13.08-6.52-26.67-7.36-40.19-1.21-19.58-.31-39.29-.31-58.94.94,0,1.87-.01,2.81-.02Z"/>
    </g>
  </g>
</svg>