<?xml version="1.0" encoding="UTF-8"?>
<svg id="_레이어_2" data-name="레이어 2" xmlns="http://www.w3.org/2000/svg" viewBox="0 0 475.9 334.49">
  <g id="_레이어_1-2" data-name="레이어 1">
    <g>
      <path d="M324.26,246.01c6.61,11.3,11.29,19.29,17.59,30.07-12.04,8.6-22.15,18.16-34.11,23.85-22.08,10.52-44.9,19.77-68.09,27.52-10.65,3.56-22.9,2.43-34.45,3.21-13.53.92-27.23.6-40.58,2.65-21.1,3.24-31.58.53-38.82-17.97-5.26-13.43-14.42-19.16-25.74-25.98-25.38-15.27-51.28-30.66-73.45-50.03C-1.8,214.5-8.15,159.96,10.89,127.04c7.9-13.66,18.36-26.1,29.04-37.84,13.18-14.49,29.73-24.5,29.7-49.24-.02-15.56,16.49-26.89,33.8-29.4C158.35,2.61,213.57-3.69,269,2.51c20.47,2.29,37.62,11.16,41.54,36.9,3.34,21.96,24,25.77,40.15,9.6,9.75-9.77,18.63-20.65,29.43-29.07,15.48-12.07,33.45-21.88,53.16-11.8,23.36,11.95,45.21,28.06,42.37,58.23-2.98,31.56-9.62,62.79-14.82,94.13-.51,3.1-2.14,6.01-3.26,9.01-15.68,41.99-18.44,43.07-62.76,36.42-8.39-1.26-19.04,1.71-26.34,6.35-15.12,9.62-28.7,21.67-44.22,33.74ZM157.6,93.4c-14.05-11.93-25.8-25.27-47.57-15.62-30.89,13.7-53.79,35.8-66.58,65.69-10.39,24.27-9.19,53.66,9.89,72.23,34.33,33.42,75.93,55.12,126.78,49.08,2.87-.34,5.49-2.75,9.11-4.66-3.72-6.72-7.21-13.01-10.88-19.64,5.01-7.07,9.68-13.64,17.31-24.4-28.68-.98-10.74-25.18-22.11-34.51-16.97-13.94,4.4-26.22,2.85-34.72-13.8-6.17-27.26-7.98-32.96-15.6-11.88-15.89,13.49-21.13,14.15-37.84ZM217.35,252.1c25.64.17,38.78-9.39,53.85-18.7-17.43-15.63-8.57-42.57-29.16-55.55-1.87-1.18,1-11.65,3.25-17.16,2.59-6.35,6.93-11.98,12.14-20.64-8.2-1.29-13.42-1.24-17.9-3.05-4.46-1.8-8.18-5.46-13.96-9.53,7.62-10.62,14.12-19.7,20.49-28.59-18.81-25.33-40.39-42.58-75.93-33.59,7.97,11.19,16.33,19.74,20.89,29.98,10.07,22.61,18.95,45.82,26.99,69.24,9.3,27.09,24.35,54.21-.68,87.58ZM404.55,168.12c-7.64-13.54-27.51-14.64-25.55-38.49,16.32,2.99,31.05,5.68,48.2,8.81.59-10.11,1.04-17.87,1.42-24.3-14.12-8.94-33.43-2.43-40.4-25.26,16.67-2.79,32.32-5.41,49.02-8.21,0-6.16,1.16-10.71-.24-14.24-2.94-7.4-7.24-14.27-10.98-21.36-7.02,3.8-14.85,6.62-20.92,11.59-19.55,16.01-38.44,32.82-59.58,51.03,11.72,11.48-5.61,30.14,9.88,46.56,15.28,16.2,33.25,8.97,49.15,13.86ZM318.12,126.76c-16.3-11.17-6.97-44.07-42.98-34.18,1.09,8.93.42,18.33,3.65,26.12,3.85,9.27,11.05,17.16,17.73,27.02,6.45-5.66,11.82-10.37,21.6-18.95ZM311.96,176.18c-1.41-.17-2.82-.34-4.24-.51-1.49,9.78-2.97,19.56-4.46,29.34,2.4.25,4.81.5,7.21.76.49-9.86.99-19.73,1.48-29.59Z"/>
      <path d="M124.55,146.17c-16.17,20.62-26.08,25.69-38.09,17.62-5.37-3.61-11.46-11.57-10.94-16.95.5-5.18,8.38-12.18,14.28-13.82,13.97-3.88,26.88-.74,34.75,13.16Z"/>
    </g>
  </g>
</svg>