<?xml version="1.0" encoding="UTF-8"?>
<svg id="_레이어_2" data-name="레이어 2" xmlns="http://www.w3.org/2000/svg" viewBox="0 0 225.22 545.65">
  <g id="_레이어_1-2" data-name="레이어 1">
    <path d="M197.45,147.8c8.5,17.5,16.79,32.43,23.13,48.15,7.74,19.2,5.98,37.83-6.67,55.24-7.42,10.21-13.39,21.47-20.85,33.63,12.84,13.73,13.03,30.01,8.11,47.57-2.8,10-4.19,20.58-4.82,30.98-3.3,54.3-27.31,102.08-47.57,150.94-3.82,9.2-10.63,18.36-18.46,24.45-14.22,11.06-29.5,8.36-41.79-4.9-21.13-22.8-36.89-48.66-45.54-78.77-3.5-12.18-7.34-24.45-12.91-35.76-3.35-6.81-10.32-11.84-16.61-18.71,8.97-10.21,6.17-22.15,3.25-34.71-6.59-28.36-11.29-56.8-7.69-86.43,1.34-11.08-4.32-22.98-6.59-34.55-7.85-40.02,3.21-73.82,33.99-100.69,5.89-5.14,7.9-10.13,5.52-17.56-11.89-37.17,1.99-70.17,21.5-99.47C77.65,5.87,103.98-.14,129.06,0c14.58.08,29.54,4.53,43.6,9.19,16.91,5.61,29.03,17.49,36.77,34.05,8.74,18.7,12.81,38.55,12.71,58.68-.09,18.33-6.48,35.26-24.69,45.88ZM51.48,181.13c-24.52,19.38-30.88,41.77-22.05,70.1,3.64,11.68,8.42,20.08,19.58,25.18,24.18,11.07,49.91,17.63,75.95,15.41,24.05-2.05,45.56-12.68,56.43-40.55-18.93-1.82-21.37-13.82-21.71-28.89-.22-9.78-4.69-19.46-6.29-25.52-16.48-1.38-28.4-2.38-41.32-3.46-.31,3.62-.26,7.3-1,10.82-3.59,17.22-18.01,25.04-33.48,16.56-7.29-3.99-13.27-11.45-18.07-18.54-3.92-5.77-5.21-13.33-8.03-21.12ZM106.01,63.41c-10.58,18.82-24.87,18.3-42.21,7.59-2.59,14.44-5.97,25.97-6.39,37.61-.45,12.54,8.38,17.92,21.01,15.66,9.46-1.69,19.21-4.33,28.55-3.48,16.24,1.49,32.57,4.27,48.29,8.58,10.19,2.8,16.93.7,24.12-6.16,15.74-15,18.68-33.85,8.08-60.05-8.97-1.31-18.28-2.68-26.92-3.94-20.57,26.69-24.93,27.1-54.51,4.18ZM127.39,488.59c-14.56-12.82-26.92-23.7-39.29-34.58-14.37,9.62-14.75,10.1-9.82,21.39,7.21,16.5,18.6,29.63,34.92,42.88,5.73-11.99,10.59-22.17,14.18-29.69ZM36.26,299.11c-1.7,1.55-3.39,3.11-5.09,4.66,7.9,21.01,3.96,44.64,14.45,66.07,12.91-5.24,17.3-12.58,15.58-23.79-1.8-11.76-3.29-23.58-5.19-37.31-5.91-2.88-12.83-6.26-19.75-9.63ZM132.33,466.47c18.21-24.15,18.04-36.95-.72-54.24-27.48,25.89-27.4,31.6.72,54.24ZM65.98,436.88c15.56-10.44,15.21-19.58-1.88-49.96-15.52,11.03-15.12,21.74,1.88,49.96ZM167.27,337.08c-1.53-.46-3.06-.93-4.59-1.39-4.95,13.36-9.7,26.79-14.9,40.05-4.39,11.19-1.2,19.22,11.84,28.23,2.78-24.32,5.21-45.61,7.65-66.89ZM101.86,352.72c-1.97.33-3.95.65-5.92.98-7.39,15.86-2.35,30.57,5.86,48.77,6.12-8.19,10.3-13.78,14.55-19.47-5.22-10.91-9.86-20.59-14.49-30.27ZM121.3,318.46c2.2,12.27,3.92,21.93,5.65,31.59,1.55.41,3.11.81,4.66,1.22,5.92-11.52,11.84-23.04,19.69-38.33-12.18,2.24-19.85,3.65-30.01,5.52ZM84.14,313.29c-1.42,2.45-2.84,4.89-4.26,7.34,4.07,2.61,8.13,5.23,12.2,7.84,1.75-2.87,3.5-5.75,5.25-8.62-4.4-2.19-8.79-4.37-13.19-6.56Z"/>
  </g>
</svg>