<?xml version="1.0" encoding="UTF-8"?>
<svg id="_레이어_2" data-name="레이어 2" xmlns="http://www.w3.org/2000/svg" viewBox="0 0 354.71 612.78">
  <g id="_레이어_1-2" data-name="레이어 1">
    <g>
      <path d="M237.92,125.77c23.49,17.47,44.2,32.88,65.55,48.76,15.58-16.72,5.58-43.27,25.28-57.22,14.03,9.49,17.1,21.93,14.33,37.53-4.67,26.28-8.35,52.73-12.64,80.32,22.47,8.07,25.22,24.01,24.04,42.16-2.28,35.18.72,70.75-10.05,105.24-12.71,40.69-40.8,66.73-77.89,84.7-14.84,7.19-30.89,12.46-43.71,27.67,5.45,3.92,9.39,8.33,14.25,9.96,17.54,5.89,35.4,10.77,53.11,16.17,9.63,2.93,19.94,4.75,28.62,9.48,23.86,13.01,25.64,40.91,2.37,54.8-13.19,7.87-29.47,12.07-44.89,14.4-30.78,4.63-61.86,8.3-92.94,9.7-50.46,2.28-101.01,2.53-151.52,3.36-12.55.21-23.13-3.67-28.38-16.76-4.16-10.38-4.46-20.45,4.31-27.88,10.75-9.1,21.8-18.74,34.38-24.59,25.92-12.05,52.94-21.74,78.62-32.04,3.71-24.1,1.07-32.26-17.67-35.79-35.79-6.75-57.21-34.5-83.69-54.41C6.23,411.4-.11,394.42.75,376.09c.79-16.77.97-33.69-.31-50.41-4.05-52.85,19.85-91.8,59.86-122.87,7.06-5.49,10.7-9.94,10.52-20.38-.14-8.13,7.97-17.42,14.4-24.35,5.53-5.96,13.87-9.3,20.31-13.38,2.32-22.47,4.19-43.96,7.04-65.32.59-4.45,3.96-9.42,7.52-12.39,5.07-4.22,11.15-7.89,17.41-9.89,18.9-6.05,34.15-14.86,43.4-34.31,4.17-8.78,15.46-15.02,24.71-20.33,9.23-5.29,17.6-1.75,23.16,7.71-12.23,11.62-23.91,22.73-38.45,36.55,28.21,22.03,52.95,43.04,47.59,79.05ZM286.44,191.55l.76.63c-17.39-14.1-34.78-28.2-48.74-39.52-19.09,9.84-33.16,19.7-48.77,24.29-11.9,3.5-14.35,11.91-17.8,19.68q-58.06,8.86-69.8-6.55c18.32-2.54,34.96-4.85,57.12-7.93-17.49-10.94-29.95-18.74-42.74-26.75-12.65,4.71-25.79,10.83-22.45,26.08,4.69,21.41-6.13,31.52-22.23,39.86-19.29,9.99-26.86,27.88-33.62,45.84,28.12,0,54.87-.3,81.6.17,9.13.16,18.52,4.34,27.3,3.12,37.4-5.21,75.36-4.78,112.47-13.97,29.07-7.2,37.52-13.36,40.88-42.01,1.36-11.6-1.58-20.01-13.98-22.96ZM37.29,578.17c.95,2.61,1.9,5.23,2.85,7.84,14.96,0,30,1,44.88-.17,62.87-4.95,125.71-10.26,188.49-16.16,10.23-.96,22.01-2.55,26.5-16.69-6.04-2.28-11.29-4.74-16.8-6.24-20.16-5.48-40.46-10.43-60.6-15.98-14.89-4.1-26.7-12.75-27.68-29.04-.98-16.33,2.07-31.95,19.9-40.01,13.77-6.22,27.15-13.34,40.51-20.41,30.05-15.9,55.61-36.94,61.76-72.08,5.04-28.78,5.82-58.34,7.82-87.6.36-5.24-2.52-10.7-4.17-17.09-5.73,2.17-9.77,3.23-13.38,5.14-30.44,16.07-64.33,19.76-97.31,23.08-36.42,3.67-73.19,5.76-110.36-.38-24.91-4.11-51.82-2.1-71.42,11.18,0,26.04-.98,48.72.47,71.24.6,9.37,3.88,21.11,10.31,27.08,20.77,19.3,40.74,41.58,70.65,46.31,31.45,4.97,43.04,25.9,48.37,53.51,3.72,19.26.68,25.72-17.67,33.11-26.53,10.68-53.36,20.59-79.88,31.28-8.05,3.25-15.5,8.01-23.22,12.08ZM150.62,81.99c-19.37,17.71-26.99,34.23-21.83,45.86,5.31,11.97,30.76,27.2,43.54,26.05,17.01-1.52,31.1-14,35.04-31.05,4.45-19.26-1.5-31.05-22.81-44.48-8.53,6.57-3.3,24.97-23.03,24.49-3.05-5.82-6.73-12.87-10.92-20.88Z"/>
      <path d="M64.85,310.02c-4.68,24.51-13.79,46.9,1.18,68.82,1.35,1.97-.96,7.81-3.25,10.35-1.3,1.44-7.26,1.06-8.91-.64-4.52-4.64-9.92-9.96-11.27-15.85-2.94-12.92-4.93-26.36-4.81-39.57.14-15.89,7.25-21.38,27.07-23.11Z"/>
      <path d="M95.42,410.05c-4.21,3.29-7.09,7.07-8.89,6.61-3.16-.81-5.65-4.21-8.42-6.52,2-2.19,4.23-6.34,5.97-6.15,3.33.37,6.39,3.22,11.35,6.06Z"/>
      <path d="M286.44,191.55c-3.63,5.04-6.59,13.63-11.02,14.48-15.73,3.02-31.98,3.4-50.01,4.94,4.19-16.2,15.12-15.37,24.38-16.36,12.4-1.32,24.9-1.7,37.38-2.46.03.02-.72-.61-.72-.61Z"/>
      <path d="M71.34,251.24c17.5-17.47,28.52-18,48.13-4.52-14.56,11.12-29.53,4.72-48.13,4.52Z"/>
    </g>
  </g>
</svg>