<?xml version="1.0" encoding="UTF-8"?>
<svg id="_레이어_2" data-name="레이어 2" xmlns="http://www.w3.org/2000/svg" viewBox="0 0 559.47 443.2">
  <g id="_레이어_1-2" data-name="레이어 1">
    <g>
      <path d="M220.34,85.1c24.58-7.19,49.29-21.27,73.13,1.42,8.96-20.94,33.72-28.46,53.01-16.5,2.51,1.56,4.51,4.01,7.11,5.33,3.37,1.71,7.11,2.7,10.7,4.01.97-3.62,1.63-7.36,2.98-10.83,7.87-20.37,13.84-42.14,37.1-51.05.25-5.69.47-10.71.77-17.48,15.99,1.69,25.49,13.79,38.13,19.06,2.69,1.12,3.7,6.28,6.79,11.99-29.74.6-53.1,7.28-56.58,41.03,13.77,5.29,24.74,12.85,24.03,30.11,8.14-1.28,15.07-2.2,21.92-3.52,2.13-.41,5.36-1.42,5.89-2.93,4.73-13.41,13.44-8.97,21.41-4.64,10.43,5.67,20.46,12.09,30.52,18.41,8.34,5.25,16.47,10.82,25.71,16.92v10.55c20.87-6.64,20.75,12.27,28.46,22.62-.49,1.43-.54,3.83-1.67,4.57-17.32,11.33-20.17,28.12-20.37,47.29-.15,14.76-4.49,29.51-14.64,41.11-8.2,9.37-17.41,17.88-26.4,26.54-5.02,4.84-10.52,9.19-10.99,17.35,20.33-4.93,40.89-24.58,45.66-42.55,1.66-6.24,3.28-12.8,6.54-18.23,6.39-10.61,9.77-21.46,8.37-33.93-.49-4.3.85-8.81,1.49-14.43,13.3,2.31,15.96,12.27,15.29,19.98-1.34,15.56,1.41,30.12,4.37,45.07,1.2,6.08-.58,13.06-2.21,19.32-3.43,13.18-7.44,26.23-11.68,39.18-1.44,4.38-4.07,8.43-6.58,12.37-2.23,3.5-6.21,6.25-7.39,9.98-6.25,19.83-22.28,31.99-35.52,46.29-3.99,4.31-8.68,8.58-13.92,11.03-29.08,13.61-58.21,26.4-90.14,33.26-61.53,13.21-123.85,14.85-186.22,19.04-41.75,2.81-76.32-10.32-111.45-29.66-30.89-17-51.36-43.76-73.34-69.16-11.91-13.76-13-32.81-15.03-50.59-.93-8.15-.71-16.58-2.72-24.44-3.96-15.52-4.27-30.56,1.71-45.57,1.32-3.3,2.79-6.72,3.14-10.19,2.68-26.44,18.96-44.25,38.06-60.18,15.04-12.55,30.02-25.23,45.78-36.84,6.43-4.74,14.58-7.75,22.4-9.86,13.07-3.53,26.51-5.68,39.78-8.51,2.31-.49,4.48-1.68,6.79-2.19,21.23-4.65,39.26-11.58,48.33-35.22,3.84-10,17.9-16.44,28.01-23.51,4.34-3.03,10.75-3.25,14.21,2.53,3.57,5.96-.57,10.13-4.83,13.63-5.05,4.15-10.85,7.51-15.44,12.1-5.15,5.15-9.31,11.28-13.9,16.99,1.14.99,2.27,1.97,3.41,2.96ZM186.83,232.58c17.99-2,37.34-3.81,55.12-12.81,35.52-17.98,41.87-55.92,13.53-85.82-9.67,16.96-26,22.13-43.7,23.07-17.17.91-34.24-1.04-49.37-9.01-28.25,21.48-20.13,61.21,1.69,76.3,4.21-3,8.06-5.75,11.91-8.5,3.3,5.11,6.59,10.22,10.82,16.78ZM447.63,261.27c.45-1.35.9-2.7,1.35-4.05,2.74-.4,5.5-1.17,8.23-1.1,3.2.08,6.39.9,10.74,1.58-.02-10.51.97-20.86-9.91-23.41-11.3-2.64-23.42-3.05-35.08-2.45-9.93.52-19.69,3.99-29.57,5.93-19.3,3.77-32.48,22.58-27.76,41.6,2.81,11.29,7.78,22.03,11.5,32.27,14.85-.23,29.95-14.35,37.88,6.57,24.48,2,42.75-12.59,46.35-47.29-4.6-3.23-9.17-6.44-13.74-9.66ZM200.15,313.57c-1.11-3.5-2.28-7.19-4.31-13.57-13.53,12.95-27.64,8.13-41.78,6.35-17.64-2.22-35.43-3.27-53.13-5.11-6.46-.67-13.1-1.38-19.19-3.45-10.63-3.61-20.85-8.39-31.31-12.51-21.56-8.5-29.08-24.28-21.97-46.29,1.46-4.52,3.98-9.03,4.11-13.59.44-16.09,8.62-28.53,18.97-39.29,6.86-7.13,15.5-13.2,24.39-17.61,22.15-11,43.42-24.75,69.52-25.33,3.78-.08,8.56-1.77,11.04-4.42,7.82-8.35,14.77-17.52,23.06-27.59-13.21,1.76-24.89,3-36.44,4.95-10.49,1.77-21.03,3.73-31.19,6.8-4.79,1.45-8.98,5.38-13,8.72-10.45,8.65-20.23,18.16-31.07,26.28-22.05,16.5-40.94,34.62-41.99,64.72-.14,3.97-2.52,7.87-3.94,11.78-9.07,24.95-1.52,59.92,37.31,67.96,13.24,2.74,26.16,7.51,38.82,12.41,12.61,4.87,25.26,6.01,38.54,4.62,20.45-2.15,40.96-3.77,63.56-5.8ZM422.8,161.9c1.62,20.01-10.48,31.42-26.94,39.37-7.68,3.71-14,7.95-18.7,15.52-6.95,11.19-18.62,16.01-30.97,19.3-12.53,3.34-21.83-1.4-29.83-10.77-9.4-11-7.33-23.08-3.2-36.16-5.29-3.58-10.24-6.92-15.85-10.72-3.77,12.15-6.71,21.63-9.63,31.03,3.62,2.15,6.91,4.1,11.82,7.02-8.56,7.63-15.75,14.05-25.01,22.3,7.64,2.07,12.79,2.82,17.38,4.84,7.38,3.25,15.16,6.37,21.41,11.28,10.48,8.23,17.97,19.09,19.96,32.71,1.2,8.23,5.71,10.93,15.12,9.99-.9-6.12-1.42-11.87-2.64-17.47-3.84-17.64,2.31-31.17,15.87-42.44,11.19-9.29,23.38-16.32,37.48-19.82,11.04-2.74,19.38-8.15,23.38-19.57,1.57-4.48,2.95-10.78,12.46-9.58-.74,7.44-1.47,14.68-2.31,23.16,5.14.34,9.56.64,14,.94,1.04-13.01.08-25.31,3.47-36.26,3.23-10.44,11-19.47,18.09-31.32-16.58,6.08-30.03,11.02-45.36,16.64ZM316.65,286.21c-7.33-8.37-12.74-16.32-19.86-22.18-7.92-6.52-17.76-9.7-28.37-6.27-9.04,2.92-18.09,5.83-26.95,9.25-21.59,8.34-26.92,20.14-20.02,43.94,11.47-1.32,23.51-3.83,31.19,9.2-2.73,3.59-5.06,6.66-8.03,10.55,13.86,6.75,26.33,13.57,38.62,3.68-3.31-5.16-5.91-9.89-9.16-14.11-3.29-4.27-7.23-8.04-11.97-13.22,10.31-2.9,14.21.05,18.75,7.42,3.27,5.3,11.86,7.32,19.48,11.58,3.9-5.53,8.13-11.53,12.2-17.3-4.99-4.19-8.39-7.05-12.92-10.85,5.64-3.86,9.85-6.75,17.04-11.68ZM149.63,238.1c1.55,19.41,2.89,36.21,4.32,54.23,6.61,1.17,13.58,3.52,20.49,3.36,9.92-.23,20.93-.36,26.57-10.89,9.39-17.53,23.65-29.22,41.52-37.2,4.51-2.02,8.48-5.23,12.7-7.89-3.73-2.34-6.41-2.27-8.92-1.58-12.52,3.43-24.89,7.47-37.51,10.45-20.57,4.84-39.9.18-59.17-10.47ZM127.12,161.63c-23.76,11.58-49.01,20.15-68.56,39.12-4.65,4.51-11.33,8.46-13.18,13.98-3.9,11.59-6.98,24.05-6.93,36.15.03,7.13,4.93,16.8,10.75,20.77,9.1,6.21,20.84,8.55,31.46,12.53-12.03-13.48-19.8-26.53-13.88-43.57-6.36-3.88-15.16.74-17.81-10.19,4.7-3.15,9.87-6.61,15.03-10.07-2.51-15.09-2.45-14.9,12.32-20.03,2.89-1,5.21-3.96,7.48-6.33,2.76-2.89,5.18-6.1,9.9-11.73,3.9,8.56,6.8,14.93,9.98,21.88,7.32.37,15.32.76,23.46,1.17v-43.69ZM129.84,261.94c-.61-4.21-1.46-10.01-2.36-16.17q-26.4,8.38-30.33-2.28c9.71.22,20.57,2.95,25.64-11.35-3.32-3.86-7.32-8.52-12.79-14.88-10.18,12.84-19.1,24.08-28.72,36.2,7.16,6.75,12.61,11.88,16.34,15.4,11.56-2.49,20.85-4.48,32.22-6.92ZM157.34,340.64c-22.52-1.31-42.25-2.46-61.08-3.55,12.06,20.93,35.02,29.4,69.38,23.81-2.97-7.24-5.83-14.21-8.3-20.26ZM329.13,79.27c-14.52-.06-19.95,4.84-20.34,18.34-.33,11.72,3.7,17.92,11.93,18.33,12.7.62,26.9-9.34,26.44-18.55-.48-9.64-8.88-18.08-18.04-18.11ZM176.94,339.29c13.28,30.34,19.42,33.81,49.68,28.27-.84-8.55-2.86-17.9-11.64-19.9-12.28-2.8-21.54-19.17-38.04-8.37ZM78.38,353.5c-6.97-24.54-21.5-37.95-46.34-38.96,3.46,28.51,13.71,37.23,46.34,38.96ZM162.17,418.59c-1.25-1.04-2.34-2.43-3.76-3.06-18.09-8.08-33.87-18.93-47.21-34-8.39-9.48-20.53-8.69-32.53-4.57,24.3,21.12,51.2,36.55,83.51,41.63ZM492.69,199.48c-2.43-6.75-3.71-10.3-4.84-13.45,8.77-4.8,16.27-8.89,23.63-12.92-11.19-24.23-22.68-25.7-36.18-6.22-3.58,5.18-6.28,10.97-9.92,17.43,6.79,2.73,11.7,4.7,18.01,7.24-5.69,3.62-9.65,6.14-13.61,8.66.45.95.89,1.89,1.34,2.84,6.63-1.1,13.26-2.2,21.57-3.58ZM297.68,348.99c-10.94,3.48-18.54,6.79-26.47,8.16-7.58,1.31-15.55-5.19-25.88,1.13,4.27,5.57,7.03,13.04,11.71,14.54,13.25,4.25,27.27,5.67,42.16.32-.51-8.12-.97-15.48-1.51-24.15ZM482.79,340.41c25.49-1.87,45.21-25.6,42.58-52.81-6.97,6.59-12.42,14.18-19.82,18.23-14.18,7.78-21.38,18.95-22.76,34.58ZM372.04,372.75c28.12-3.52,31.23-6.84,35.51-37.07-6.28-2.93-12.22-3.28-17.66,2.01-2.51,2.44-4.82,5.2-7.67,7.13-13.72,9.29-13.77,9.2-10.17,27.92ZM474.43,319.69c-1.22-1.18-1.84-2.03-2.05-1.94-15.73,7.05-31.43,14.17-47.15,21.29v17.4c28.55,3.78,38.14-16.56,49.19-36.76ZM344.71,129.52c-13.2,5.29-24.46,11.04-29.81,24.28-2.38,5.9-2.01,11.1,5.06,12.19,11.42,1.77,20.73-3.1,28.16-11.6,7.54-8.62,3.82-16.24-3.41-24.87ZM267.56,118.94c22.59-8.25,24.82-11.17,20.68-27.07-15.3,2.32-31.74-.17-47.16,11.38,9.84,5.83,18.28,10.83,26.48,15.69ZM392.82,89.81c-20.64,2.03-22.48,20.26-31.4,32.4,7.16,8.01,14.55,10.44,22.49,4.26,11.75-9.14,12.97-21.5,8.92-36.67ZM481.56,224.07c3.62,10.48,6.6,19.12,9.6,27.81,18.89-9.51,24.07-18.28,21.96-38.28-10.21,3.39-20.11,6.68-31.56,10.48ZM347.9,351.81h-31.86c1.97,9.54,3.66,17.77,5.34,25.9h26.52v-25.9ZM382.73,186.77c6.31-6.21,11.93-10.46,15.85-15.92,4.84-6.76,1.82-15.55-5.46-19.43-7.34-3.92-15.75-1.76-19.44,5.57-2.05,4.07-3.01,8.69-4.42,12.92,4.1,5.13,7.71,9.66,13.47,16.86ZM367.15,331.74c-5.08-8.06-8.15-12.93-11.49-18.22h-22.99c-5.35,7.55-10.47,14.77-16.71,23.58,17.73-1.86,32.79-3.43,51.19-5.36ZM331.33,214.89c13.15,3.22,18.83,1.62,24.62-6.74,7.11-10.25-.88-16.12-5.84-23.04-18.24,9.53-20.26,12.79-18.78,29.78ZM408.89,141.53c9.86-.82,17.18-.06,23.36-2.36,4.91-1.83,9.1-6.94,12.25-11.52,1.4-2.04.36-6.96-1.27-9.45-1.03-1.57-5.68-2.2-7.91-1.29-10.24,4.18-20.56,8.64-26.42,24.63ZM266.62,397.06c3.49,8.12,6.14,14.3,8.88,20.68,8.59-.82,15.4-1.46,23.35-2.22-.52-7.6-.89-13.15-1.26-18.47h-30.97ZM194.45,402.6c-11.84-23.49-31.34-16.78-47.23-19.77,10.95,14.87,26.69,18.05,47.23,19.77ZM251.05,419.77c2.58-13.12-5.05-20.95-11.59-26.73-6.04-5.34-15.8-5.84-24.4.65,8.65,14.11,22.46,18.54,36,26.08ZM240.16,122.11c-27.22-9.43-37.12-4.13-33.83,16.88,17.85-2.47,24.07-5.44,33.83-16.88ZM503.22,135.37c-11.54-13-23.72-19.32-38.09-25.24,2.28,23.47,11.33,29.46,38.09,25.24ZM290,155.68c6.18-10.96,10.37-18.38,14.63-25.94-9.74-8.92-17.54-5.38-26.52.92,3.78,7.94,7.16,15.07,11.9,25.02ZM317.42,412.03c23.02.44,24.06-.04,26.24-11.32-17.3-3.65-19.42-2.81-26.24,11.32ZM430.23,378.85q-15.06,5.23-15.78,16.85c5.01-5.35,9.22-9.84,15.78-16.85ZM116.3,277.02q11.47,2.9,14.25-7.05c-5.42,2.68-9.84,4.86-14.25,7.05ZM363.75,403.27q11.6.35,15.5-7.98c-2.64.13-5.03-.38-6.71.49-2.35,1.21-4.17,3.44-8.79,7.49Z"/>
      <path d="M173.82,165.09v37.99c-5.28,4.59-8.91,1.77-11.52-4.04-5.37-11.92-2.03-24.03,11.52-33.95Z"/>
      <path d="M420.97,283.46c11.11-3.97,16.34.7,20.11,6.6,1.27,1.99.22,7.26-1.64,8.9-1.51,1.33-6.88.55-8.69-1.21-3.54-3.45-5.79-8.22-9.78-14.3Z"/>
      <path d="M419.48,287.19c-4.88,2.49-8.54,5.86-10.51,5.06-3.95-1.6-7.24-5.24-10.15-8.61-.62-.72,1.58-5.59,2.45-5.59,3.84.03,7.84.7,11.44,2.04,1.95.73,3.23,3.26,6.76,7.09Z"/>
      <path d="M412.9,247.43c5.63-7.37,11.22-6.07,16.38-.84.84.85.09,5.09-1.1,5.81-6.95,4.19-11.68,1.11-15.28-4.98Z"/>
      <path d="M390.7,263.22c-4.73,2.49-7.7,5.22-9.15,4.57-3.17-1.42-5.57-4.56-8.29-7,2.18-1.6,4.74-4.85,6.45-4.45,3.28.77,6.06,3.61,10.99,6.88Z"/>
      <path d="M428.95,266.02c-4.61,1.48-7.09,3.02-9.32,2.71-1.33-.18-3.39-3.52-3.07-4.97.38-1.69,3.38-4.29,4.59-3.98,2.22.58,3.97,3,7.79,6.25Z"/>
      <path d="M259.39,281.91c7.91-10.62,18.29-6.69,27.31-4.16,2.98.84,4.26,7.76,4.89,13.57-7.83-15.09-24.34,4.66-32.2-9.41Z"/>
      <path d="M494.39,172.2c-3.51,1.95-5.86,4.22-7.1,3.72-2.21-.89-3.74-3.44-5.56-5.3,1.69-1.31,3.61-3.88,5.01-3.63,2.25.41,4.17,2.69,7.64,5.2Z"/>
    </g>
  </g>
</svg>