<?xml version="1.0" encoding="UTF-8"?>
<svg id="_레이어_2" data-name="레이어 2" xmlns="http://www.w3.org/2000/svg" viewBox="0 0 2191.47 1671.19">
  <g id="_레이어_1-2" data-name="레이어 1">
    <g>
      <path d="M730.88,64.43c202,470.8,148.32,265.47,172.92-64.43,136.95,69.6,60.89,225.73,161.84,316.87,118.91-36.47,23.63-198.79,159.9-260.19,35.32,114.72-59.53,266.43,86.15,308.93,223.58,39.51,322.76,259.44,521.73,320.46,392.25-9.14,505.87,364.43,118.85,486.3-99.66,12.29-139.57,78.27-202.48,133.12-336.38,481.36-863.19,462.77-1295.3,88.86-146.4-83.98-414.45-66.18-446.22-251.59-60.98-262.44,234.81-151.93,261.23-331.76,14.69-308.75,573.68-375.26,447.39-567.89-17.39-54.63-78.94-171.67,14-178.68ZM1752.77,1008.63c-11.91-607.31-785.82-772-1227.14-417.5-777.12,836.72,1116.04,1478.89,1227.14,417.5ZM1862.03,1107.07c186.06-20.13,336.79-264.57,107.48-333.32-211.86-6.51-107.67,193.68-107.48,333.32ZM238.52,986.71c-40.48,25.16-107.13,49.99-105.23,68.4,17.95,132.18,37.97,226.47,210.89,233.89-40.99-117.25-69.44-198.65-105.66-302.29Z"/>
      <path d="M894.82,1176.24c148.5,256.78,249.01,143.9,391.45-32.8,20.24,424.58-552.44,207.81-391.45,32.8Z"/>
      <path d="M1352.52,880.16c-22.58-30.85-26.47-53.48.77-81.69,25.58-26.49,70.41-25.89,95.52,1.01,17.43,18.67,24.88,34.88,22.68,54.3-6.4,56.42-84.9,72.92-118.96,26.38Z"/>
      <path d="M682.41,909.93c22.8-55.53,44.02-87.3,96.56-69.08,28.23,9.79,37.57,43.56,18.98,66.06-28.08,33.99-53.68,68.07-87.89,59.21-24.85-6.43-37.05-33.33-27.66-56.19Z"/>
    </g>
  </g>
</svg>