<?xml version="1.0" encoding="UTF-8"?>
<svg id="_레이어_2" data-name="레이어 2" xmlns="http://www.w3.org/2000/svg" viewBox="0 0 533.58 328.48">
  <g id="_레이어_1-2" data-name="레이어 1">
    <g>
      <path d="M285.15,328.48c-32.03-3.29-64.05-6.65-96.09-9.85-14.56-1.46-29.51-1-43.64-4.23-29.66-6.79-59.27-14.28-88.19-23.69-25.76-8.38-41.48-27.58-47.6-54.27-2.48-10.84-6.11-21.49-7.71-32.45-1.5-10.25-2.88-21.14-1.02-31.14,4.94-26.61,13.25-52.45,28.98-74.83,8.66-12.32,18.28-24.74,29.94-34.01,18.28-14.53,37.75-28.2,58.45-38.85,15.27-7.86,33.04-12.45,50.19-14.75C204.37,5.61,240.56,1.9,276.75.29c43.78-1.95,86.29,5.84,126.71,23.69,10.15,4.48,20.86,7.73,31.29,11.59,25.94,9.6,46.72,26.38,64.35,47.2,6.79,8.02,13.3,16.52,18.4,25.66,21.75,39.01,21.57,78.33-1.3,116.73-22.08,37.06-53.13,62.76-95.24,75.57-36.48,11.1-72.71,22.46-111,25.06-8.17.56-16.4.08-24.61.08-.07.87-.13,1.73-.2,2.6ZM299.41,93.75c9.65,1.37,20.21,1.37,25.19,12.36,6.24,13.78,17,27.33,2.16,42.23-.75.75-1.33,2.26-1.14,3.25,2.45,12.86-5.94,17.38-15.72,21.41-5.38,2.22-10.17,5.84-15.41,8.46-7.53,3.76-10.6,9.72-7.27,17.32,4.49,10.27.97,16.55-7.88,21.88-4.41,2.66-7.7,7.14-12.04,9.97-4.78,3.12-10.04,7.13-15.33,7.52-15.64,1.18-29.74,6.25-43.19,13.7-7.77,4.3-15.77,4.98-23.65,1.28-8.4-3.95-16.4-8.75-26.2-14.06-3.79,2.59-8.89,5.34-13.1,9.1-12.13,10.85-20.14,10.75-31.01-1.19-1.56-1.72-2.4-5.04-4.14-5.51-15.79-4.25-31.65-10.95-47.59-11.22-19.67-.34-22.61.07-30.93-19.63-1.26-2.99-4.74-5.04-7.19-7.53.58,15.13,3.55,28.69,7.45,41.99,4.47,15.24,14.92,24.67,30.27,29.04,20.83,5.94,41.48,12.53,62.35,18.3,8.43,2.33,17.2,3.75,25.91,4.66,20.98,2.2,42.12,3.11,63.02,5.88,64.48,8.54,127.22,2.46,188.97-18.32,44.09-14.84,79.97-38.38,100.68-81.63,16.81-35.09,13.59-67.91-9.58-98.97-2.45-3.29-4.91-6.58-7.27-9.94-14.24-20.33-32.79-34.85-56.64-42.39-8.94-2.83-17.83-5.85-26.54-9.31-42.02-16.69-85.56-24.59-130.73-22.15-22.24,1.2-44.5,2.94-66.58,5.78-29.66,3.82-59.05,9.3-85.56,24.51-3.02,1.73-6.38,3.16-9.77,3.93-23.73,5.42-40.13,20.74-54.19,39.42-20.22,26.87-30.65,57.79-37.41,90.21-.4,1.92.43,4.09,1.25,10.61,7.93-10.77,15.48-17.7,18.69-26.25,3.75-9.99,9.39-17.26,17.52-23.37,7.23-5.43,16.67-8.72,16.96-20.53.06-2.6,5.35-6.3,8.88-7.35,12.44-3.73,21.77-11.08,29-21.59,3.91-5.69,9.25-10.04,16.31-7.37,8.45,3.2,15.78,1.13,23.78-1.31,4.74-1.45,10.28-.23,15.46-.34,8.01-.18,16.04-.21,24.02-.82,5.8-.45,11.54-1.74,17.31-2.64,9.72-1.52,19.41-3.55,29.19-4.35,6.65-.54,15.17-1.74,19.81,1.6,8.74,6.28,16,5.24,24.51,1.46,2.53-1.13,5.58-1.1,9-1.71,2.86,4.66,5.52,9,8.37,13.63ZM223.33,172.12c.27-12.93,5.82-19.61,15.63-19.79,1.95-.04,4.82,1.35,5.67,2.94.83,1.55.39,5.03-.86,6.18-3.08,2.84-6.94,4.83-12.68,8.61,12.77,3.11,22.67,5.51,31.79,7.73,9.42-5.52,18.1-10.6,27.55-16.14-4.84-3.6-8.01-5.96-13.21-9.83,10.76-4.77,19.18-8.68,27.74-12.25,12.71-5.29,14.47-8.4,10.26-21.32-1.4-4.29-3.91-8.21-6.34-13.17-11.19,5.43-16.97-1.16-20.51-7.4-8.74-.4-17.74,1.93-21.95-1.54-10.07-8.33-18.81-7.12-29.12-2.19-3.5,1.67-8.21,2.6-11.9,1.77-20.95-4.71-40.92,11.52-61.94,2.64-.44-.19-1.18.09-1.69.34-8.77,4.29-17.74,5.12-27.34,2.83-2.9-.69-7.47.45-9.56,2.5-6.83,6.73-12.87,14.26-19.97,22.33,9.52,4.43,15.27,2.12,21.47-3.9,10.52-10.19,14.86-10.26,28.36-2.86-11.44,7.92-22.42,15.53-33.95,23.52-11.36-4.22-12.59-3.64-23.03,12.34,16.29,4.51,27.74,21.61,47.79,15.57,2.99-.9,7.35,2.88,11.11,4.42,2.65,1.08,5.45,3.11,8.02,2.88,19.16-1.77,38.27-4,58.68-6.22ZM271.3,198.8c-11.82-4.16-19.96-9.43-28.09-9.42-22.12.03-44.32,1.53-66.31,4.02-9.59,1.09-18.59,3.04-26.91-2.98-5.21-3.77-10.02-4.72-16.3-2.29-8.64,3.35-15.26.1-21.53-7.03-4.25-4.83-11.04-9.3-17.21-10.13-10.23-1.38-15.78-5.26-14.76-17.05-9.44,5.09-16.95,9.15-24.47,13.2.66.55,1.32,1.1,1.98,1.65-4.69,9.51-9.37,19.03-14.39,29.22,5.74,4.44,6.44,15.31,18.9,13.61,2.96-13.24,11.92-19.02,25.39-18.05,7.39.53,13.97,2.03,14.72,12.43-6.97,2.11-13.81,4.18-20.51,6.21.73,9.09,6.86,11.51,12.5,10.14,14.55-3.53,26.02.7,35.28,12.08,17.19-13.37,33.8-15.61,50.76-2.26,7.01,5.52,13.88,3.68,21.4.44,9.63-4.14,19.58-9.16,29.73-10.06,16.21-1.44,25.54-11.85,39.84-23.74Z"/>
      <path d="M450.9,88.41c3.65,9.1,4.65,19.68,15.51,23.92,1.71.67,3.63,3.8,3.52,5.68-.78,13,8.22,25.45,1.35,39.05-2.22,4.39-.35,10.85-.35,18.22-4.86,7.96-14.09,10.17-24.6,9.82-24.53-.83-49.07-1.51-73.6-2.31-11.11-.36-15.2-3.61-16.06-14.19-.92-11.44-3.24-23.65-2.41-34.09,1.07-13.39-2.85-31.01,13.23-40.78,2.57-1.56,2.69-6.96,5.24-8.79,3.88-2.78,10.47-6.83,13.14-5.35,8.57,4.75,15.46,1.8,23.18-1,3.03-1.1,8.94-1.47,9.93.11,7.89,12.51,21.13,6.82,31.93,9.71ZM395.05,106.3c-11.02-5.84-19.82-1.37-28.14,7.81,2.52,4.26,5.01,8.47,7.78,13.17-5.17,4.06-9.56,7.5-13.95,10.95,2.98,6.51,6.33,12.09,8.1,18.13,2.21,7.52,7.35,10.39,14.2,10.81,14.58.91,29.19,1.7,43.79,1.81,4.32.03,10.43-1,12.65-3.9,7.35-9.57,19.28-17.98,12.3-33.21-1.06-2.32-.15-5.55-.15-4.97-8.3-7.42-14.41-12.89-22.07-19.75-10.69,4.63-15.16-6.33-22.25-18.12-2.67,4.46-4.02,7.05-5.7,9.41-1.66,2.32-3.65,4.4-6.57,7.86Z"/>
      <path d="M360.89,236.23c.81-2.9.94-7.45,3.19-10.37,2.57-3.33,7.13-7.25,10.65-7.09,3.36.15,8.6,4.74,9.37,8.19,2.48,11.14,6.78,23.02-4.12,32.89-1.94,1.76-2.24,5.28-3.46,7.91-5.79,12.47-11.8,13.37-22.15,3.29-1.17-1.14-1.95-2.69-2.87-3.97-7.8,6.66-14.61,12.8-21.8,18.48-3.97,3.14-9.31,4.5-12.27-.55-2.01-3.43-2.84-8.88-1.65-12.62,4.86-15.28,17.08-24.97,29.22-34.09,3.44-2.58,9.7-1.39,15.88-2.06Z"/>
      <path d="M346.31,210.54c-.4,10.98-3.26,17.87-11.2,22.58-10.51,6.23-20.43,13.5-31.11,19.41-4.38,2.43-10.11,3.39-15.18,3.26-3.47-.09-8.51-2.43-9.82-5.2-1.24-2.61.3-8.95,2.66-10.46,16.12-10.33,32.55-20.23,49.42-29.28,3.86-2.07,9.78-.3,15.23-.3Z"/>
      <path d="M264.42,111.78c5.5-1.96,10.9-4.41,16.57-5.56,1.54-.31,5.66,3.53,5.45,5.04-.35,2.59-2.89,6.55-5.01,6.9-5.16.84-10.61-.06-15.94-.27-.36-2.04-.72-4.07-1.08-6.11Z"/>
      <path d="M172.73,162.34c8.58-5.08,15-8.7,23.49-1.87-6.9,9.6-13.92,6.98-23.49,1.87Z"/>
      <path d="M212.58,198.85c-6.79,19.31-23.04,23.3-40.4,11.61,12.06-8.42,24.62-11.38,40.4-11.61Z"/>
      <path d="M395.39,141.23c-2.71-2.86-6.15-5.17-5.8-6.38.75-2.57,3.1-5.48,5.51-6.43,1.35-.53,6.12,3.13,5.9,4-.71,2.75-3.06,5.09-5.61,8.8Z"/>
      <path d="M377.23,120.94c2.51-2.09,4.93-4.33,7.65-6.09.36-.23,2.33,2.04,3.55,3.15-2.25,2.44-4.51,4.88-6.76,7.33-1.48-1.46-2.96-2.92-4.44-4.38Z"/>
      <path d="M420.11,133.93c-1.62-2.6-3.73-4.52-3.41-5.85.42-1.77,2.72-4.23,4.26-4.26,1.52-.03,4.44,2.71,4.32,4.02-.16,1.76-2.64,3.31-5.17,6.1Z"/>
    </g>
  </g>
</svg>