<?xml version="1.0" encoding="UTF-8"?>
<svg id="_레이어_2" data-name="레이어 2" xmlns="http://www.w3.org/2000/svg" viewBox="0 0 620.72 294.02">
  <g id="_레이어_1-2" data-name="레이어 1">
    <g>
      <path d="M535.84,136.11c-6.08,9.94-13.89,19.09-17.67,29.67-7.12,19.93-22.44,25.78-40.62,26.18-12.9.28-25.87-2.58-39.7-4.13,5.64-29.84,12.15-58.2,16.12-86.9,4.09-29.6,3.06-59.27-9.24-87.25,27.64-14.16,40.51-11.97,63.8,7.3,10.54,8.72,23.16,14.92,34.82,22.29,7.39,4.67,14.75,9.39,22.45,14.31q-10.19,11.52-27.24,14.7c11.01,14.09,15.93,31.35,35.11,38.36,7.38,2.7,11.9,13.24,17.71,20.21,3.63,4.35,6.62,9.48,10.95,12.95,20.21,16.18,24.33,36.91,9.45,57.22-10.71,14.62-22.27,28.79-34.88,41.78-6.01,6.19-14.97,10.07-23.22,13.46-54.86,22.59-111.81,33.47-171.4,33.4-55.29-.07-110.57,3.47-165.87,4.35-17.15.27-34.32-3.6-51.53-4.38-18.92-.86-37.97.58-56.84-.71-18.75-1.28-38.58-1.49-55.7-8.03-20.48-7.83-40.36-20.2-44.53-45.75C5.07,218.21.28,201.31,0,184.34c-.53-32.61,30.62-70.94,62.52-80.07,7.85-2.25,15.75-4.31,24.07-6.59,1.85-6.6,4.56-12.79,5.21-19.18,2.84-28.01,22.34-45.23,40.58-63.03,11.49-11.21,27.09-11,41.97-11.6,15.6-.63,31.23-.72,46.82-1.51,16.04-.82,27.77,4.53,33.71,19.7,17.01,43.46,23.09,85.38-.44,130.94-15.11,29.26-34.77,39-63.73,40.76-6.41.39-12.95,2.04-19,4.27-34.6,12.74-66.86-2.65-77.61-38.28-4.01-13.29-5.71-27.28-8.45-40.88-19.36.43-31.38,8.9-36.32,25.44-.47,1.57-.41,3.28-.75,4.9-12.01,56.43-2.47,72.2,54.89,84.91,18.2,4.03,37.42,4,56.22,4.7,19.8.74,39.66.29,59.49.12,73.55-.64,146.76-5.32,219.25-18.46,21.94-3.97,43.96-7.57,65.78-12.1,27.87-5.78,47.25-23.08,59.34-48.11,3.26-6.74,2.24-15.55,3.19-23.4-6.94-.7-13.86-1.62-20.82-1.99-3.21-.17-6.48.75-10.08,1.22ZM111.79,108.84c.86,10.62.61,21.48,2.81,31.81,4.98,23.34,26.79,36.96,44.82,29.06,35.4-15.51,60.56-78.22,45.61-113.71-.95-2.26-2.02-4.52-3.34-6.58-13.89-21.83-37.07-25.28-56.21-7.88-19.76,17.97-39.02,36.48-33.69,67.3ZM398.46,256.35c31.67,5.54,62.67-.42,93.01-10.51-.27-1.78-.55-3.56-.82-5.34-30.73,5.28-61.46,10.57-92.19,15.85ZM41.62,239.31c10.77,19.52,28.1,23.97,48.47,21.42-16.16-7.14-32.31-14.28-48.47-21.42Z"/>
      <path d="M362.45,64.14c0-10.73,1.48-21.72-.34-32.14-2.95-16.93,3.36-21.32,18.43-27.31,26.64-10.58,41.61-3.41,53.44,22.79,11.48,25.42,9.02,51.86,6.03,78.01-2.6,22.8-8.05,45.27-12.08,67.92-2.02,11.35-9.28,17.11-19.95,19.13-9.71,1.84-19.49,4.37-29.28,4.56-22.49.45-31.25-10.2-27.58-32.68,3.45-21.14,8.07-42.11,11.1-63.3,1.74-12.15,1.33-24.6,1.89-36.92-.55-.02-1.11-.04-1.66-.07Z"/>
      <path d="M352.06,67.7c-2.12,23.92-3.69,53.54-7.72,82.82-2.89,21.05-22.38,35.05-44.41,35.44-4.9.09-9.78.76-14.68.86-19.74.39-26.78-9.86-19.43-28.57,2.71-6.89,6.11-13.52,9.21-20.26,10.07-21.9,11.2-44.33,5.31-67.64-3.83-15.14-6.39-30.62-9.05-46.03-1.97-11.4,1.58-17.75,14.61-20.57,49.89-10.8,65.14,2.17,66.15,63.95Z"/>
      <path d="M136,121.09c-17.26-22.2-17.22-22.98-.87-43.03,2.51-3.08,5.08-6.31,6.68-9.9,6.66-15,22.56-23.55,36.02-18.98,14.11,4.78,21.5,19.26,18.36,35.23-2.49,12.66-4.47,25.43-6.81,38.12-1.89,10.28-29.99,33.91-40.87,34.52-10.03.56-18.7-8.11-17.67-18.84.54-5.57,3.21-10.92,5.16-17.12Z"/>
    </g>
  </g>
</svg>