<?xml version="1.0" encoding="UTF-8"?>
<svg id="_레이어_2" data-name="레이어 2" xmlns="http://www.w3.org/2000/svg" viewBox="0 0 622.07 347.24">
  <g id="_레이어_1-2" data-name="레이어 1">
    <g>
      <path d="M176.51,20.05c30.24-3.88,60.48-7.76,90.72-11.66,1.14-.15,2.52-.12,3.36-.75,17.84-13.27,36.9-6.05,55.04-2.08,14.57,3.19,28.54,2.5,43.01,1.38,12.57-.97,25.45-1.19,37.89.49,14.24,1.92,28.66,4.91,42.1,9.87,35.85,13.21,58.39,40.17,72.61,74.74,3.96,9.63,7.52,19.44,10.96,29.27,2.72,7.79,7.71,10.73,15.93,9.73,9.75-1.18,19.62-2.33,29.41-2.18,24.62.38,45.93,23.7,44.45,48.09-.67,11.13-5.19,20.4-15.64,25.26-14.21,6.62-28.95,11.84-45.02,11-24.33-1.26-38.64,9.65-44.69,33.53-5.03,19.88-14.19,37.56-28.34,52.79-15.28,16.44-36.18,22.67-55.68,30.66-14.66,6.01-31.18,7.96-47.08,10.33-19.41,2.89-39,5.11-58.6,6.17-18.44,1-36.99.39-55.49.03-38.11-.75-76.22-2.64-114.33-2.47-25.46.11-49.32-4.63-72.31-15.13-7.89-3.6-15.88-7.04-24.04-9.95-34.82-12.4-52.43-37.98-57.58-73.64-3.33-23.02-4.67-45.88-1-69.07,3.07-19.42,4.3-39.12,6.83-58.63,3.87-29.85,17.36-52.76,45-67.7,25.17-13.61,50.84-25.4,78.92-30.48,14.09-2.55,28.8-1.66,43.22-2.33.11.91.22,1.82.33,2.73ZM537.27,152.44c-10.23-17.08-20.38-29.47-25.56-43.67-9.26-25.41-25.06-45.31-44.91-62.47-6.37-5.5-14.18-10.72-22.17-12.7-26.38-6.55-52.94-11.27-80.64-7.64-13.42,1.76-27.5-.38-41.16-1.82-26.87-2.83-53.32-8.66-80.51.67-14.5,4.98-30.65,7.68-45.96,7.34-48.87-1.1-93.51,11.01-135.34,36.08-18.4,11.02-28.25,26.72-32.71,46.65-1.76,7.87-2.5,16-3.31,24.05-1.67,16.68-1.96,33.58-4.85,50.04-3.58,20.44-1.35,40.41,1.97,60.32,4.28,25.64,16.39,45.45,43.5,52.76,5.53,1.49,10.76,4.2,16.05,6.52,26.9,11.78,54.67,18.17,84.32,14.94,8.56-.93,17.33-.27,25.99.12,61.2,2.78,122.27,6.52,183.61-.58,24.06-2.78,45.67-9.9,68.03-18.14,32.47-11.97,50.29-35.21,61.84-65.6,1.03-2.7,2.33-5.29,3.4-7.98,9.04-22.72,24.65-35.08,50.24-34.77,10.1.12,20.54-2.97,30.28-6.21,9.7-3.23,14.08-11.38,14.08-21.74,0-9.85-2.25-18.36-12.14-22.98-8.42-3.94-20.89-3.59-34.48,2.13,6.47,1.13,11.04,1.21,15.01,2.78,5.72,2.26,11.96,4.59,16.28,8.69,8.91,8.46,7.55,15.89-2.85,22.4-11.99,7.51-25.31,8-38.58,5.83-11.21-1.83-16.19-12.17-12.69-23.56,1.51-4.91,2.82-9.87,3.27-11.46Z"/>
      <path d="M250.77,309.86c-34.9,4.12-65.29-6.71-95.21-19.71-1.59-.69-3.15-1.95-4.76-2.02-16.99-.65-29.41-11.97-43.23-19.33-46.47-24.74-69.89-72.24-44.04-123.7,7.58-15.09,19.78-28.51,32.01-40.5,36.98-36.27,82.36-56.87,132.97-65.79,11.75-2.07,24.14-1.15,36.2-.65,24.69,1.03,49.25-6.46,74.12.34,21.93,5.99,42.72,13.77,61.63,26.66,22.47,15.31,43.04,32.54,63.28,50.87,36.29,32.86,40.55,107.24-15.59,142.08-22.35,13.87-46.16,24.28-71.29,30.93-30.64,8.11-61.76,14.61-92.92,20.48-11.15,2.1-23.03.34-33.17.34ZM379.16,116.14c-16.1,16.83-37.49,30.37-55.93,50.53,23.81,1.96,44.71,3.67,66.62,5.47.09-9.15,3.46-17.05,13.69-18.31,2.91-.36,7.44,2.63,9.3,5.39,6.38,9.45-7.09,10.7-8.9,18.61,10.23,1.29,19.61,2.47,32.19,4.05-2.13-15.62-3.01-28.66-5.95-41.22-1.98-8.45-7.15-15.57-17.32-17.29-10.66-1.8-21.17-4.5-33.72-7.24ZM142.51,164.37c10.85,14.54,24.78,14.23,38.57,14.05,13.85-.18,27.82.59,42.74-2.23-4.92-6.74-10.07-10.97-11.1-16.04-.94-4.62,2.58-10.15,3.79-14.14-17.83-9.5-35.37-19.32-53.44-28.06-3.83-1.85-10.02-.9-14.36.76-19.81,7.61-31.95,23.96-43.69,40.44-3.02,4.24-5.56,10.3.5,13.59,5.13,2.78,10.68,2.52,14.14-4.84,2.6-5.53,7.01-10.61,11.67-14.67,6.26-5.46,14.35-4.88,21.18-1.43,2.81,1.42,3.59,6.86,5.85,11.67-6.7.38-10.57.6-15.86.91ZM304.27,156.17c-4.47-2.62-8.81-4.32-12.05-7.24-7.23-6.53-7.8-17.07.17-22.63,9.93-6.93,21.23-12,32.27-17.17,2.69-1.26,6.67.22,9.97.43,1.8,5.23,3.35,9.75,5.8,16.92,9.19-7.84,16.66-14.2,24.73-21.08-19.74-11.89-50.78-14.39-85.32-7.56-.62,16.29-1.12,32.97-1.94,49.63-.43,8.82,6.56,12.12,12.15,15.33,6.18,3.55,10.5-1.23,14.22-6.62ZM263.4,100.83c2.98-10.15-1.47-13.39-9.28-11.95-24.31,4.47-48.51,9.52-72.72,14.47-.83.17-1.4,1.65-3.22,3.95,24.93,17.22,53.97,23.69,83.25,35.3.94-8.29,1.68-14.79,2.48-21.86-12.27-2.92-22.99-5.47-35.23-8.39,10.6-8.98,19.65-18.34,34.73-11.52ZM191.44,232.31c-7.78-2.11-13.37-3.62-22.01-5.96,6.75-10.13,11.92-17.88,17.5-26.24-6.77-3.21-10.99-1.86-15.94,3.99-7.22,8.53-19.09,9.35-25.39.87-10.98-14.79-24.72-9.07-38.92-8.36,1.16,5.13,2.77,9.99,5.97,11.54,19.33,9.31,35.46,22.86,51.39,36.8,1.16,1.02,3.15,1.09,5.74,1.92,6.56-4.4,13.49-9.06,21.67-14.56ZM341.06,189.61h-18.87c8.24,14.65,19.38,24.59,40.72,36.7,25.02,14.21,27.86,14.22,49.43-5.39,5.8-5.28,14.12-9.65,15.09-20.05-8.88-.89-16.66-1.67-25.19-2.53.11,8.47,7.74,16.57-1.91,22.93-7.29,4.8-20.89,3.71-31.8-4.27,6.18-7.11,12.22-14.07,20.09-23.14-11.63-2.23-21.31-4.09-33.07-6.34,3.96,7.21,6.43,11.71,9.27,16.88-26.61,3.05-27.41,2.51-23.75-14.78ZM285.83,260.91c27.67,2.59,58.92-3.61,72.54-13.79-4.89-5.6-9.68-6.44-16.58-2.35-3.8,2.26-10.54,2.93-14.33,1.05-5.84-2.9-3.17-8.94-.8-13.73,2.96-5.99,1.08-9.59-6.44-11.87-.31,3.24-.36,5.88-.83,8.44-2.24,12.05-4.56,13.5-16.27,10.38-11.1-2.96-16.02-8.91-13.82-21.55,1.44-8.27-.69-12.42-9.05-18.07,1.99,21.97,3.74,41.23,5.58,61.5ZM392.02,87.6c-.06-1.46-.12-2.91-.17-4.37-34.3-22.69-71.58-31.21-116.56-22.84,4.84,5.01,6.92,9.13,9.73,9.71,10.01,2.09,20.35,4.48,30.43,4,20.56-.98,40.27-.47,57.31,13.13,1.76,1.4,4.14,3.05,6.12,2.92,4.42-.29,8.77-1.64,13.15-2.56ZM264.21,62.42c-16.91-4.68-33.09-7.45-48.62-4.15-15.63,3.32-30.51,10.4-45.48,16.42-6.08,2.45-11.55,6.44-17.27,9.72,6.02,10.26,12.38,5.05,17.71,2.98,24.4-9.49,50.12-11.78,75.71-15.2,5.87-.78,14.54,1.95,17.95-9.77ZM146.08,257.47c-6.14-8.14-12.05-15.44-21.9-20.16-16.88-8.1-35.73-14.98-37.69-38.45-.19-2.29-5.71-5.95-8.61-5.81-6.04.28-6.41,5.54-5.39,10.46.46,2.23,1.06,4.58,2.23,6.5,15.72,25.7,37.91,42.8,67.36,49.99.73.18,1.81-1.1,4.01-2.53ZM199.71,251.26c.41,1.36.82,2.72,1.23,4.08,21.89.13,43.32,6.24,66.79,6.14-1.26-8.32-2.14-14.14-3.14-20.8-24.87,14.56-26.91,13.51-28.28-15.08-13.03,9.14-24.82,17.4-36.61,25.66ZM466.2,200.33c-7.87,2.29-13.19,2.27-16.01,4.92-12.14,11.43-23.66,23.52-35.05,35.69-1.5,1.61-2.15,5.84-1.08,7.49,1.03,1.6,5.52,2.78,7.25,1.85,19.45-10.55,37.54-22.59,44.9-49.96ZM271.13,284.37c-33.78-10.92-65.79-7.31-98.02-11.66,25.72,16.41,73,22.87,98.02,11.66ZM142.41,99.87c-.73-1.55-1.47-3.1-2.2-4.66-3.03.68-6.74.48-9,2.19-20.81,15.79-38.93,34.19-52.67,56.57-2.09,3.4-3.84,7.26-4.57,11.13-.5,2.65,1.02,5.69,2.36,11.87,6.7-12.82,11.08-22.87,16.95-31.95,6.2-9.59,12.81-19.38,21.14-27.02,8.08-7.41,18.57-12.19,28-18.13ZM445.57,127.35c2.89,18.56,5.61,36.06,8.62,55.35,6.23-2.65,10.69-4.55,15.17-6.45-1.16-20.42-5.99-37.4-23.79-48.89ZM248.11,154.78c-7.12,8.68-11.89,14.51-18.85,23,13.2-1.77,23.33-3.12,33.47-4.48l1.32-4.4c-4.95-4.39-9.9-8.77-15.94-14.12ZM218.27,215.16c9.96-4.3,18.38-8.01,25.68-19.12-10.69,1.11-18.32,1.9-25.68,2.66v16.46ZM264.54,224.22c-1.43-5.72-2.21-8.85-3.36-13.46-4.95,3.3-8.24,5.5-13.57,9.05,6.4,1.67,10.03,2.61,16.93,4.41ZM420.44,108.07q-8.72-13.78-17.89-6.61c6.47,2.39,12.18,4.5,17.89,6.61ZM315.75,283.65c-.42-1.28-.85-2.55-1.27-3.83-8.17,1.21-16.34,2.42-24.52,3.64.15,1.09.3,2.18.45,3.28,8.45-1.03,16.89-2.06,25.34-3.08ZM319.77,138.99c1.48.35,2.97.7,4.45,1.06.76-2.49,1.67-4.95,2.06-7.5.05-.32-2.72-1.06-4.18-1.61-.78,2.68-1.56,5.37-2.34,8.05ZM397.65,213.19c-4.5-2.23-6.18-3.59-7.96-3.77-1.39-.13-2.92,1.22-4.38,1.92,1.22,1.58,2.17,3.98,3.74,4.5,1.48.49,3.62-1,8.6-2.66Z"/>
      <path d="M375.63,141.86c1.62,1.73,6.29,4.57,7.48,8.47,1.86,6.07-6.81,13.7-14.34,13.51-6.33-.16-11.03-2.84-11.48-9.9-.47-7.44,5.73-12.29,18.34-12.09Z"/>
      <path d="M181.62,165.38c-10.85.1-17.2-4.42-17.32-12.34-.11-7.26,9.49-16.55,17.12-16.57,6.96-.02,15.94,8.35,16.34,15.24.46,7.95-6.18,13.58-16.13,13.67Z"/>
    </g>
  </g>
</svg>