<?xml version="1.0" encoding="UTF-8"?>
<svg id="_레이어_2" data-name="레이어 2" xmlns="http://www.w3.org/2000/svg" viewBox="0 0 404.91 554.75">
  <g id="_레이어_1-2" data-name="레이어 1">
    <path d="M296.07,378.63c-23.27,12.67-21.56,37.2-29.56,56.14,18.2,28.78,17.73,52.23-1.05,76.86-15.43,20.23-45.77,31.37-69.08,25.36-18.21-4.69-25.46-13.01-27.78-31.9-3.47-28.19,14.12-61.21,42.26-72.34,18.94-7.49,33.29-14.69,36.39-37.83,1.36-10.14,11.5-19.61,18.91-28.32,13.85-16.29,15.15-31.63,7.19-52.56-17.11-45-29.39-91.49-12.17-140.22,5.63-15.93,12.72-29.53,31.91-38.93,3.1,8.56,7.38,15.07,7.54,21.69.68,28.74.14,57.51.08,86.27-.04,16.85,0,33.7,0,57.16,13.26-14.74,15.97-27.92,17.45-39.84,4.22-34.08,15.68-67.64,8.9-102.72-.71-3.66-.89-8.28.74-11.35,2.91-5.47,6.66-13.12,11.41-14.26,5.09-1.23,15.08,2.37,17.16,6.66,11.1,22.91,27.11,45.22,16.2,73.19-14.99,38.42-28.73,77.39-45.39,115.06-5.71,12.91-7.09,21.93-.13,34.38,10.23,18.31,17.53,38.23,27.24,56.86,3.33,6.38,9.28,12.45,15.54,16.07,20.11,11.64,28.87,30.09,33.7,51.35,4.81,21.17-3.02,37.52-19.67,50.42-17.21,13.33-34.48,14.08-53.37,2.63-28.18-17.08-35.05-32.39-26.88-65.07.69-2.77,1.29-5.85,2.94-8.04,22.97-30.61,15.74-58.4-10.46-86.71ZM246.79,466.82c-2.3-2.37-6.26-9.33-12.14-11.91-11.47-5.03-19.89,1.92-26.4,11.12-7.53,10.63-19.91,20.42-13.01,35.04,2.26,4.79,12.54,8.45,18.94,8.14,17.49-.86,32.86-19.7,32.63-42.39ZM330.41,490.77c-1.08,7.55,1.68,17.8,14,20.78,6.5,1.57,15.6,1.02,20.81-2.54,10.72-7.33,6.84-18.45,2.8-28.49-1.78-4.42-2.7-10.16-6.01-12.77-6.28-4.95-14-8.07-21.12-11.95-2.96,6.5-6.29,12.86-8.72,19.55-1.27,3.48-.94,7.54-1.76,15.41Z"/>
    <path d="M199.9,24.85c-27.7,3.1-57.8-8.67-77.43,19.62,19.34,0,37.14-.74,54.81.46,5.09.35,9.8,6.28,14.69,9.65-4.52,4.04-8.48,10.43-13.67,11.67-12.67,3.01-25.9,3.63-38.91,5.21-.17,2.2-.33,4.4-.5,6.6,7.57,1.52,15.08,3.5,22.72,4.44,6.64.81,13.94-1.04,19.99,1.05,5.26,1.81,9.19,7.49,13.7,11.46-4.62,4.19-8.75,11.02-13.97,12.01-11.18,2.12-22.96.86-34.44,1.66-10.17.71-20.27,2.33-30.24,7.2,17.2,2.74,34.54,4.9,51.52,8.64,4.1.9,7.04,7.04,10.51,10.77-3.56,2.7-7.01,7.5-10.71,7.7-12.42.69-24.92-.44-37.4-.52-11.02-.07-22.8-1.43-30.58,12.9,24.98,12.86,54.01,1.15,79.29,15.49-24.05,28.17-56.64,10.53-87.93,22.54,26.73,13.52,55.36-3.87,71.76,21.82-17.55,17.54-43.93-8.8-62.99,14.57,26.09,2.38,50.1,4.57,74.59,6.81-7.33,21.01-13.1,25.53-33.71,25.03-15.22-.36-30.4-2.52-47.26-4.02-1.95,7.77-4.55,13.91-4.9,20.17-4.28,76.25-28.04,148.92-41.68,223.44-3.12,17.03-15.56,32.6-25,48.06-2.16,3.54-11.89,6.74-14.2,4.97-4.33-3.32-7.89-10.37-7.95-15.91-.1-8.42,2.12-17.22,4.99-25.27,24.35-68.28,37.24-138.77,41.53-210.98.46-7.66,1.18-15.34,2.51-22.89,8.84-50.18,14.61-100.61,16.01-151.63.86-31.32,14.09-59.77,28.03-86.95C107.82,11.88,144.88-4.16,176.45.94c11.88,1.92,22.4,5.55,23.45,23.91Z"/>
  </g>
</svg>