<?xml version="1.0" encoding="UTF-8"?>
<svg id="_레이어_2" data-name="레이어 2" xmlns="http://www.w3.org/2000/svg" viewBox="0 0 441.72 627.74">
  <g id="_레이어_1-2" data-name="레이어 1">
    <g>
      <path d="M441.72,526.62c-1.94,3.61-4.49,6.52-5.09,9.79-3.75,20.15-10.91,32.89-35.96,26.54-9.48-2.4-18.25,14.34-31.49,9.15-16.78,14.76-29.31,6.21-40.76-10.03-9.59,5.38-18.02,10.07-26.42,14.83-46.99,26.6-95.37,47.16-151.21,33.66-9.51-2.3-14.55,3.19-21.13,8.28-16.3,12.61-41.25,11.64-60.23-1.85-12.9,8.03-27.01,19.22-40.88-.24-1.1-1.54-8.37,2.36-12.34,1.57-5.35-1.06-10.29-4.22-16.2-6.83,2.72-5.78,3.67-9.41,5.81-12.07,26.51-32.95,28.07-71.4,22.62-110.41-5.12-36.65,1.88-69.54,22.53-99.96,7.06-10.4,9.05-21.09,9.43-34.66.85-30.3,6.28-60.81,12.99-90.53,12.62-55.91,27.46-111.33,42.41-171.09-6.71-4.25-17.91-11.34-29.11-18.44,2.5-2.02,4.99-4.04,7.49-6.06,3.05-8.49,7.32-16.78,8.81-25.53,1.53-8.99.34-18.44.34-29.66,10.3,1.81,17.07,3.01,24.66,4.34,9.54-4.37,13.06-25,29.05-14.49,6.54,4.29,9.39,14.19,14.89,23.12,6.86-2.66,16.29-12.23,25.83-.73,9.47,11.4,4.14,21.86-2.22,32.12-2.8,4.53-6.05,8.78-10.57,15.29,36.91,35.87,52.83,84.58,77.59,128.06,12.32,21.63,20.84,45.71,28.82,69.44,8.43,25.07,18.2,46.18,42.55,62.14,32.42,21.25,50.73,56.14,60.27,93.24,9.27,36.06,23.57,68.87,47.52,100.99ZM236.2,385.96c-16.2,23.2-35.8,39.07-63.59,41.58-21.46,22.41-49.18,9.5-75.15,13.9-6.24,6.98-13.64,14.77-20.48,23.03-12.37,14.93-14.47,31.4-2.22,46.78,12.2,15.31,25.14,30.54,40.05,43.07,26.04,21.89,57.16,29.82,90.78,23.44,43.25-8.21,80.98-29.06,115.69-55.11,26.06-19.56,38.26-46.98,37.73-79.64-.18-11.05-1.76-23.1-14.37-26.25-17.81-4.45-37.17-3.17-52.81-15.2-20.74,8.38-35.89-5.35-55.64-15.59ZM124.69,217.9c32.52,3.09,62.05-4.19,92.82-20.64-5.42-6.2-8.64-13.04-11.85-13.04-18.41,0-37.12-.09-55.14,3.14-24.1,4.32-23.87,5.62-25.83,30.53ZM114.2,270.24c42.94-3.54,85.3-5.54,126.43-22.94-2.9-12.14-5.68-22.43-20.8-16.21-29.98,12.34-61.09,19.01-93.41,20.57-11.19.54-15.72,6.07-12.23,18.59ZM140.75,154c18.85.61,34.06,1.51,49.47-5.42-6.33-18.1-15.84-31.55-32.23-42.32-5.97,16.54-11.21,31.03-17.24,47.73ZM251.08,267.93c-14.7,8.59-26.2,15.32-42.55,24.87,20.51,3.05,35.23,5.23,53.43,7.94-4.35-13.1-7.31-22.04-10.88-32.81ZM133.67,304.79q-30.25-1.1-29.86,27.88c11.58-10.82,20.72-19.35,29.86-27.88Z"/>
      <path d="M218.35,555.01c-11.45-6.1-23.54-11.31-33.98-18.82-3.45-2.48-5.17-12.23-3.06-16.2,2.07-3.89,12.46-8.07,15-6.25,18.86,13.5,31.18,2.69,44.22-9.35,7.66-7.07,16.25-6.69,23.75,1.05,7.41,7.65,3.95,14.87-1.77,21.27-11.43,12.78-23.59,24.65-44.16,28.29Z"/>
      <path d="M268.01,481.91c-9.68-2.49-12.65-10.17-11.88-19.93,1.28-16.36,12.75-28.12,26.78-27.85,11.13.22,17.73,7.8,16.71,19.21-1.15,12.89-18.59,29.2-31.61,28.56Z"/>
      <path d="M170.22,478.44c-.3,11.95-11.04,22.31-22.59,21.79-11.36-.51-18.45-7.53-18.82-18.65-.43-12.7,11.57-24.47,24.08-23.62,9.77.67,17.6,9.92,17.34,20.48Z"/>
    </g>
  </g>
</svg>