<?xml version="1.0" encoding="UTF-8"?>
<svg id="_레이어_2" data-name="레이어 2" xmlns="http://www.w3.org/2000/svg" viewBox="0 0 351.41 546.72">
  <defs>
    <style>
      .cls-1 {
        fill: none;
      }
    </style>
  </defs>
  <g id="_레이어_1-2" data-name="레이어 1">
    <g>
      <g>
        <path class="cls-1" d="M225.65,253.2c2.1-18.59-3.82-32.49-9.3-46.83-28.66,4.36-54.49,8.29-83.7,12.73-2.68,11.39-5.87,24.91-10.03,42.6,36.02-14.4,68.55-16.73,103.02-8.5Z"/>
        <path class="cls-1" d="M211.53,184.74c3.52-11.48-1.86-16.5-12.43-16.1-16.23.6-32.53,1.5-48.56,3.9-3.89.58-6.83,7.5-10.21,11.5,1.47,1.82,2.94,3.64,4.42,5.47,22.14-1.58,44.28-3.16,66.79-4.77Z"/>
        <path class="cls-1" d="M192.12,108.78c-5.08-6.86-8.39-11.34-12.36-16.71-7.9,7.16-12.87,13.04-7.56,24.63,6.26-2.49,11.95-4.76,19.92-7.93Z"/>
        <path class="cls-1" d="M44.37,422.35v-31.4c-7.6,5.21-12.31,8.43-20.85,14.28,7.94,6.52,12.77,10.48,20.85,17.13Z"/>
        <path class="cls-1" d="M225.72,310.77c-12.89-6.98-20.19.97-29.58,5.65-10.84,5.41-22.65,14.4-33.22,13.39-13.07-1.26-33.05,5.02-36.9-18.08-10.1,9.32-18.07,18.99-28.13,25.34-11.17,7.06-16.61,16.56-17.24,28.46-1.06,20.15-2.15,40.52-.36,60.55,3.02,33.76,24.36,55.96,55.37,53.88,39.5-2.64,79.59-8.23,110.27-37.32,10.97-10.41,22.79-23,27.05-36.81,11.86-38.39-.6-72.73-23.63-102.69-9,3.17-18.91,10.19-23.63,7.63Z"/>
        <path d="M321.76,322.04c-7.61-.22-15.22-.03-20.18-.03-12.64-17.27-24.05-32.02-34.43-47.47-4.14-6.16-7.32-13.6-8.7-20.88-5.94-31.19-10.86-62.57-16.59-93.8-1.39-7.59-4.33-14.92-6.75-22.3-9.71-29.62-21.14-58.41-42.53-81.39,4.8-7.18,8.83-12.03,11.57-17.51,8.3-16.61,2.62-25.15-16.08-25.55-3.26-.07-6.72-1.89-9.64-3.65-5.13-3.1-10.66-10.24-14.66-9.37-5.43,1.17-9.58,8.28-14.28,12.85q-12.05-3.95-21.35-.7c2.16,13.63,4.09,26.96,6.49,40.21.52,2.9,1.97,6.51,4.2,8.09,14.9,10.57,8.36,22.72,3.53,35.23-11.18,28.96-24.22,57.46-32.27,87.28-8.2,30.38-20.51,60.83-12.64,95.97-36.94,21.31-42.7,58.86-53.4,93.95-5.07.89-9.84,1-14.04,2.6-15.31,5.86-28.42,15.38-29.89,32.59-1.43,16.67,10.41,26.92,24.17,34.12,5.44,2.85,11.82,3.87,17.36,6.57,4.53,2.21,10.58,4.76,12.29,8.74,11.29,26.14,32.65,38.61,58.57,45.59,9.66,2.6,17.13,7.14,17.89,18.59.25,3.8,1.53,7.73,3.2,11.19,7.91,16.38,19.55,18.15,32.55,5.37,8.16-8.03,16.56-15.8,22.89-21.81,13.5,4.33,23.59,8.85,34.15,10.64,14.62,2.49,21.24-3.47,23.65-18.55.61-3.84,1.36-7.81.99-11.62-1.47-15.04,5.66-24.75,17.86-32.51,16.21-10.3,28.36-24.76,35.21-42.59,7.65-19.91,17.02-37.77,36.79-48.31,3.17-1.69,5.53-5.45,7.53-8.7,14.03-22.77,3.46-42.04-23.44-42.82ZM44.37,422.35c-8.09-6.64-12.91-10.61-20.85-17.13,8.55-5.85,13.25-9.07,20.85-14.28v31.4ZM179.76,92.07c3.97,5.37,7.28,9.84,12.36,16.71-7.97,3.17-13.66,5.44-19.92,7.93-5.31-11.6-.34-17.48,7.56-24.63ZM204.32,137.11c-4.06,3.54-6.32,7.23-8.79,7.37-11.53.63-23.12.28-34.69.28l43.47-7.65ZM150.54,172.53c16.03-2.4,32.33-3.3,48.56-3.9,10.58-.39,15.96,4.62,12.43,16.1-22.51,1.61-44.65,3.19-66.79,4.77-1.47-1.82-2.94-3.65-4.42-5.47,3.38-4,6.32-10.92,10.21-11.5ZM132.66,219.11c29.2-4.44,55.03-8.37,83.7-12.73,5.48,14.34,11.4,28.23,9.3,46.83-34.47-8.23-67-5.9-103.02,8.5,4.17-17.69,7.35-31.21,10.03-42.6ZM272.99,405.83c-4.27,13.81-16.08,26.4-27.05,36.81-30.67,29.09-70.77,34.68-110.27,37.32-31.01,2.07-52.35-20.13-55.37-53.88-1.79-20.02-.7-40.4.36-60.55.63-11.9,6.07-21.41,17.24-28.46,10.06-6.35,18.02-16.02,28.13-25.34,3.84,23.1,23.83,16.82,36.9,18.08,10.57,1.02,22.38-7.98,33.22-13.39,9.39-4.68,16.69-12.62,29.58-5.65,4.72,2.56,14.63-4.47,23.63-7.63,23.03,29.96,35.49,64.3,23.63,102.69Z"/>
      </g>
      <path d="M238.79,404.36c-24.85,24.48-50.49,41.99-86.01,32.58-7.16-1.9-14.07-6.37-19.83-11.17-2.56-2.14-3.36-8.44-2.34-12.12.69-2.49,5.86-3.92,9.22-5.38,1.25-.54,3.18-.18,4.57.36,23.61,9.11,43.69,1.37,63.41-11.84,13.56-9.08,15.22-8,30.98,7.57Z"/>
      <path d="M238.02,351.48c.66,8.45-8.12,17.02-18.02,17.58-10.2.58-19.95-6.67-20.31-15.11-.39-9.33,7.36-16.66,18.2-17.2,11.34-.57,19.4,5.32,20.13,14.73Z"/>
      <path d="M135.67,357.89c-.42,12.46-8.5,20.42-16.8,20.45-10.25.04-20.01-7.87-19.64-15.91.33-7.29,12.28-16.99,20.8-14.68,6.37,1.73,11.67,7.43,15.64,10.14Z"/>
    </g>
  </g>
</svg>