<?xml version="1.0" encoding="UTF-8"?>
<svg id="_레이어_2" data-name="레이어 2" xmlns="http://www.w3.org/2000/svg" viewBox="0 0 349.4 497.53">
  <g id="_레이어_1-2" data-name="레이어 1">
    <g>
      <path d="M70.68,252.63c9.34-27.71,18.99-59.42,30.75-90.34,11.45-30.09,25.05-59.36,37.87-89.36-7.31-7.58-22.93-5.82-23.1-23.39,6.21-2.35,13.27-5.02,22.25-8.42-3.32-3.44-6.92-5.88-8.6-9.27-2.01-4.03-4.58-10.21-2.88-13.04,2.05-3.4,8.41-5.94,12.76-5.75,5.51.24,10.88,3.62,17.58,6.12,1.7-3.65,3.05-6.83,4.63-9.88,5.42-10.47,12.67-12.58,20.08-3.84,6.79,8,12.87,14.2,24.01,16.52,7.76,1.62,7.01,10.83,3.03,16.75-4.41,6.56-10.35,12.08-15.69,18.12,1.37,2.38,2.02,4.83,3.6,6.05,30.74,23.59,47.34,55.82,56.63,92.46,7.42,29.25,14.79,58.52,21.5,87.93,1.9,8.34,4.39,14.48,12.53,19.08,13.67,7.71,25.89,17.34,25.21,35.86-.12,3.37,2.32,6.9,3.8,10.26,8.85,20.08,19.07,39.67,26.33,60.3,10.19,28.96,7.86,58.29-4.55,86.3-8.25,18.61-13.84,20.52-34.09,16.18-3.35-.72-7.11-.34-10.54.3-3.56.67-7.84,4.25-10.26,3.15-20.07-9.15-35.37,4.02-51.88,10.55-33.37,13.21-66.7,18.12-100.78,2.73-7.56-3.42-15.04-6.38-21.48,2.9-1.54,2.21-7.51,3.91-9.69,2.7-13.17-7.32-27.65-3.23-40.27-2.04-23.93,2.26-36.33-9.47-44.94-27.78-17.07-36.31-19.26-74.42-5.71-111.94,8.7-24.08,20.71-47.18,33.33-69.54,5.75-10.19,16.56-17.52,28.53-29.65ZM235.73,323.94c-11.16,0-19.84.58-28.38-.25-4.1-.4-7.89-4.94-11.91-5.08-15.04-.52-28.71-11.62-44.95-4.34-9.37,4.2-20.17,10.84-30.07-.39-.53-.6-3.26-.27-4.04.53-8.69,8.96-25.67-.65-32,14.57-1.07,2.58-7.43,3.54-11.52,4.18-14.52,2.3-20.39,8.73-19.68,22.83.22,4.38,2.1,8.84,1.59,13.07-4.86,40.66,15.59,65.88,50.43,81.42,17.36,7.75,35.57,13.78,53.76,19.41,6.76,2.09,14.71,1.86,21.87.86,27.36-3.86,52.69-13.77,75.24-29.59,13.46-9.44,24.45-21.7,25.57-39.44,1.63-25.82,1.51-51.46-12.48-74.51-6.58-1.67-13.95-1.71-18.68-5.26-4.48-3.36-6.19-10.4-10.69-18.73-1.78,9.06-2.85,14.53-4.07,20.72ZM236.21,212.43c-3.19-26.2-9.2-25.85-28.58-26.5-22.05-.73-44.17.95-66.26,1.25-22.02.29-22.65.69-27.01,25.25h121.86ZM98.59,262.47c52.17-10.82,99.01-7.88,146.73,4.72,1.48-14.73,1.28-26.36-5.32-35.55-45.06,7.21-88.09,13.87-133.02,3.77-2.52,8.11-4.58,14.76-8.4,27.07ZM136.38,159.26h82.14c1.59-12.96-5.61-16.39-15.49-16.35-17.55.08-35.1.72-52.65,1.08-8.93.19-13.05,5.05-14,15.26ZM171.6,79.28c-7.98,16.64-13.13,27.36-19.33,40.29,18.74,1.23,33.92,2.39,51.96-4.78-10.94-11.91-19.98-21.74-32.63-35.51Z"/>
      <path d="M128.43,396.48c7.63,4.48,13.12,7.16,18.01,10.69,13.17,9.52,19.99,9.91,33.94.96,2.46-1.58,4.46-3.97,7.03-5.29,7.95-4.07,16.6-4.6,21.63,3.35,4.88,7.72-1.4,13.45-7.32,18.31-11.19,9.17-24.19,14.05-38.35,15.19-23.08,1.85-38.3-14.65-34.93-43.21Z"/>
      <path d="M126.87,352.88c.04,10.54-9.09,21.61-17.99,21.83-8.21.19-18.07-9.94-18.13-18.64-.09-12.14,9.38-22.09,20.39-21.46,8.26.48,15.71,9.13,15.74,18.27Z"/>
      <path d="M232.69,350.18c-.44,9.87-12.12,19.79-22.79,19.35-9.98-.41-16.01-6.87-15.79-16.91.24-11.42,10.27-20.36,21.61-19.26,9.23.9,17.32,8.91,16.97,16.82Z"/>
    </g>
  </g>
</svg>