<?xml version="1.0" encoding="UTF-8"?>
<svg id="_레이어_2" data-name="레이어 2" xmlns="http://www.w3.org/2000/svg" viewBox="0 0 301.29 537.06">
  <g id="_레이어_1-2" data-name="레이어 1">
    <g>
      <path d="M262.02,518.11q13.63-21.61-4.48-30.81c-1.34,7.49,4.45,17.4-6.56,21.5-6.68,2.49-13-3.24-18.88-15.46-5.51-11.47-5.77-23.21-3.8-35.54.71-4.45-.32-9.79-2.26-13.92-4.5-9.57-10.04-18.65-16.55-30.44-10.02,3.4-22.09,8.77-34.73,11.45-13.64,2.89-27.86,4.77-41.74,4.3-13.23-.44-26.27-4.89-39.51-6.8-12.55-1.81-22.07-14.17-38.78-11.09,8.5,9.67,16.66,16.73,21.93,25.52,6.83,11.4-2.71,20.17-9.28,29.86,3.98,4.43,7.86,8.48,11.44,12.79,8.89,10.72,9.25,19.96,1.26,26.99-7.67,6.74-13.1,5.58-24.24-5.09-1.3-1.24-2.81-2.26-4.84-3.87-5.87,4.72-9.8,9.31-2.35,15.23,6.84,5.44,13.4,10.97,8.15,20.44-3.36,6.05-13.8,4.78-24.27-2.03-16.35-10.63-19.18-26.84-7.68-49.73-15.67-21.37-27.52-44.46-4.28-70.21C-.81,395.15-1.41,373.3.94,350.31c2.52-24.66,2.56-49.3,9.7-73.73,7.36-25.22,22.26-43.01,43.33-55.95,10.83-6.65,17.25-14.05,18.74-26.5,1.13-9.47,3.32-18.81,4.99-28.22,5.54-31.36,20.64-58.81,35.26-86.47,2.94-5.56,5.9-11.1,9.13-17.19-3.35-3.71-6.74-6.65-9.03-10.29-1.57-2.5-3.1-7.94-2.09-8.71,11.74-8.91,3.34-20.96,5.25-33.8,6.39,1.22,12.12,2.32,17.97,3.44q9.41-16.22,25.93-5.21c1.55,1.03,3.23,1.9,4.9,2.74,5.41,2.7,14.28,4.26,15.54,8.24,2.32,7.38.72,16.23-.31,24.33-.43,3.42-3.55,6.5-5.99,10.67,29.42,43.5,40.11,93.04,44.29,144.45.77,9.42,5.02,15.26,13.35,19.1,28.24,13.02,43.69,36.33,51.51,65.39,1.45,5.38,2.99,12.04,1.1,16.76-4.63,11.57-2.02,22.02.82,33.15,4.21,16.51-2.83,31.19-10.44,46.16,3.72,3.24,6.9,6.18,10.24,8.9,13.64,11.13,15.47,15.65,8.57,31-4.32,9.6-6.72,17.25,2.78,25.44,6.68,5.76,5.95,13.66.65,20.74-2.27,3.04-4.68,5.98-7.64,9.75,9.57,12.9,14.64,26.21,5.17,42-9.74,16.25-18.48,17.39-32.64,1.6ZM57.28,279.85c-6.22,12.35-11.32,23.38-17.2,33.97-13.39,24.1-9.4,47.31,12.49,63.93,51.78,39.32,106.4,40.01,160.13,5.31,6.96-4.5,12.05-12.65,16.6-19.98,12.54-20.24,14.4-42.95,12.52-65.95-.35-4.28-4.71-11.47-7.72-11.74-13.75-1.23-24.7-8.44-36.61-13.8-2.82-1.27-7.2.49-10.75,1.36-10.82,2.63-22.24-4.64-33.08,2.21-1.33.84-6.2-3.58-9.22-5.85-3.37-2.53-6.5-5.39-8.78-7.3-7.45,4.16-13.13,9.4-19.51,10.5-19.2,3.29-38.68,4.96-58.88,7.36ZM192.02,191.02c-32.12,1.55-61.15,15.38-92.76,7.73-5.55,9.43-8.74,18.31-5.59,30.15,33.47-9.55,66.67-10.31,102.26-3.4-1.55-13.65-2.73-24.03-3.91-34.48ZM103.34,179.45c29.15-2.68,57.04-5.24,86.75-7.97-1.84-6.53-3.62-12.83-6.09-21.62-24.12,3.1-46.71,5.68-69.18,9.04-9.07,1.36-11.85,8.41-11.47,20.54ZM131.37,100.75c14.03,1.01,24.92,2.95,35.55-3.12-.46-11.92-7.55-18.5-17-26.39-6.29,10.01-11.74,18.68-18.55,29.51ZM117.08,129.25c.45,1.77.89,3.55,1.34,5.32,19.6-2.05,39.2-4.1,63.15-6.61-5.98-4.29-9.03-8.12-10.99-7.63-17.53,4.39-37.65-3-53.49,8.92Z"/>
      <path d="M139.5,376.9c-20.13-.24-31.15-7.73-40.32-17.66-2.62-2.84-1.77-8.87-2.52-13.44,4.13-.46,8.29-1.41,12.38-1.2,2.31.12,4.73,1.86,6.74,3.35,10.4,7.68,21.08,6.8,32.44,2.17,5.79-2.36,12.25-4.48,18.33-4.3,4.15.12,9.85,3.47,11.87,7.06,3.19,5.68-.07,11.78-6.05,13.92-12.48,4.45-25.33,7.84-32.88,10.11Z"/>
      <path d="M183.15,286.45c9.02.1,14.41,5.55,14.1,14.22-.38,10.49-9.95,20.11-19.56,19.67-8.85-.41-16.5-7.34-16.83-15.24-.41-9.92,10.19-18.79,22.29-18.65Z"/>
      <path d="M80.12,318.89c-11.15-.07-18.92-5.91-19.11-14.36-.2-8.76,11.13-18.23,21.24-17.77,7.95.36,13.6,7.52,13.79,17.46.17,9.04-6.01,14.74-15.93,14.67Z"/>
    </g>
  </g>
</svg>