<?xml version="1.0" encoding="UTF-8"?>
<svg id="_레이어_2" data-name="레이어 2" xmlns="http://www.w3.org/2000/svg" viewBox="0 0 344.03 543.37">
  <g id="_레이어_1-2" data-name="레이어 1">
    <g>
      <path d="M170.19,82.32c-5.21-1.72-8.96-2.85-12.63-4.2-2.67-.98-5.43-1.94-7.79-3.46-5.8-3.71-9.92-9.63-7.38-15.9,1.66-4.11,7.83-6.41,13.59-10.72-.95-4.44-2.4-11.27-4.08-19.16,20.17-3.65,21.61,18.17,35.74,22.27,7.59-16.23-5.34-34.77,4.67-51.14,22.18,4.19,12.81,23.71,17.81,37.06,8.4-4.83,11-12.92,16.38-18.39,2.94-2.99,7.27-7,10.62-6.69,6.34.59,9.81,6.5,8.95,12.67-.81,5.87-2.62,12.2-5.9,17.03-7.66,11.28-16.47,21.78-24.35,31.99,10.05,22.12,19.83,43.99,29.89,65.72,15.68,33.84,20.15,70.67,27.46,106.57,5.69,27.94,7.19,56.74,10.75,85.13.4,3.21,1.16,7.18,3.27,9.25,17.87,17.52,23.08,40.41,27.29,63.26,1.43.94,2.35,2.09,3.29,2.1,25.2.35,35.11,26.52,16.87,47.82-4.34,5.07-10.35,10.6-16.44,11.87-12.51,2.62-17.4,10.67-22.49,20.96-14.64,29.61-38.14,49.13-71.39,53.19-24.44,2.98-49.31,4.38-73.9,3.61-37.82-1.18-67.94-19.03-91.08-48.71-4.92-6.31-9.38-12.99-14.5-20.12-5.06,0-10.22.47-15.28-.09-16.92-1.84-28.12-12.96-29.39-28.68-1.21-14.86,3-22.92,17.4-27.74,10.97-3.68,16.96-9.17,19.16-21.11,3.23-17.53,14.7-31.44,27.15-43.12,8.22-7.72,12-16.66,15.04-26.2,9.92-31.13,17.98-62.87,28.7-93.71,12.25-35.24,26.22-69.91,40.19-104.53,6.18-15.32,14.2-29.89,22.36-46.83ZM63.92,386.37c-3.86,12.75-10.63,23.84-9.8,34.33,3.79,48.4,40.51,92.35,89.51,97.39,20.93,2.15,42.34.45,63.48-.62,22.64-1.15,41.91-9.38,57.13-27.56,23.91-28.57,29.26-61.68,26.38-97.07-.66-8.18-2.62-16.89-10.38-22.71-7.9,5.82-14.08,11.04-25.22,8.88-10.78-2.09-22.68,1.56-34.66,2.74-6.73-4.58-14.2-9.66-22.42-15.26-8.06,8.73-16.78,7.99-24.08,1.22-6.4,3.1-13.77,8.97-16.11,7.39-9.7-6.55-15.91,1.73-23.01,3.65-4.55-3.29-8.54-6.17-12.5-9.03-6.35,4.84-11.69,9.18-17.33,13.09-2.76,1.91-7.45,5.07-8.93,4.1-10.24-6.71-19.48,3.13-32.05-.54ZM255.14,266.85c-21.86,2-41.13,4.4-60.48,5.38-25.56,1.29-51.06,9.58-77.49-.31-6.16,16.4-11.9,31.67-18.98,50.49,8.76-1.32,14.03-1.99,19.26-2.93,10.7-1.92,21.3-4.8,32.08-5.83,32.29-3.08,64.29-.81,95.91,6.67,4.76,1.13,9.77,1.21,17.27,2.07-2.66-19.49-5.02-36.76-7.58-55.54ZM243.26,207.5c-34.94,2.34-68.39,10.73-102.6,1.56-7.55,12.35-13.62,24.76-15.97,41.61,42.76.54,83.4-3.67,126.38-10.51-2.68-11.2-5.12-21.39-7.82-32.66ZM147.77,184.98c16.15,6.43,73.84,4.34,90.96-2.87-4.05-22.8-5.54-23.74-27.19-20.23-19.02,3.08-38.12,5.68-58.46,8.67-1.46,3.98-3.39,9.22-5.3,14.43ZM165.1,141.07c.7,1.28,1.4,2.56,2.1,3.84,18.14-2.73,36.28-5.46,57.9-8.72-10.33-18.33-18.88-33.5-29.28-51.96-11.44,21.17-21.08,39.01-30.72,56.84ZM31.82,434.63c-8.89,1.4-13.62,4.92-10.95,10.37,1.8,3.68,8.15,5.14,12.46,7.59,1.05-.97,2.1-1.94,3.16-2.92-1.52-4.9-3.04-9.8-4.66-15.04Z"/>
      <path d="M143.78,455.22c5.19,1.17,10.79.87,14.14,3.48,14.39,11.19,29.04,12.83,44.8,3.66,7.91-4.6,13.52-.26,17.57,5.5,3.74,5.31,3.09,11.69-3.58,14.48-20.12,8.43-40.37,13.98-60.48-.6-9.58-6.95-11.7-10.43-12.45-26.51Z"/>
      <path d="M224.31,431.53c-9.37.01-17.2-9.08-16.99-19.74.18-9.36,9.63-18.95,18.62-18.92,9.34.03,18.94,10.28,19.35,20.65.39,9.83-9.13,17.99-20.98,18.01Z"/>
      <path d="M149.44,409.5c-.13,10.02-8.89,19.38-17.95,19.17-9.63-.21-19.6-13.19-19.08-24.84.34-7.75,8.64-13.62,18.77-13.27,9.41.32,18.38,9.63,18.25,18.94Z"/>
    </g>
  </g>
</svg>