<?xml version="1.0" encoding="UTF-8"?>
<svg id="_레이어_2" data-name="레이어 2" xmlns="http://www.w3.org/2000/svg" viewBox="0 0 448.77 561.22">
  <g id="_레이어_1-2" data-name="레이어 1">
    <path d="M446.61,344.32c-6.76-41.52-33.29-67.58-73.48-80.57-2.19-23.42-4.54-47.61-6.69-71.81-1.63-18.34-7.33-34.19-24.63-43.72-9.14-5.03-18.05-10.48-27.85-16.2,4.44-16.69,5.69-33.16,19.13-47.31,14.84-15.61,10.45-49.29-4.65-64.28-8.21-8.15-20.5-9.53-23.24-1.54-6.18,18.05-18.99,33.89-14.23,55.84,2.83,13.04-1.24,27.7-3.03,41.52-.47,3.66-3.93,9.84-6.12,9.88-11.74.25-24.12.77-34.96-2.8-4.1-1.35-6.35-13.4-6.32-20.56.02-5.46,4.52-11.18,7.78-16.3,13.73-21.62,13.38-40.39-1.55-60.49-10.61-14.29-29.54-12.43-36.84,3.73-6.57,14.55-7.88,28.98-3.09,44.93,4.72,15.7,6.06,32.42,9.37,51.55-22.01,1.19-40.62,2.2-61.89,3.36-6.04-28.41-15.79-52.88-16.77-80.12-.52-14.64-8.28-29.3-14.36-43.25C121.62,2.56,114.08.03,109.27,0c-2.38-.02-5.1,6.63-7.12,10.54-2.2,4.26-3.63,8.93-5.66,13.29-8.74,18.74-6.18,38.15,7.98,50.63,18.97,16.72,17.6,37.82,23.25,58.88-13.69,4.92-25.34,9.45-37.22,13.29-17.7,5.72-27.55,18.37-33,35.39-1.9,5.95-3.08,12.68-6.73,17.4-6.21,8.01-3.57,14.75-1.66,23.36,5.54,24.99,9.08,50.42,13.4,75.63-11.35,3.51-20.21,5.68-28.63,8.97C12.91,315.56.41,331.9.08,353.65c-.86,56.97,4.86,113.26,20.64,168.47,6.15,21.52,18.71,32.5,39.73,34.17,44.73,3.55,89.4,8.07,134.4,1.81,27.05-3.76,54.41-5.53,81.68-7.49,44.33-3.19,87.47-11.29,129.05-27.53,15.74-6.15,25.7-15.31,28.16-32.86,3.7-26.38,10.16-52.43,12.79-78.89,2.21-22.17,3.62-45.21.07-67.01ZM371.74,287.84c12.62,1,19.12,8.16,27.07,17.77-11.28,3.37-20.17,6.03-32.67,9.77,2.2-10.79,3.77-18.54,5.61-27.54ZM412.56,333.01c-3.8,12.02-6.1,19.3-8.4,26.59-1.91.36-3.82.72-5.73,1.08-4.34-4.95-8.68-9.91-14.79-16.87,9.59-3.58,16.89-6.31,28.92-10.8ZM355.79,358.11c-.19,3.26.37,5.55-.52,6.85-5.6,8.21-9.19,4.5-14.49-4.69,6.7-.96,10.42-1.5,15.01-2.15ZM342,286.48c0,8.34,1.71,19.63-.47,30.11-2.3,11.02-12.4,16.6-23.07,18.96-16.42,3.62-32.91,7.29-49.56,9.43-43.09,5.54-86.27,10.34-129.45,15.22-6.22.7-12.7,1.1-18.83.15-14.26-2.22-21.19-10.02-23.68-24.69-2.21-13.02-4.6-26-7.49-42.27q25.01,12.78,51.95-12.97c7.64,5.33,14.86,13.71,23.4,15.39,8.44,1.66,18.2-3.45,28.55-5.86,27.92,26.52,33.89,26.02,59.07-8.96q31.71,20.14,46.39,3.04c14.51.82,27.79,1.58,43.19,2.45ZM284.86,376.94c-2.37,3.17-4.13,8-7.25,9.15-5.99,2.21-10.28-1.08-11.63-9.57,5.54-1.07,10.97-2.11,16.39-3.15.83,1.19,1.66,2.38,2.49,3.58ZM203.4,387.5c-4.35,5.54-8.69,11.07-14.76,18.8-4.77-6.5-8.06-10.97-13.35-18.18,11.92-1.9,18.95-3.02,25.99-4.14.71,1.17,1.41,2.35,2.12,3.52ZM130.62,391.45c-11.63,15.36-11.77,15.38-25.37,0h25.37ZM233.96,50.79c-1.8,6.64-3.02,11.13-5.09,18.79-5.97-9.95-6.52-14.95,5.09-18.79ZM135.61,166.85c1.7,6.93,2.96,14.43,5.45,21.49,2.05,5.8,4.64,12,8.79,16.26,2.74,2.82,9.53,4.52,12.93,3.06,3.21-1.37,6.29-7.65,6.06-11.58-.65-11.01-3.04-21.91-4.8-33.23,15.08-8.32,30.79-5.6,45.86-5.9,3.1-.06,7.09,5.48,9.28,9.25,2.76,4.75,3,11.25,6.38,15.28,3.13,3.73,9.56,7.79,13.43,6.9,3.7-.85,7.18-7.54,8.56-12.3,1.46-5.04.33-10.82.33-17.71h33.37c-1,8.94-3.56,15.14-1.73,19.52,2.46,5.9,7.4,12.96,12.89,14.86,7.81,2.71,12.21-4.94,14.46-11.85,1.68-5.16,2.25-10.68,3.25-15.73,18.54-.83,25.39,3.12,28.01,15.37,3.19,14.9-4.69,34.2-18.47,38.29-20.67,6.15-42.04,13.25-63.24,13.65-43.99.82-88.14-1.52-132.07-4.64-16.16-1.15-31.91-8.15-47.67-12.44,8.43-36.2,23.6-48.4,58.94-48.57ZM65.46,320.47c3.31,12.77,5.57,21.5,7.83,30.22-1.21.97-2.43,1.93-3.64,2.9-9.24-4.52-18.47-9.04-31.11-15.23,9.96-6.62,16.5-10.96,26.92-17.9ZM67.78,380.97c-6.13,7.04-10.13,11.63-14.13,16.22-1.88-.33-3.75-.65-5.63-.98-1.85-5.94-3.69-11.87-6.91-22.23,10.54,2.76,16.64,4.36,26.67,6.99ZM418.48,401.33c-3.5,24.25-7.68,48.4-11.18,72.65-1.72,11.93-8.43,17.87-19.5,21.95-31.04,11.45-62.22,20.96-95.66,23.01-52.44,3.21-104.74,8.72-157.19,11.77-21.59,1.25-43.41-1.27-65.11-2.25-12.52-.57-21.14-5.97-24.09-19.14-2.59-11.58-6.93-22.8-9.02-34.44-3.18-17.72-5.09-35.66-7.65-54.29q27.82,7.68,52.74-12.84c35.88,29.17,40.72,29.26,73.28.26,4.56,4.56,9.21,9.3,13.95,13.93,12.68,12.38,23.43,13.1,36.95,1.69,5.3-4.47,9.54-10.21,14.25-15.37,5.06-5.54,10.12-11.09,15.82-17.34,8.51,5.5,15.36,10.14,22.42,14.44,23.96,14.61,38.51,9.79,49.52-16.23,1.83-4.32,3.76-8.6,6.55-14.97,7.85,6.32,14.13,11.58,20.63,16.57,16.11,12.37,21.47,11.82,35.44-3.28,1.85-2,3.69-4.01,3.79-4.12,14.72,3.42,27.63,6.42,42.98,9.98.03.22,1.61,4.28,1.07,8.03Z"/>
  </g>
</svg>