<?xml version="1.0" encoding="UTF-8"?>
<svg id="_레이어_2" data-name="레이어 2" xmlns="http://www.w3.org/2000/svg" viewBox="0 0 1319.02 1048.9">
  <g id="_레이어_1-2" data-name="레이어 1">
    <g>
      <path d="M650.88,185.42c152.96-215.77,529.77-284.59,628.19,20.98.74,2.29-2.35,3.84-3.87,1.98-358.34-440.46-507.38,65.6-665.22-9.55C166.87-153.68-196.32,496.11,232.46,772.82c169.34,70.17,396.53,334.1,574.06,194.82,201.89-192.66,520.27-359.61,490.25-681.36-.1-1.1,1.47-1.47,1.84-.43,118.5,335.01-306.43,621.48-561.23,762.99-206.43,3.65-428.28-137.29-575.26-279.95-402.65-410.65,14.82-949.32,488.77-583.46Z"/>
      <path d="M303.06,543.16c271.45,202.11,474.5,145.3,747.9-19.13,9.39-5.65,20.02,4.88,14.73,14.47-136.68,247.67-646.67,266.76-778.51,18.1-5.31-10.01,6.81-20.21,15.89-13.44Z"/>
      <path d="M457.53,443.38c-21.61,13.6-36.79,8.9-56.35-8.38-24.94-22.05-20.29-64.61,10.31-77.72,12.68-5.43,25.18-3.85,40.21,3.48,33.1,16.15,37.01,63,5.83,82.62Z"/>
      <path d="M960.71,387.86l-1.08.99c-23.81,21.84-64.51,12.72-72.63-18.55-6.39-24.59,9.9-46.85,49.14-62.95,5.49-2.03,14.28,4.88,25.12,15.05,18.91,17.73,18.54,47.94-.56,65.46Z"/>
    </g>
  </g>
</svg>