<?xml version="1.0" encoding="UTF-8"?>
<svg id="_레이어_2" data-name="레이어 2" xmlns="http://www.w3.org/2000/svg" viewBox="0 0 320.87 467.56">
  <g id="_레이어_1-2" data-name="레이어 1">
    <g>
      <path d="M77.65,207.26c14.71,3.94,29.88,6.69,44.04,12.09,22.45,8.55,44.54,18.22,66.14,28.73,10.05,4.89,19.62,11.82,27.59,19.67,12.17,11.99,15.23,25.93,10.23,43.87-10.15,36.44-32.54,61.88-63.31,81.78-28.05,18.13-55.21,37.69-83.79,54.91-13.47,8.12-28.92,14.01-44.25,17.75C12.26,471.44.04,462.26,0,439.46c-.04-21.89,2.97-43.93,6.29-65.65,4.13-27.05,11.85-53.68,14.34-80.82,1.52-16.65,6.05-32.05,10.15-47.76,7.87-30.1,15.05-35.27,46.87-37.97ZM57,245.07c55.33,2.68,93.57,39.25,136.02,66.87,11.9-20.93,11.57-27.47-6.06-37.79-31.31-18.34-64.9-31.61-100.93-37.38-9.5-1.52-19.9-2.34-29.03,8.3ZM47.66,307.1c13.53,3.04,26.06,5.03,38.07,8.7,27.85,8.5,54.57,18.93,64.71,52.91,7.16-5.31,13.12-9.73,18.24-13.53-1.04-3.96-.99-5.58-1.77-6.45-3.1-3.47-6.31-6.87-9.73-10.02-25.88-23.78-53.35-44.61-89.66-49.7-16.19-2.27-17-1.89-19.86,18.09ZM118.06,389.32c-20.43-19.71-42.1-30.42-66.42-35.89-13.64-3.06-15.12-1.52-16.6,14.58,22.19,10.2,44.21,20.32,68.82,31.64,2.5-1.82,7.64-5.56,14.2-10.33ZM53.16,432.26c-7.19-11.5-14.35-16.62-27.49-14.28-.96,6.8-1.9,13.52-3.41,24.25,12.12-3.91,20.77-6.7,30.9-9.97Z"/>
      <path d="M187.95,201.97c-3.69-.38-9.08-.52-14.3-1.56-19.65-3.95-25.68-20.7-12.12-34.98,8.73-9.19,19.1-16.81,28.23-25.65,12.55-12.16,30.03-6.32,37.84,9.74,2.84,5.83,3.86,12.92,4.22,19.52,1.04,19.07-6.89,28.28-26.18,31.32-5.28.83-10.66,1-17.69,1.62Z"/>
      <path d="M113.99,152.82c-6.22-1.47-18.57-2.61-29.37-7.31-18.75-8.15-20.17-24.39-4.18-37.1,6.77-5.38,14.19-10.06,21.7-14.4,15.2-8.78,26.49-4.92,32.79,11.87,3.02,8.04,4.52,16.81,5.6,25.39,2.33,18.37-2.13,22.73-26.54,21.54Z"/>
      <path d="M320.87,116.68c-2.53,17.87-10.07,25.62-25.99,21.75-13.38-3.26-26.71-8.67-38.6-15.62-14.01-8.19-14.13-20.82-1.54-30.52,7.88-6.07,16.34-11.74,25.3-15.99,12.7-6.03,19.88-4.31,27.17,7.89,5.97,9.99,9.22,21.6,13.67,32.5ZM279.71,109.82c6.86.52,10.91,1.01,14.93.83.35-.02,1.61-5.43.54-6.66-4.69-5.35-9.02-3.46-15.46,5.83Z"/>
      <path d="M251.68,187.59c11.64-6.87,26.6-7.31,40.96-6.25,6.91.51,15.21,5.86,19.57,11.55,5.6,7.31-2.68,13.02-6.86,18.85-6.95,9.69-13.75,19.51-20.22,29.53-3.74,5.8-7.63,12.96-15.15,9.53-4.31-1.96-7.75-8.74-8.99-13.97-3.61-15.22-5.92-30.75-9.31-49.25Z"/>
      <path d="M220,21.15c-4.27,7.94-8.25,18.02-14.74,26.06-2.46,3.05-11.22,2.88-16.11,1.24-2.13-.72-3.24-9.2-2.21-13.54,1.83-7.71,5.91-14.85,8.54-22.41,1.76-5.05,2.41-11.95,9.42-10.36,4.53,1.03,8.53,5.55,12.08,9.18,1.63,1.67,1.62,4.95,3.03,9.83Z"/>
      <path d="M156.72,37.88c-.27,6.07-7.38,10.42-11.06,5.94-9.1-11.08-16.68-23.44-24.39-35.59-.85-1.33.74-5.81,2.39-6.75,2.43-1.38,6.32-1.96,8.88-1,7.49,2.82,24.51,29.95,24.18,37.4Z"/>
    </g>
  </g>
</svg>