<?xml version="1.0" encoding="UTF-8"?>
<svg id="_레이어_2" data-name="레이어 2" xmlns="http://www.w3.org/2000/svg" viewBox="0 0 306.67 445.67">
  <g id="_레이어_1-2" data-name="레이어 1">
    <g>
      <path d="M111.63,444.98c-16.32,0-38.33.64-60.28-.19-20.62-.78-32.88-12.5-36.87-32.69C3.72,357.63-2,302.75.64,247.13c.58-12.2-.18-24.45.23-36.66,1.2-35.92,3.7-71.36,33.93-97.38,4.04-3.48,6.57-9.23,8.63-14.39C61.97,52.27,102.05,28.06,141.61,3.39c9.17-5.72,18.51-3.45,27.89,1.26,21.98,11.04,36.26,29.6,50.57,48.63,10.65,14.16,21.7,28.58,35.07,39.96,16.22,13.81,23.04,33.39,35.58,49.02,17.04,21.25,17.06,44.03,15.05,69-3.46,42.98-4.96,86.11-7.16,129.18-.41,8.13.13,16.32-.42,24.44-2.03,30.09-15.92,46.81-44.58,57.33-44.09,16.19-89.08,26.25-142,22.74ZM33.87,186.42c-.92,4.45-2.1,7.55-2.12,10.66-.11,31.76-1.39,63.59.38,95.25,1.9,34.1,5.89,68.16,10.57,102.01,2.63,19.03,6.88,21.7,25.86,21.8,23.64.13,47.28-1.16,70.92-1.1,34.11.08,65.74-9.92,97.18-21.75,20.17-7.59,29.22-20.82,29.24-42.6.03-33.37,1.7-66.76,3.18-100.11.86-19.36,2.71-38.67,4.36-61.4-32.32-2.47-62.88-5.77-93.51-6.76-17.8-.58-35.7,3.4-53.59,3.81-30.66.69-61.36.19-92.47.19ZM33.03,149.31c.98,2.54,1.97,5.08,2.95,7.62,11.84.9,23.69,2.71,35.52,2.56,60.81-.75,121.7-12.77,182.45,1.63,3.83.91,8.6-2.13,17.03-4.48-11.22-15.28-18.36-31.17-30.56-40.27-22.09-16.46-39.22-36.28-54.55-58.6-6.61-9.63-15.6-17.61-25.28-28.31-42.69,43.38-92.13,74.21-127.55,119.84Z"/>
      <path d="M67.69,273.24c1.89-14.34,2.13-29.16,6.07-42.92,5.06-17.66,14.54-23.09,31.29-17.34,17.82,6.12,35.01,5.9,52.97,3,16.41-2.65,31.6,1.13,41.22,15.3,4.54,6.69,7.83,16.48,6.84,24.25-3,23.35-8.2,46.43-12.95,69.53-1.47,7.14-3.71,14.23-6.53,20.94-4.77,11.34-13.05,19.08-26.01,18.88-19.48-.31-39.09-.27-58.39-2.57-15.56-1.86-25.04-13.98-26.84-30.29-2.15-19.44-3.79-38.94-5.65-58.42-.67-.12-1.35-.24-2.02-.36ZM147.53,268.76c11.41-.59,22.05,2.15,25.85-10.3,1.22-4,.77-10.78-1.82-13.26-8.83-8.46-18.64-5.86-29.65.73,1.72,6.97,3.37,13.67,5.62,22.82ZM117.42,331.96c4.67-25.74,3.42-30.25-9.9-35.89-6.31,24.62-5.09,29.02,9.9,35.89ZM159.14,295.81c-13.13,10.2-9.92,23.28-8.48,41.92,11.39-15.97,13.17-28.2,8.48-41.92ZM114.73,239.26c-6.7,3.09-13.54,4.07-14.76,7.23-3.12,8.04-2.85,16.79,5.98,23.62,12.49-7.16,8.53-17.58,8.78-30.85Z"/>
    </g>
  </g>
</svg>