<?xml version="1.0" encoding="UTF-8"?>
<svg id="_레이어_2" data-name="레이어 2" xmlns="http://www.w3.org/2000/svg" viewBox="0 0 318.54 502.4">
  <g id="_레이어_1-2" data-name="레이어 1">
    <g>
      <path d="M125.27,182.09c-.68-7.47-.9-12.12-1.55-16.72-4.1-29.05-6.36-57.86-.39-87.2,3.44-16.9,2.74-34.64,4-52,1.57-21.66,10.3-29.94,30.69-24.61,39.83,10.42,70.71,34.78,94.5,67.84,6.62,9.2,2.21,19.79-11,23.86-22.57,6.96-45.85,11.66-68.87,17.1-3.02.71-6.33.05-9.48.36-17.69,1.73-20.31,4.54-19.31,22.43.49,8.68,1.69,17.36,3.22,25.92,2.82,15.73,6.42,20.47,22.25,16.78,38.58-8.99,75.54,4.1,113.28,5.45,20.89.74,30.65,10.57,31.71,31.52,2.44,48.1,8.35,96.15-.44,144.47-4.8,26.39-5.36,53.54-7.77,80.36-.28,3.15.08,6.36-.26,9.5-4.12,37.8-6.89,38.27-43.57,42.57-30.59,3.59-61.55,4.06-92.35,5.93-33.98,2.07-67.96,4.03-101.93,6.28-31.6,2.09-39.37-2.15-50.21-31.13-8.33-22.28-14.54-45-14.23-69.36.28-21.34-1.3-42.74-2.8-64.06-2.57-36.72,1.15-72.51,11.42-107.98,5.69-19.68,18.6-31.23,36.29-37.53,20.11-7.16,40.95-12.29,62.82-9.16,3.68.52,7.54-.3,13.96-.63ZM271.1,457.33c1.47-5.91,2.87-9.63,3.27-13.46,3.79-36.16,6.85-72.41,11.22-108.5,4.6-37.97-.07-75.73-.83-113.57-.14-6.94-2.14-12.95-9.91-13.9-21.16-2.59-42.42-6.92-63.57-6.52-39.44.74-78.88,3.85-118.22,7.05-11.64.95-22.94,5.72-34.49,8.35-15.52,3.54-22.77,15.03-24.17,28.92-2.68,26.61-4.49,53.43-4.46,80.16.02,27.65,2.09,55.33,4.36,82.91,1.16,14.06,3.65,28.22,7.44,41.81,5.51,19.77,7.57,20.73,28.74,19.44,66.23-4.06,132.44-8.35,200.63-12.68ZM146.48,80.93c27.22,1.53,49.52-2.76,74.23-11.67-20.42-21.05-39.83-36.56-68.37-41.3-2.04,18.41-3.81,34.47-5.86,52.97Z"/>
      <path d="M136.49,360.71c48.91-18.05,52.85-12.67,68.26,5.27,27.35-27.23,29.12-27.75,57.67-15.06,0,11.34-.31,23.79.08,36.22.46,14.56-2.47,27.45-18.3,31.73-15.01,4.06-31.4,10.65-40.97-8.27-10.41,6.62-19.43,14.67-29.99,18.59-21.12,7.83-35.87-2.89-36.64-25.18-.51-14.62-.1-29.27-.1-43.31ZM164.21,404.26c10.83-10.21,10.25-17.79,4.89-27.89-11,7.68-8.99,15.65-4.89,27.89ZM228.93,390.1c1.8.1,3.6.19,5.4.29v-11.93c-1.24-.05-2.47-.11-3.71-.16-.56,3.93-1.13,7.87-1.69,11.8Z"/>
      <path d="M98.87,363.18c11.1-.53,19.85,5.45,21.42,15.11,2.76,17,22.38,31.53,8.31,50.87-2.08,2.86-6.28,4.68-9.86,5.84-9.76,3.15-19.69,5.81-29.62,8.44-12.92,3.42-23.42.61-27.63-11.24-5.48-15.4-8.74-31.87-10.66-48.15-1.11-9.37,4.58-15.32,16.25-15.34,10.6-.01,21.2-3.55,31.79-5.54ZM108.27,401.11c-7.6-5.55-11.45-10.64-15.46-10.78-6.67-.23-12.17,4.6-10.21,12.21.9,3.48,5.97,8.86,8.15,8.43,5.05-1.01,9.49-5.05,17.52-9.86Z"/>
      <path d="M38.77,276.12c-.42-22.7,4.31-28.9,24.89-31.8,22.18-3.12,37.9,5.8,41.35,24.24,1.88,10.03,3.02,20.28,3.45,30.48.89,21.36-8.92,31.29-32.57,34.08-15.96,1.88-29.83-8.78-33.33-26.58-1.97-10-2.57-20.27-3.79-30.41ZM77.01,268.12c-14.41,12.44-14.54,16.99-2.37,34.25,11.89-9.74,12-10.87,2.37-34.25Z"/>
      <path d="M279.38,279.91c.66,26.22-6.48,34.97-31.04,38.05-22.63,2.84-32.22-4.83-33.61-28.05-.7-11.77-.96-23.74.4-35.41,1.74-15,8.81-20.15,23.98-20.23,32.32-.19,39.31,7.73,40.27,45.64ZM254.08,280.39c-4.13-3.32-6.77-5.45-9.41-7.58-2.56,3.35-6.22,6.43-7.2,10.19-.45,1.73,4.37,4.82,6.8,7.3,2.89-2.92,5.78-5.83,9.81-9.91Z"/>
      <path d="M177.96,230.59c11.01.23,17.39,5.03,18.71,16.72,1.4,12.42,3.94,24.72,6.18,37.04,3.39,18.68-1.3,26.36-19.24,31.05-33.7,8.8-39.14,5.15-44.74-30.07-.49-3.11-.96-6.22-1.4-9.33-4.09-28.94,11-45.86,40.49-45.41ZM183,287.16c-1.68-9.63-3.34-19.1-5.03-28.79-17.77,5.34-22.4,12.98-16.69,26.41,4.98,11.73,12.63,7.79,21.72,2.39Z"/>
    </g>
  </g>
</svg>