<?xml version="1.0" encoding="UTF-8"?>
<svg id="_레이어_2" data-name="레이어 2" xmlns="http://www.w3.org/2000/svg" viewBox="0 0 509.14 349.41">
  <g id="_레이어_1-2" data-name="레이어 1">
    <g>
      <path d="M415.69,139.72c13.5.84,26.49,2.52,39.44,2.3,36.32-.63,54.49,9.6,54,48.03-.31,24.79.38,49.66-1.42,74.35-2.01,27.64-11.6,37.75-39.12,41.61-12.26,1.72-21.07,6.38-29.45,14.98-15.39,15.79-35.2,23.4-56.56,27.42-17.33,3.26-31.6-1.28-41.98-16.05-7.1-10.1-14.15-20.23-21.44-30.66h-80.59c-13.3,34.22-45.59,37.15-74.33,44.36-8.69,2.18-21.37-2.34-29.14-8-10.92-7.95-21.65-9.51-34.4-10.25-21.05-1.22-42.6-2.92-62.73-8.66-24.7-7.04-36.99-26.25-37.24-52.37-.18-18.64.19-37.31-.66-55.92-.88-19.36,7.34-32.47,24.88-39.76,11.46-4.76,23.02-9.56,34.94-12.91,14.2-4,19.78-13.18,20.95-27.06,1.71-20.33,3.6-40.68,6.45-60.87C95.19,14.23,114.69,11.87,158.84,4.03c16.35-2.9,33.52-.78,50.11-2.75,36.76-4.36,72.1,3.25,107.6,10.6,19.12,3.96,38.36,7.38,57.49,11.27,19.26,3.92,32.64,14.19,34.45,35.03,1.83,21.12,2.79,42.32,4.34,63.47.38,5.15,1.59,10.23,2.86,18.07ZM369.79,55.7c-23.78-4.5-44.61-8.43-65.44-12.38-18.2-3.46-36.29-9.11-54.6-9.9-27.2-1.18-54.82-1.08-81.76,2.37-34.89,4.47-46.87,12.44-49,47.24-1.51,24.73-6.4,49.24-8.27,73.96-1.11,14.74-8.13,22.06-21.41,26.62-18.29,6.28-36.12,13.91-55.19,21.38,0,9.27-.24,17.15.04,25.01,1.87,53.13-11.85,55.93,57.87,63.2,12.52,1.31,20.07-2.54,26.18-13.02,5.78-9.92,11.81-20.05,19.58-28.37,24.66-26.41,78.96-27.97,94.08.1,10.57,19.61,23.67,20.72,40.63,20.04,12.41-.5,24.97-.77,37.11-3.04,7.25-1.36,15.08-5.02,20.47-10,33.4-30.9,81.12-27.32,107.99,9.53,5.56,7.62,10.59,10.9,19.73,8.47,8.9-2.37,13.91-7.32,13.86-16.75-.14-25.67-.14-51.35-.66-77.02-.06-3.02-3.05-5.97-5.33-10.14-16.95,0-33.77.51-50.53-.13-22.17-.84-34.32-11.21-38.54-32.67-1.87-9.49-2.4-19.28-3.13-28.96-1.32-17.58-2.34-35.18-3.67-55.53ZM377.76,317.17c17.42.22,33.81-8.91,34.15-19.03.44-13.13-17.44-28.27-33.4-28.27-14.61,0-24.05,8.37-24.65,21.85-.65,14.65,9.32,25.27,23.89,25.45ZM146.85,307.86c31.07,4.48,48.11-3.1,54.05-23.4,1.53-5.24,1.72-14.91-1.01-16.5-5.08-2.97-13.67-3.74-19.18-1.49-17.38,7.1-26.75,21.83-33.86,41.39Z"/>
      <path d="M239.39,195.35c-35.14-.06-47.53-11.51-49.99-43.88-.74-9.67-.5-19.42-1.39-29.06-1.62-17.64-.3-21.45,16.08-23.04,20.02-1.95,40.63-3.82,60.37-1.17,27.38,3.68,37.89,21.61,33.09,48.85-6.36,36.13-10.8,41.38-39.97,46.25-6.96,1.16-14.04,1.6-18.19,2.05ZM261.97,127.83c-10.14.82-20.33.48-29.93,2.69-12.85,2.97-12.35,13.98-10.12,23.71,2.22,9.7,10.64,10.75,19.09,9.89,16.22-1.65,21.39-9.7,20.96-36.3Z"/>
    </g>
  </g>
</svg>