<?xml version="1.0" encoding="UTF-8"?>
<svg id="_레이어_2" data-name="레이어 2" xmlns="http://www.w3.org/2000/svg" viewBox="0 0 489.23 405.61">
  <g id="_레이어_1-2" data-name="레이어 1">
    <g>
      <path d="M415.1,323.27c.43,48.19-26.24,78.18-67.33,78.93-45.26.82-66.17-21.03-69.08-73.47-15.37-7.61-31.25-5.65-47.71-.47-1.06,2.07-2.78,4.21-3.29,6.61-12.3,57.85-59.15,84.24-113.79,63.98-24.61-9.12-33.93-23.17-33.16-49.77.15-5.05.02-10.11.02-16.36-12.37-1.12-24.41-1.15-36.01-3.45-36.16-7.17-51.16-26.23-42.23-61.23,7.22-28.34,19.36-55.91,32.82-82.02,10.61-20.58,30.13-35.45,53.03-39.7,21.13-3.92,26.79-16.8,29.41-34.06,3.2-21.03,11.36-39.71,22.1-58.11C160.53,18.75,193.73,4.86,231.16,1.38c27.55-2.57,56.13-1.52,83.42,2.98,20.88,3.44,41.1,13.53,60.27,23.3,7.26,3.7,12.9,14.12,15.56,22.64,8.01,25.6,14.91,51.62,20.77,77.8,2.7,12.04,8.65,18.3,20.18,20.6,36.25,7.23,52.1,31.98,56.22,66.34,2.61,21.72,2.68,43.02-4.14,64.59-6.88,21.76-20.59,33.54-41.95,38.13-8.37,1.8-16.77,3.5-26.41,5.5ZM230.29,288.87c0-.22,0-.45,0-.68,7.83,0,15.66-.03,23.49,0,48.82.24,97.67,1.47,146.47.47,42.72-.88,51.56-11.1,52.11-53.69.09-6.96-.19-13.98-1-20.89-2.64-22.45-13.17-37.36-37.61-39.42-14.87-1.25-23.38-9.74-26.52-24.56-4.31-20.4-8.96-40.76-14.41-60.87-8.23-30.36-8.21-49.11-54.94-56.21-24.87-3.78-50.31-3.77-75.48-5.6-38.41-2.79-66.02,14.77-82.7,47.78-8.46,16.74-12.54,35.98-16.71,54.51-5.6,24.87-18.85,39.89-44.66,44.92-10.53,2.05-22.37,7.13-29.56,14.68-21.8,22.9-30.49,52.57-34.97,83.03-2.29,15.59,5.57,22.93,21.31,22.47,58.4-1.72,116.79-3.92,175.18-5.93ZM119.87,328.89c-9.38,23.32-8.47,29.98,4.29,37.34,26.85,15.49,61.09-3.44,64.32-37.34h-68.6ZM377.01,326.29c-17.84-.67-35.63-2.05-53.37-1.48-4.29.14-11.01,6.09-12.09,10.48-3.99,16.28,10.94,33.56,27.58,33.62,23.07.08,36.22-13.52,37.87-42.62Z"/>
      <path d="M259.44,193.82c-12.97,0-26,.78-38.89-.21-14.8-1.14-22.46-9.47-25.83-24.75-7.14-32.3,7.58-67.47,43.36-82.43,39.98-16.71,69.03-10.79,94.34,22.49,13.43,17.66,10.29,35.87,3.08,54.32-6.99,17.89-20.77,27.65-39.6,29.23-12.07,1.02-24.3.19-36.45.19,0,.39,0,.77.01,1.16ZM223.89,154.17c23.14,9.58,45.75,8.16,67.67,3.95,5.92-1.14,12.47-11.88,13.97-19.19,1.22-5.96-2.75-15.91-7.75-19.66-15.25-11.44-33.8-14.93-51.62-8.1-17.21,6.6-23.58,21.82-22.26,42.99Z"/>
    </g>
  </g>
</svg>