<?xml version="1.0" encoding="UTF-8"?>
<svg id="_레이어_2" data-name="레이어 2" xmlns="http://www.w3.org/2000/svg" viewBox="0 0 491 349.57">
  <g id="_레이어_1-2" data-name="레이어 1">
    <g>
      <path d="M291.4,348.31c-51.89,5.85-99.38-9.43-146.11-29.75-15.74-6.84-32.79-11.72-49.73-14.33-9.74-1.51-20.72,2.49-30.67,5.54-8.58,2.63-16.17,8.86-24.81,10.88-8.12,1.89-20.67,3.79-24.73-.5-5.58-5.9-7.67-17.99-6.47-26.77,1.99-14.57,6.99-28.91,12.23-42.78,3.88-10.25,3.74-18.13-2.99-27.47-19.83-27.49-23.71-57.56-10.05-88.97C41.49,57.33,95.3,7.95,182.87,1.5c55.86-4.11,110.58.09,164.67,14.08,31.37,8.12,57.16,25.79,79.48,48.41,24.01,24.32,44.35,50.79,49.07,86.7,2.24,17.03,9.03,33.42,13.03,50.27,3.96,16.69,1.64,32.83-7.02,47.79-34.29,59.19-85.13,93.08-153.54,99.4-12.29,1.13-24.77.16-37.16.16ZM67.89,267.87c37.37,1.03,70.44,11.72,102.5,24.47,43.94,17.46,88.66,24.28,135.81,20.89,55.77-4.01,101.94-23.8,135.65-70.34,10.77-14.87,13.88-29.39,9.97-46.35-3.9-16.89-7.77-33.79-12.09-50.58-12.43-48.26-43.44-79.98-90.97-91.81-56.34-14.02-113.78-17.51-172.1-10.82-72.87,8.35-111.63,54.3-136.74,117.01-5.84,14.59-5.32,29.39,5.96,41.85,16.41,18.15,22.11,39.96,22.02,65.67Z"/>
      <path d="M362.88,157.23c0-6.6-.11-13.2.03-19.79.16-7.75,1.08-15.63,10.78-16.74,10.5-1.21,17.74,4.02,19.94,14.32,1.54,7.22,1.85,14.78,2.02,22.2.3,13.17,1.44,26.53-.27,39.48-2.53,19.11-12.32,33.8-31.51,40.95-21.51,8.02-37.35,2.52-47.05-18.37-12.12-26.09-15.87-53.63-11.72-82.22,1.14-7.82,2.94-15.54,12.29-15.84,10.32-.33,14.46,7.82,15.32,16.35,1.42,13.94.35,28.17,2.25,42.02,1.35,9.81.45,25.07,15.38,23.88,11.5-.91,12.22-13.97,12.87-23.93.48-7.4.09-14.86.09-22.29-.14,0-.29,0-.43,0Z"/>
      <path d="M110.75,210.31c0-15.3-.62-28.5.17-41.62.8-13.15,2.73-24.33-11.98-33.69-12.19-7.75-7.45-21.72,7.06-24.93,9.59-2.12,19.54-2.88,29.38-3.48,12.15-.74,20.51,4.31,23.21,18.69-16.16,7.76-18.36,22.29-17.57,38.61.72,14.75.15,29.56.15,45.38,5.27,3.74,11.97,7.22,16.98,12.35,8.66,8.87,6.78,21.06-4.74,23.28-15.89,3.06-32.65,3.49-48.8,2.17-4.97-.41-11.54-9.71-12.91-15.92-.96-4.34,5.27-10.68,9.09-15.49,1.8-2.27,5.49-3.05,9.96-5.35Z"/>
      <path d="M227.5,152.83c3.11-2.56,6.41-4.92,9.28-7.73,7.9-7.75,16.9-6.7,24.94-1.68,8.11,5.06,7.74,13.65,5.44,22.19-2.79,10.34-5.02,20.83-7.84,31.15-3.05,11.16-9.85,19.13-21.52,21.5-11.92,2.42-20.84-2.86-27.27-12.65-5.88-8.95-12.42-17.63-16.98-27.23-2.99-6.29-4.62-14.16-3.97-21.05,1.32-14.04,9.38-18.51,22.34-13.44,5.27,2.06,9.95,5.65,15.58,8.94Z"/>
    </g>
  </g>
</svg>