<?xml version="1.0" encoding="UTF-8"?>
<svg id="_레이어_2" data-name="레이어 2" xmlns="http://www.w3.org/2000/svg" viewBox="0 0 516.81 299">
  <g id="_레이어_1-2" data-name="레이어 1">
    <g>
      <path d="M303.42,298.56c-49.59-6.04-99.29-11.35-148.72-18.51-18.57-2.69-37.19-8.05-54.54-15.22-13.4-5.54-25.51-8.06-39.43-3.94-12.31,3.64-25.07,5.77-37.47,9.14-8.41,2.29-18.31,5-22.05-4.21-2.6-6.42-.7-16.35,2.57-23.08,5.24-10.78,12.33-21.04,20.34-30.02,11.45-12.83,7.78-24.26.27-36.81-12.52-20.92-15.8-43.35-12.55-67.7,4.23-31.63,21.74-53.24,48.69-66.9C120.49,10.92,184.43-2.23,251.74.31c29.48,1.11,59.26-1.62,88.5,1.36,69.36,7.05,126.16,36.03,160.22,100.35,22.64,42.76,20.35,86.12,1.92,129.26-12.03,28.16-34.12,45.8-63.37,54.52-44.34,13.21-89.61,14.06-135.59,12.77ZM42,230.44c7.79,0,11.54.5,15.12-.08,17.78-2.91,34.63-.59,50.92,7.29,5.39,2.61,11.46,3.92,17.3,5.5,53.07,14.29,107.4,18.45,162.05,20.05,37.83,1.11,75.45,4.86,113.45-1.59,60.22-10.23,77.45-37.01,81.96-91.23.13-1.51.11-3.03.2-4.55,2.5-42.58-14.78-75.14-50.79-97.32-35.56-21.9-74.4-33.63-116.38-33.85-21.21-.11-42.43.44-63.65.26-59.04-.5-115.59,8.77-169.38,35.37-25.48,12.6-40.23,29.35-39.19,57.44.4,10.8,3.93,22.26,8.89,31.96,10.35,20.24,11,38.95-2.86,57.54-2.15,2.88-3.65,6.24-7.63,13.2Z"/>
      <path d="M188.67,161.88c-.52-29.55,17.36-51.36,42.47-51.82,27.16-.5,45.73,18.44,46.73,47.67.86,25.23-19.99,47.15-45.05,47.35-28.53.23-43.65-14.57-44.16-43.2ZM232.5,139.05c-10.33.15-17.34,8.07-17.15,19.4.15,9.18,7.98,16.44,17.56,16.28,9.01-.14,16.91-8.86,16.2-17.86-.8-10.08-8.13-17.95-16.61-17.83Z"/>
      <path d="M394.12,138.07c8.1,6.17,20.79,3.08,22.54,16.57,2.24,17.37-18.09,11.69-26.28,23.79,9.08,0,15.65-1.11,21.57.36,4.47,1.11,10.33,4.82,11.51,8.63,1.14,3.68-1.6,11.1-4.94,13.19-22.2,13.9-46.58,15.12-54.13-13.91-4.05-15.58-3.91-33.17-1.55-49.25,2.76-18.82,30.76-32.94,48.43-26.43,3.44,1.27,6.76,5.96,7.74,9.7.68,2.61-1.89,7.79-4.45,9.2-6.38,3.51-13.58,5.53-20.45,8.15Z"/>
      <path d="M317.01,149.26c9.63-6.08,9.19-14.68,11.63-22.3,1.55-4.87,7.94-12.57,10.27-11.94,5.72,1.53,12.8,6.12,14.98,11.31,8.09,19.27-12.7,58.26-32.7,63.57-12.16,3.23-25.47-5.13-30.89-20.61-4.49-12.82-8.18-25.97-11.23-39.21-1.01-4.37-.34-12.47,2.03-13.56,4.71-2.18,12.07-2.54,16.57-.22,4.81,2.47,8.18,8.56,11.1,13.69,3.21,5.63,5.19,11.95,8.26,19.29Z"/>
      <path d="M137.35,154.84c15.21,1.45,32.93-2.3,35.42,19.33-17.85,19.17-51.3,20.58-68.39,3.05-6.63-6.8-7.04-14.25-4.45-22.97,4.29-14.46,7.99-29.1,11.62-43.74,2.07-8.37,3.95-16.91,15.15-15.9,9.42.85,16.56,10.51,15.81,21.47-.56,8.23-2.4,16.37-3.56,24.56-.61,4.31-.98,8.65-1.6,14.19Z"/>
    </g>
  </g>
</svg>