<?xml version="1.0" encoding="UTF-8"?>
<svg id="_레이어_2" data-name="레이어 2" xmlns="http://www.w3.org/2000/svg" viewBox="0 0 552.82 340.14">
  <g id="_레이어_1-2" data-name="레이어 1">
    <g>
      <path d="M293.53,340.13c-67.36.36-129.29-17.12-184.45-56.61-3.44-2.46-7.16-4.56-10.39-7.26-23-19.23-48.91-27.01-78.55-20.14-8.99,2.09-15.19-.98-18.54-9.44-3.26-8.23-1.71-15.36,6.16-20.13,41.91-25.4,64.06-66.43,84.25-108.43,15.64-32.52,41.44-54.97,69.71-74.78C228.64-3.52,302.9-7.59,380.18,8.61c34.61,7.25,69.1,15.6,98.19,36.57,32.48,23.41,56.53,52.74,69.67,92.51,18.4,55.67-18.72,132.07-71.35,159.09-51.98,26.68-107.24,36.86-164.22,42.09-6.3.58-12.63.85-18.94,1.26ZM65.08,219.33c27.63,16.73,53.2,32.66,79.23,47.8,17.58,10.23,34.88,22.24,53.95,28.29,30.83,9.79,63.35,12.68,95.85,13.06,45.69.53,89.63-10.55,132.3-24.48,49.94-16.3,84.43-49.89,94.87-103.68,1.42-7.33,1.63-15.26.58-22.66-7.24-50.83-40.28-80.5-84.85-98.81-18.67-7.67-39.08-11.41-58.95-15.79-66.71-14.68-131.07-13.44-190.35,26.97-30.9,21.07-56.73,46.14-72.66,80.27-9.01,19.31-19.22,37.5-35.19,52.1-5.59,5.11-10.05,11.45-14.77,16.92Z"/>
      <path d="M277.8,122.63c.96-1.07,4.21-4.65,7.39-8.3,21.37-24.54,55.3-24.59,81.88-5.11,8.25,6.05,13.54,14.49,13.42,25.15-.51,47.51-15.54,88.3-55.96,116.49-21.59,15.05-54.41,21.16-79.49-3.04-12.63-12.18-26.32-23.36-38.04-36.34-12.24-13.56-16.61-30.98-16.25-48.97.47-23.35,14.75-39.85,38.88-42.4,14.87-1.57,30.22,1.41,48.17,2.52ZM351,139.94c.22-12.8-11.2-20.65-25.38-14.63-2.56,1.09-5.1,2.53-7.19,4.34-8.05,6.95-15.42,14.3-16.67,25.84-.6,5.54-1.71,11.18-3.63,16.4-4.28,11.61-14.37,13.13-22.2,3.17-8.67-11.02-16.13-22.98-29.88-28.85-9.01-3.85-16.59-1.16-23.62,4-7.39,5.43-7.46,13.69-4.79,21.06,2.56,7.05,6.39,14.18,11.41,19.7,10.38,11.41,21.61,22.09,33.05,32.47,15.29,13.86,26.01,14.24,43.66,3.39,31.46-19.34,39.77-50.98,45.25-86.88Z"/>
    </g>
  </g>
</svg>