<?xml version="1.0" encoding="UTF-8"?>
<svg id="_레이어_2" data-name="레이어 2" xmlns="http://www.w3.org/2000/svg" viewBox="0 0 512.92 346.02">
  <g id="_레이어_1-2" data-name="레이어 1">
    <g>
      <path d="M229.72,343.04c-1.7,0-3.46-.29-5.1.04-42.08,8.46-80.98-4.38-119.07-19.24-18.52-7.23-34.4-6.66-50.47,4.54-4.14,2.88-9.01,4.78-13.68,6.82-9.07,3.97-17.9,5.64-25.66-2.98-7.41-8.23-6.94-16.85-1.79-25.81,4.24-7.38,8.41-14.81,13.03-21.95,9.75-15.05,10.67-28.02-1.37-43.94C-.71,205.77-6.12,165.9,6.53,124.4c3.29-10.8,9.69-21.86,17.63-29.83,27.39-27.49,61.46-45.15,96.23-61.52,100.32-47.25,200.22-43.12,296.87,7.9,79.29,41.86,111.59,122.48,88.23,205.08-8.3,29.36-27.06,49.56-55.51,62.47-40.33,18.31-83.54,22.87-126.26,29.32-30.96,4.67-62.49,5.61-93.76,8.21-.08-.99-.16-1.98-.24-2.98ZM67.14,280.23c15.13,4.08,28.84,7.99,42.65,11.47,27.16,6.83,54.12,17.59,81.63,19.29,67.43,4.17,134.36-4.31,200.02-19.98,18.72-4.47,37.05-12.9,53.73-22.64,9.46-5.53,18.28-16.26,22.15-26.6,25.49-68.28,1.23-129.46-58.4-165.31-64.17-38.58-136.03-43.91-207.75-27.98-47.29,10.5-91.57,31.33-130.68,61.6-26.94,20.85-38.86,50.06-28.12,82.46,4.92,14.84,14.2,28.8,23.86,41.34,8.82,11.45,12.85,21.54,4.94,34.65-2.02,3.34-2.62,7.53-4,11.72Z"/>
      <path d="M258.4,140.73c8.25-7.25,14.65-13.99,22.15-19.14,7.58-5.21,16.11-10.52,25.45-2.72,9.61,8.03,21.62,14.6,18.34,30.48-6.99,33.81-24.46,60.99-51.82,81.85-9.22,7.04-20.66,7.54-28.45.61-21.95-19.53-44.6-39.09-48.26-71.47-1.83-16.2-.57-30.89,14.92-39.91,11.37-6.62,25.07-1.62,40.11,13.18,1.79,1.76,3.66,3.46,7.55,7.12Z"/>
    </g>
  </g>
</svg>