<?xml version="1.0" encoding="UTF-8"?>
<svg id="_레이어_2" data-name="레이어 2" xmlns="http://www.w3.org/2000/svg" viewBox="0 0 1006.7 741.81">
  <g id="_레이어_1-2" data-name="레이어 1">
    <path d="M3.82,449.25c5.68-5.67,15.84-6.26,22.38-1.28,50.89,38.74,103.06,76.4,151.57,117.13,126.92,106.57,333.91,135.21,490.28,60.22,95.14-45.63,184.15-100.19,277.75-148.22,2.68-1.37,5.64-2.35,8.83-3.02,27.54-5.84,53.75,13.02,51.99,36.79-.54,7.35-2.33,13.68-6.98,17.65-150.75,128.68-315.21,236.18-549.84,209.09C240.37,713.42,95.49,616.2,1.73,463.79c-2.88-4.67-2.11-10.35,1.92-14.37l.17-.17Z"/>
    <path d="M76.88,43.9c4.31-4.64,8.51-9.16,12.62-13.58C127.81-10.93,195.96-7.04,226.37,40.34c5.6,8.73,9.17,17.54,9.55,26.5,2.56,60.26-16.76,137.71-102.57,132.27-16.61-1.05-32.52-13.12-51.61-30.61-35.91-32.91-38.02-88.89-4.86-124.58Z"/>
    <path d="M837.39,153.26c-.39.49-.77.97-1.16,1.45-38.85,48.75-116.58,39.45-140.98-17.91-2.27-5.33-4.04-10.77-5.21-16.33-11.93-56.86-6.81-134.13,85.28-118.41,19.64,3.35,36.97,20.22,57.68,42.37,28.22,30.19,30.16,76.51,4.4,108.83Z"/>
    <path d="M497.63,48.57c.6,133.68,1.19,267.36,1.79,401.04.05,10.54-7.11,19.75-17.34,22.31h0c-10.91,2.73-22.15-2.89-26.61-13.21-11.4-26.4-25.92-53.07-23.79-78.33,9.53-112.92-26.31-233.12,20.01-340.87,3.91-9.11,13.22-14.69,23.09-13.81.66.06,1.32.12,1.98.18,11.77,1.05,20.81,10.88,20.86,22.7Z"/>
  </g>
</svg>