<?xml version="1.0" encoding="UTF-8"?>
<svg id="_레이어_2" data-name="레이어 2" xmlns="http://www.w3.org/2000/svg" viewBox="0 0 492.13 374.56">
  <g id="_레이어_1-2" data-name="레이어 1">
    <g>
      <path d="M209.7.59c69.98,2.01,124.13,13.83,177.14,32.94,30.11,10.85,55.11,27.7,76.08,51.44,15.42,17.46,23.09,37.73,26.74,60.68,5.1,32.1,1.91,63.25-5.66,94.35-6.65,27.31-24.05,47.18-47.21,60.88-56.76,33.6-119.15,46.85-184.66,46.79-34.47-.03-68-5.14-99.62-19.69-9.18-4.22-18.32-4.09-26.62,1.48-10.89,7.32-21.38,15.24-31.8,23.23-5.53,4.24-10.51,9.18-15.77,13.77-7.45,6.51-16.06,11.08-25.41,5.79-9.92-5.6-11.94-15.29-9.39-26.27,9.4-40.36.53-78.19-16.41-114.83-2.93-6.33-5.26-13.09-9.07-18.85C-15.07,162.32,1.83,117.6,33.02,75.05c15.79-21.54,36.39-37.48,61.79-47.65C136.19,10.83,177.84-3.07,209.7.59ZM74.89,320.1c6.64-2.07,9.33-2.13,10.85-3.5,28.49-25.73,59.67-25.67,92.94-10.68,7.63,3.44,16.17,5.08,24.42,6.92,34.66,7.73,69.35,6.38,104-.18,34.36-6.5,68.2-14.42,99.61-30.82,24.25-12.67,40.46-30.84,45.15-58.29,1.96-11.46,3.66-22.97,5.78-34.4,10.9-58.74-26.11-108.58-75.76-126.33-55.18-19.73-112.19-31.36-170.86-30.42-51.87.83-100.31,15.53-137.77,52.94-30.54,30.5-54,72.67-20.41,120.8,1.76,2.52,2.97,5.44,4.37,8.2,12.03,23.78,21.3,48.09,17.86,75.66-1.12,9.01-.18,18.27-.18,30.1Z"/>
      <path d="M348.35,170.5c-.06,13.25-11.87,25.6-24.89,26.02-11.07.36-25.14-14.4-25.08-26.31.04-8.33,15.05-19.86,25.76-19.8,13.18.08,24.25,9.26,24.2,20.09Z"/>
      <path d="M238.91,148.84c15.64.29,24.89,8.62,24.08,21.7-.85,13.85-9.01,23.15-20.6,23.5-12.08.36-24.13-13.28-23.49-26.59.46-9.49,10.46-18.78,20.01-18.61Z"/>
      <path d="M118.74,158.76c4.92-3.33,8.8-5.88,12.6-8.54,10.55-7.39,18.61-6.87,26.54,1.75,7.32,7.97,7.87,18.94,1.38,27.53-8.07,10.68-20.58,10.63-28.75-.53-3.59-4.9-6.19-10.52-11.77-20.22Z"/>
    </g>
  </g>
</svg>