<?xml version="1.0" encoding="UTF-8"?>
<svg id="_레이어_2" data-name="레이어 2" xmlns="http://www.w3.org/2000/svg" viewBox="0 0 1160.9 914.01">
  <g id="_레이어_1-2" data-name="레이어 1">
    <g>
      <path d="M4.41,511.57c6.55-7.8,18.27-8.61,25.81-1.76,58.69,53.28,118.85,105.1,174.79,161.12,146.36,146.59,385.05,185.99,565.37,82.83,109.72-62.76,212.35-137.81,320.29-203.88,3.09-1.89,6.51-3.23,10.18-4.16,31.76-8.03,61.98,17.9,59.95,50.6-.63,10.11-2.68,18.82-8.04,24.28-173.84,177.01-363.49,324.87-634.06,287.61C277.18,874.95,110.12,741.22,1.99,531.58c-3.32-6.43-2.44-14.23,2.22-19.77l.2-.24Z"/>
      <path d="M216.9,119.72c4.31-4.64,8.51-9.16,12.62-13.58,38.31-41.24,106.45-37.35,136.86,10.02,5.6,8.73,9.17,17.54,9.55,26.5,2.56,60.26-16.76,137.71-102.57,132.27-16.61-1.05-32.52-13.12-51.61-30.61-35.91-32.91-38.02-88.89-4.86-124.58Z"/>
      <path d="M877.84,153.26c-.39.49-.77.97-1.16,1.45-38.85,48.75-116.58,39.45-140.98-17.91-2.27-5.33-4.04-10.77-5.21-16.33-11.93-56.86-6.81-134.13,85.28-118.41,19.64,3.35,36.97,20.22,57.68,42.37,28.22,30.19,30.16,76.51,4.4,108.83Z"/>
    </g>
  </g>
</svg>