<?xml version="1.0" encoding="UTF-8"?>
<svg id="_레이어_2" data-name="레이어 2" xmlns="http://www.w3.org/2000/svg" viewBox="0 0 1565.04 1030.93">
  <g id="_레이어_1-2" data-name="레이어 1">
    <path d="M20.73,928.29C1.43,792.27-51.03-135.26,150.03,17.41c443.54,228.79,241.02,246.64,752.22,178.21,212.14-42.56,707.04-431.97,659.6,23.12-76.87,637.77,172.6,768.02-532.86,415.12-34-14.52-95.98-17.69-117.49,2.84-118.94,123.18-290.52,2.68-402.22,136.62-107.18,61.86-470.3,434.21-488.55,154.97ZM244.37,592.47c-83.59-137.21,373.36-126.35,237.1-320.24C398.73,243.52,86.13-51.91,82.58,140.64c-28.23,252.63-19.25,506.63-21.05,760.3-.31,65.29,29.16,68.04,84.65,51.56,142.14-42.21,228.54-157.23,338.79-241.88,72.82-55.91,54.43-104.51,16.81-158.88-74.05-95.17-173.35,21.21-257.41,40.73ZM1489.95,783.57c-33-135.6,91.01-838.42-98.05-720.35-162.33,100.79-431.55,111.21-488.42,314.35,126.54-18.47,225.31-50.5,303.16,47.26-623.31-10.44,88.39,270.3,283.31,358.73ZM876.66,460.38c-15.07-541.11-612.69,116.97-169.77,183.47,103.26-1.02,173.47-76.88,169.77-183.47Z"/>
  </g>
</svg>